<mxfile host="app.diagrams.net" agent="Mozilla/5.0 (Windows NT 10.0; Win64; x64) AppleWebKit/537.36 (KHTML, like Gecko) Chrome/137.0.0.0 Safari/537.36" version="26.1.1">
  <diagram id="f106602c-feb2-e66a-4537-3a34d633f6aa" name="Page-1">
    <mxGraphModel dx="2646" dy="830" grid="1" gridSize="10" guides="1" tooltips="1" connect="0" arrows="0" fold="1" page="1" pageScale="1" pageWidth="1250" pageHeight="850" background="none" math="0" shadow="0">
      <root>
        <mxCell id="0" />
        <mxCell id="1" parent="0" />
        <mxCell id="14" value="&lt;b&gt;Google &lt;/b&gt;Cloud Platform" style="fillColor=#F6F6F6;strokeColor=none;shadow=0;gradientColor=none;fontSize=14;align=left;spacing=10;fontColor=#717171;9E9E9E;verticalAlign=top;spacingTop=-4;fontStyle=0;spacingLeft=40;html=1;container=0;" parent="1" vertex="1">
          <mxGeometry x="730" y="75" width="510" height="730" as="geometry" />
        </mxCell>
        <mxCell id="580" value="" style="rounded=1;absoluteArcSize=1;arcSize=2;html=1;strokeColor=none;gradientColor=none;shadow=0;dashed=0;strokeColor=none;fontSize=12;fontColor=#9E9E9E;align=left;verticalAlign=top;spacing=10;spacingTop=-4;fillColor=#E1F5FE;" parent="1" vertex="1">
          <mxGeometry x="976" y="279" width="230" height="143.5" as="geometry" />
        </mxCell>
        <mxCell id="2" value="Architecture: Python FastAPI deployment on GCP Cloud with GitHub Actions Ci/CD" style="fillColor=#4DA1F5;strokeColor=none;shadow=1;gradientColor=none;fontSize=14;align=left;spacingLeft=50;fontColor=#ffffff;html=1;" parent="1" vertex="1">
          <mxGeometry x="730" y="28.5" width="510" height="40" as="geometry" />
        </mxCell>
        <mxCell id="15" value="" style="shape=mxgraph.gcp2.google_cloud_platform;fillColor=#F6F6F6;strokeColor=none;shadow=0;gradientColor=none;" parent="1" vertex="1">
          <mxGeometry x="750" y="80" width="23" height="20" as="geometry">
            <mxPoint x="20" y="10" as="offset" />
          </mxGeometry>
        </mxCell>
        <mxCell id="6Cb9cr2Xe844B4fNmnPE-589" value="" style="strokeColor=#dddddd;shadow=1;strokeWidth=1;rounded=1;absoluteArcSize=1;arcSize=2;" vertex="1" parent="1">
          <mxGeometry x="775" y="440" width="140" height="66.5" as="geometry" />
        </mxCell>
        <mxCell id="6Cb9cr2Xe844B4fNmnPE-590" value="Artifact&#xa;Registry" style="editableCssRules=.*;html=1;fontColor=#999999;shape=image;verticalLabelPosition=middle;verticalAlign=middle;labelPosition=right;align=left;spacingLeft=20;part=1;points=[];imageAspect=0;image=data:image/svg+xml,PHN2ZyB4bWxucz0iaHR0cDovL3d3dy53My5vcmcvMjAwMC9zdmciIHhtbG5zOnY9Imh0dHBzOi8vdmVjdGEuaW8vbmFubyIgd2lkdGg9IjIxLjk5OTAwMDU0OTMxNjQwNiIgaGVpZ2h0PSIyMC4zOTM5OTkwOTk3MzE0NDUiIHZpZXdCb3g9IjAgMCAyMS45OTkwMDA1NDkzMTY0MDYgMjAuMzkzOTk5MDk5NzMxNDQ1Ij4mI3hhOwk8c3R5bGUgdHlwZT0idGV4dC9jc3MiPiYjeGE7CS5zdDB7ZmlsbDojNDI4NWY0O2ZpbGwtcnVsZTpldmVub2RkfSYjeGE7CTwvc3R5bGU+JiN4YTsJPHBhdGggY2xhc3M9InN0MCIgZD0iTTUgMHYyLjQ1OEwxLjk5OSA0LjE5N3YxMi4wMUw1IDE3LjkzOHYyLjQ1NmwtNS0yLjg4N1YyLjg4NnptMTIgMGw0Ljk5OSAyLjg4NnYxNC42MjFMMTcgMjAuMzk0di0yLjQ1NmwzLTEuNzMxVjQuMTk3bC0zLTEuNzM5em0tNi4wMTYgNi42NzNsMi45NDctMS42NDYtMi45NDctMS42NDYtMi45NDcgMS42NDZ6bTMuMjY4LTEuMDk2bC0yLjg3MSAxLjY3OHYzLjI4N2wyLjg3MS0xLjY3NnpNNy43NzMgOC44NjZsMi44NzEgMS42NzRWNy4yNTZMNy43NzMgNS41Nzd6bS0uMjEyIDMuODc4bDIuODItMS42NDYtMi44Mi0xLjY0Ni0yLjgyIDEuNjQ2em0zLjEzMi0xLjA5OGwtMi44NzEgMS42Nzh2My4yODdsMi44NzEtMS42NzZ6bS02LjI2NCAzLjI4OUw3LjMgMTYuNjA5di0zLjI4NWwtMi44NzEtMS42Nzl6bTEwLjAyOS0yLjE5MWwyLjgyLTEuNjQ2LTIuODItMS42NDYtMi44MiAxLjY0NnptMy4xMzItMS4wOThsLTIuODcxIDEuNjc4djMuMjg3bDIuODcxLTEuNjc2em0tNi4yNjQgMy4yODlsMi44NzEgMS42NzR2LTMuMjg1bC0yLjg3MS0xLjY3OXoiLz4mI3hhOzwvc3ZnPg==;" vertex="1" parent="6Cb9cr2Xe844B4fNmnPE-589">
          <mxGeometry width="30" height="27" relative="1" as="geometry">
            <mxPoint x="15" y="16" as="offset" />
          </mxGeometry>
        </mxCell>
        <mxCell id="6Cb9cr2Xe844B4fNmnPE-591" value="" style="strokeColor=#dddddd;shadow=1;strokeWidth=1;rounded=1;absoluteArcSize=1;arcSize=2;" vertex="1" parent="1">
          <mxGeometry x="1092" y="100" width="110" height="60" as="geometry" />
        </mxCell>
        <mxCell id="6Cb9cr2Xe844B4fNmnPE-592" value="Cloud&#xa;IAM" style="editableCssRules=.*;html=1;fontColor=#999999;shape=image;verticalLabelPosition=middle;verticalAlign=middle;labelPosition=right;align=left;spacingLeft=20;part=1;points=[];imageAspect=0;image=data:image/svg+xml,PHN2ZyB4bWxucz0iaHR0cDovL3d3dy53My5vcmcvMjAwMC9zdmciIHhtbG5zOnY9Imh0dHBzOi8vdmVjdGEuaW8vbmFubyIgd2lkdGg9IjE2LjQyMDAwMDA3NjI5Mzk0NSIgaGVpZ2h0PSIyMC4wNDk5OTkyMzcwNjA1NDciIGZpbGwtcnVsZT0iZXZlbm9kZCIgdmlld0JveD0iMCAwIDE2LjQyMDAwMDA3NjI5Mzk0NSAyMC4wNDk5OTkyMzcwNjA1NDciPiYjeGE7CTxzdHlsZSB0eXBlPSJ0ZXh0L2NzcyI+JiN4YTsJLnN0MHtmaWxsOiM0Mjg1ZjQ7fSYjeGE7CS5zdDF7ZmlsbDojNjY5ZGY2O30mI3hhOwk8L3N0eWxlPiYjeGE7CTxwYXRoIGNsYXNzPSJzdDEiIGQ9Ik04LjIxIDBMMCAzLjQydjUuNjNjMCA1LjA2IDMuNSA5LjggOC4yMSAxMSA0LjcxLTEuMTUgOC4yMS01Ljg5IDguMjEtMTAuOTVWMy40MnptMCAzLjc5YTIuNjMgMi42MyAwIDAgMSAxLjAwNSA1LjA2QTIuNjMgMi42MyAwIDAgMSA2LjM1IDQuNTZhMi42MyAyLjYzIDAgMCAxIDEuODYtLjc3em00LjExIDExLjE1YTguNjQgOC42NCAwIDAgMS00LjExIDIuOTMgOC42NCA4LjY0IDAgMCAxLTQuMTEtMi45M3YtMi4yNWMwLTEuNjcgMi43NC0yLjUyIDQuMTEtMi41MnM0LjExLjg1IDQuMTEgMi41MnoiLz4mI3hhOwk8cGF0aCBjbGFzcz0ic3QwIiBkPSJNOC4yMSAwdjMuNzlhMi42MyAyLjYzIDAgMSAxIDAgNS4yNnYxLjEyYzEuMzcgMCA0LjExLjg1IDQuMTEgMi41MnYyLjI1YTguNjQgOC42NCAwIDAgMS00LjExIDIuOTNWMjBjNC43MS0xLjE1IDguMjEtNS44OSA4LjIxLTEwLjk1VjMuNDJ6Ii8+JiN4YTs8L3N2Zz4=;" vertex="1" parent="6Cb9cr2Xe844B4fNmnPE-591">
          <mxGeometry width="24" height="30" relative="1" as="geometry">
            <mxPoint x="18" y="15" as="offset" />
          </mxGeometry>
        </mxCell>
        <mxCell id="6Cb9cr2Xe844B4fNmnPE-593" value="" style="strokeColor=#dddddd;shadow=1;strokeWidth=1;rounded=1;absoluteArcSize=1;arcSize=2;" vertex="1" parent="1">
          <mxGeometry x="900" y="680" width="150" height="60" as="geometry" />
        </mxCell>
        <mxCell id="6Cb9cr2Xe844B4fNmnPE-594" value="&lt;font color=&quot;#000000&quot;&gt;Uptime Check&lt;/font&gt;&lt;br&gt;Monitoring" style="editableCssRules=.*;html=1;fontColor=#999999;shape=image;verticalLabelPosition=middle;verticalAlign=middle;labelPosition=right;align=left;spacingLeft=20;part=1;points=[];imageAspect=0;image=data:image/svg+xml,PHN2ZyB4bWxucz0iaHR0cDovL3d3dy53My5vcmcvMjAwMC9zdmciIHhtbG5zOnY9Imh0dHBzOi8vdmVjdGEuaW8vbmFubyIgd2lkdGg9IjIwIiBoZWlnaHQ9IjEzLjUyOTk5OTczMjk3MTE5MSIgdmlld0JveD0iLTIuOTMyMDk3ODk3ODEyMDE0ZS05IC01LjI1ODAxNTA0MTgzNzk1NmUtMTUgMjAgMTMuNTI5OTk5NzMyOTcxMTkxIj4mI3hhOwk8c3R5bGUgdHlwZT0idGV4dC9jc3MiPiYjeGE7CS5zdDB7ZmlsbDojNDI4NWY0O30mI3hhOwkuc3Qxe2ZpbGw6IzY2OWRmNjt9JiN4YTsJPC9zdHlsZT4mI3hhOwk8cGF0aCBjbGFzcz0ic3QxIiBkPSJNOC44MyAxMC41OGgyLjMzdjIuNjRIOC44M3oiLz4mI3hhOwk8cGF0aCBjbGFzcz0ic3QwIiBkPSJNMTYuNDggOC42MWEuNTYuNTYgMCAwIDEtLjQtLjE3TDEyIDQuMjEgOS4yNiA3LjFhLjU3LjU3IDAgMCAxLS43Ni4wNUw2LjQyIDUuNDdsLTIuMiAyLjkyYS41Ni41NiAwIDAgMS0uNDUuMjJIMHYxLjcxYS43NS43NSAwIDAgMCAuNzQuNzVoMTguNTJhLjc1Ljc1IDAgMCAwIC43NC0uNzVWOC42MXoiLz4mI3hhOwk8cGF0aCBjbGFzcz0ic3QxIiBkPSJNMy41IDcuNWwyLjM4LTMuMTZhLjU1LjU1IDAgMCAxIC4zNy0uMjIuNjMuNjMgMCAwIDEgLjQyLjEybDIuMTIgMS43MiAyLjgtMi45NGEuNTQuNTQgMCAwIDEgLjQtLjE3aDBhLjU0LjU0IDAgMCAxIC40LjE3bDQuMzMgNC40OEgyMFYuNzRhLjc0Ljc0IDAgMCAwLS43NC0uNzRILjc0QS43NC43NCAwIDAgMCAwIC43NHY2LjgxeiIvPiYjeGE7CTxyZWN0IGNsYXNzPSJzdDAiIHg9IjYuNjciIHk9IjEyLjkyIiB3aWR0aD0iNi42NyIgaGVpZ2h0PSIuNjEiIHJ4PSIuMyIvPiYjeGE7PC9zdmc+;" vertex="1" parent="6Cb9cr2Xe844B4fNmnPE-593">
          <mxGeometry width="30" height="21" relative="1" as="geometry">
            <mxPoint x="15" y="19" as="offset" />
          </mxGeometry>
        </mxCell>
        <mxCell id="6Cb9cr2Xe844B4fNmnPE-595" value="Cloud&#xa;Monitoring" style="sketch=0;html=1;verticalAlign=top;labelPosition=center;verticalLabelPosition=bottom;align=center;spacingTop=-6;fontSize=11;fontStyle=1;fontColor=#999999;shape=image;aspect=fixed;imageAspect=0;image=data:image/svg+xml,PHN2ZyB4bWxucz0iaHR0cDovL3d3dy53My5vcmcvMjAwMC9zdmciIHhtbG5zOnY9Imh0dHBzOi8vdmVjdGEuaW8vbmFubyIgd2lkdGg9IjIwIiBoZWlnaHQ9IjEzLjUyOTk5OTczMjk3MTE5MSIgdmlld0JveD0iLTIuOTMyMDk3ODk3ODEyMDE0ZS05IC01LjI1ODAxNTA0MTgzNzk1NmUtMTUgMjAgMTMuNTI5OTk5NzMyOTcxMTkxIj4mI3hhOwk8c3R5bGUgdHlwZT0idGV4dC9jc3MiPiYjeGE7CS5zdDB7ZmlsbDojNDI4NWY0O30mI3hhOwkuc3Qxe2ZpbGw6IzY2OWRmNjt9JiN4YTsJPC9zdHlsZT4mI3hhOwk8cGF0aCBjbGFzcz0ic3QxIiBkPSJNOC44MyAxMC41OGgyLjMzdjIuNjRIOC44M3oiLz4mI3hhOwk8cGF0aCBjbGFzcz0ic3QwIiBkPSJNMTYuNDggOC42MWEuNTYuNTYgMCAwIDEtLjQtLjE3TDEyIDQuMjEgOS4yNiA3LjFhLjU3LjU3IDAgMCAxLS43Ni4wNUw2LjQyIDUuNDdsLTIuMiAyLjkyYS41Ni41NiAwIDAgMS0uNDUuMjJIMHYxLjcxYS43NS43NSAwIDAgMCAuNzQuNzVoMTguNTJhLjc1Ljc1IDAgMCAwIC43NC0uNzVWOC42MXoiLz4mI3hhOwk8cGF0aCBjbGFzcz0ic3QxIiBkPSJNMy41IDcuNWwyLjM4LTMuMTZhLjU1LjU1IDAgMCAxIC4zNy0uMjIuNjMuNjMgMCAwIDEgLjQyLjEybDIuMTIgMS43MiAyLjgtMi45NGEuNTQuNTQgMCAwIDEgLjQtLjE3aDBhLjU0LjU0IDAgMCAxIC40LjE3bDQuMzMgNC40OEgyMFYuNzRhLjc0Ljc0IDAgMCAwLS43NC0uNzRILjc0QS43NC43NCAwIDAgMCAwIC43NHY2LjgxeiIvPiYjeGE7CTxyZWN0IGNsYXNzPSJzdDAiIHg9IjYuNjciIHk9IjEyLjkyIiB3aWR0aD0iNi42NyIgaGVpZ2h0PSIuNjEiIHJ4PSIuMyIvPiYjeGE7PC9zdmc+;" vertex="1" parent="1">
          <mxGeometry x="1050" y="570" width="42" height="29" as="geometry" />
        </mxCell>
        <mxCell id="6Cb9cr2Xe844B4fNmnPE-596" value="" style="strokeColor=#dddddd;shadow=1;strokeWidth=1;rounded=1;absoluteArcSize=1;arcSize=2;" vertex="1" parent="1">
          <mxGeometry x="1100" y="680" width="120" height="60" as="geometry" />
        </mxCell>
        <mxCell id="6Cb9cr2Xe844B4fNmnPE-597" value="Logging" style="editableCssRules=.*;html=1;fontColor=#999999;shape=image;verticalLabelPosition=middle;verticalAlign=middle;labelPosition=right;align=left;spacingLeft=20;part=1;points=[];imageAspect=0;image=data:image/svg+xml,PHN2ZyB4bWxucz0iaHR0cDovL3d3dy53My5vcmcvMjAwMC9zdmciIHhtbG5zOnY9Imh0dHBzOi8vdmVjdGEuaW8vbmFubyIgd2lkdGg9IjIwIiBoZWlnaHQ9IjE5IiB2aWV3Qm94PSIwIDAgMjAgMTkiPiYjeGE7CTxzdHlsZSB0eXBlPSJ0ZXh0L2NzcyI+JiN4YTsJLnN0MHtmaWxsOiM0Mjg1ZjQ7fSYjeGE7CS5zdDF7ZmlsbDojNjY5ZGY2O30mI3hhOwkuc3Qye2ZpbGw6I2FlY2JmYTt9JiN4YTsJPC9zdHlsZT4mI3hhOwk8ZyBjbGFzcz0ic3QwIj4mI3hhOwkJPHBhdGggZD0iTTQgOWg0djJINHptLTIgN2g2djJIMnoiLz4mI3hhOwkJPHBhdGggZD0iTTQgNEgydjEyaDJ6Ii8+JiN4YTsJPC9nPiYjeGE7CTxwYXRoIGNsYXNzPSJzdDEiIGQ9Ik0yMCAxSDd2NGgxM3ptMCA3SDd2NGgxM3ptMCA3SDd2NGgxM3oiLz4mI3hhOwk8cGF0aCBjbGFzcz0ic3QyIiBkPSJNNiAwSDB2Nmg2eiIvPiYjeGE7PC9zdmc+;" vertex="1" parent="6Cb9cr2Xe844B4fNmnPE-596">
          <mxGeometry width="30" height="28" relative="1" as="geometry">
            <mxPoint x="15" y="16" as="offset" />
          </mxGeometry>
        </mxCell>
        <mxCell id="6Cb9cr2Xe844B4fNmnPE-598" value="" style="dashed=0;outlineConnect=0;html=1;align=center;labelPosition=center;verticalLabelPosition=bottom;verticalAlign=top;shape=mxgraph.webicons.github;gradientColor=#DFDEDE" vertex="1" parent="1">
          <mxGeometry x="340.25" y="290" width="90" height="90" as="geometry" />
        </mxCell>
        <mxCell id="6Cb9cr2Xe844B4fNmnPE-599" value="" style="shape=image;verticalLabelPosition=bottom;labelBackgroundColor=default;verticalAlign=top;aspect=fixed;imageAspect=0;image=data:image/png,iVBORw0KGgoAAAANSUhEUgAAAgAAAAIACAMAAADDpiTIAAADAFBMVEVMaXEeiP8fiP8Ziv8gh/8eif8eif8gif8gh/8VpP8djP8XiP8ah/8eiP8Ai/8kkP8gh/9MaXEgh/8eiP8ggf8biP8eh/8eiP8eiP8fif8fh/8giP8fif8fh/8giP8fiP8eh/8eh/8giP8eiP8eh/8eh/8fiP8gif8giP8gif8giP8eiP8fiP8fif8giP8iif8eif8dh/8eiP8eiP8fif8cj/8eiP8fiP8giP8eh/8eiP8fiP8eif8eif8eh/8fiP8giP8giP8eiP8eh/8ciP8fh/8Ugf8eiP8eh/8eiP8cif8gif8eif8eh/8gif8eiP8eif8eiP8eh/8eif8eiP8cj/8eh/8Sgf8eh/8eiP8eif8gif8gj/8gif8eif8eiP8eif8ei/8ah/8eif8eiP8eif8eiP8eif8giP8gif8gif8cif8Uif98vf8eh/8diP8gh/8eif8gif8fiP8gif8gh/8eif8eif8eiP8eif94uP8eh/8ci/8gh/8eh/8eh/8gif8eif8cif8gi/95uv8gh/8ah/8eh/8eh/8gif8giP8gif8chf8gh/96uv8eh/94uP94uP94uP8eh/8eh/8eif8gh/8eif94uP8eif8gh/8gh/8gh/8ci/94uf93xP96uv94uP8eh/94uf8eif8chf8gif8ch/8gif94uP8gif8gh/8gh/93uf94t/95u/94u/90u/8eh/8gif94uf94uf94uf93uf8eh/94uP8eh/8gif8gif94uf8eif94uP8gif8eh/8eif94uf8eif94uf8gif94uf94uP94uf93uf94uf94uP8ch/94uP94t/94uP94uP8eh/93uf94uP93u/8gi/8eh/94uf94uf94uf94vf94uP94uf94uf95uf8gif8gif94t/8eh/94uf94t/94uf94t/93uP8eif94uf94uf94uf94t/92t/95uP94uf94uf8gh/94uP+B1f96vf93uP95uP92uf96uf94uf90tf9mzf8gif94uf8eif/0vNazAAAA/XRSTlMAUhgUQFb9qasCHgocKgQFqQD3aggWLjpLXpbZ3LHRt/P9ua1U74+wYPOZfCi/cA4yT5JyvAhiw4m8NkiWnvWzoMlC+zTkDGTVpizv7RDgjfecx4TNEoQO7aPVzxBY5XfrIBLFXMta9cHn8RoMC91GWKvHZunh435BRP3FIus4evnfPjAw8SZubKFoJiyRD3Ry8Pfb51TLterX+el2JMAIH+YiK2wagSSH8/uB12DfGSgUMDiDVUdNSqTPblDhPKp+h4ucetand4+xP2W5PLzMxom1OXsjPos1bK0SUe2fW054lJvPmZfZHHRo2375JkK1ySDUBhY8WW5EfBgEXagLGgAAAAlwSFlzAAALEwAACxMBAJqcGAAAIABJREFUeNrtfQlMVcf+/wA26WURHquAAheNGkBQECgQUYtSjEGiVQE1blGDGhEliFxcEhU31IoLMUCsS4w2VNtnN419GtL8avtqq10MrbVWbX02rXZ51tfX9++5+Qc37vKdc+acMzPnHJzPz9efr+/eme+d7+fMmfmuCDFE5nqftuditvRPrIjruzBBCp09Ydqk4YPKk0pqo6MikEBPxtCs9IpWSQ4J87ek9ioVK9XjEHB206jpEikq+6/NE5tBj0HmsJgiST1m9s/yE4tneSwO+0zSjvrkILGEFkZaVo5d0om4tsViIa2JdwdJdFBRHS5W02rwu1Ej0UNZySGxpFZCVLlEGzk+YlktgvCsyRILTGibIRbX/CieWiYxQ9K/xQKb/OlvGy+xREtJsVhk88I2eIXEGotmiSuBWbGuSOKBmnk2sdYmxMZ4iRem54rlNhvSYiSeWBYoltxUqGqV+CLhjHgPmAdHEiX+mL9NLLxJsDVfMgS1YulN8fbvJxmFbHESMB4fL5SMw6JhQgEGo12b5voOf3ZiSW1q9Lu9+iwIu/FcUkh8c6g247BQgZEIUH33X10/Yta7Kb2hwQLrwrbH16iNIFku4saMw6FYVbqqHBGt7MwpPPXc6AI1o+4ZKhRhEJY2qNjzk+b5km8seR2TVFBgnlCFIUglflCLao+qv1xk5RCPf0wYhfjDNoI0jqNjvcYpIjbXE54IPssUCuF9+68gC+ZLj9I1jf+saWTuIV+hEq6YEkeilrEZAfqnOpVN5CMWNiGe8CU5/sdmBdOZ7Y2RBG+CmUeFWrjh3wQh3/P3UjyZBZUrHwhXRwrFcMJGZd9vaxXlOVOUzxwNwiDAB4F7lFRRUFJIf9oFik6H1Y1CORzgV6mY0pnCZOLS7UrvgZniJMgepUqRn63sDHORo5WMzeI2yBqZ8xV0EJPGcvoshayTojShIqawKbj/ZtexvoAuV4gRCRZKYgmFpM9s9oVdbFPljQL9hJIYotYMQXp18rfQEqEmZlgqf/qL4iRGhLxx+F2hKEZYLJv4mTiX30kkWe5C2OAvVMVm2ZtlT/9cZcmTiyCcLg6CTHBMZs3tbZyFGSp3H9wulMUAvWRO3y17uYtzSM4hlSfURf/ktRq/3vnrDBDITyZUZPwRoTDaBwCZk3erMY7YQhkH4WgRJUgZMgkgZauMEmokXqgOoTK6Zy78AaDBuECMTBnnkAgOoAq8C7BljYFipeFD0+LES4AiNuHvf30MFcx3JlayDKE2ejeABOwyRxss2kasdTJfdByghhCs/ttJh8hNbW9P7cOg+PsafB0hoThKqMOucX8y5bclPtlCZibSDhddgJWuTqiOCnpjgwAnEMR+2gZ7muxq2uiG7WBz1Cp7C+XRQDL2ESMo19fnVej1nE6z4Gv4qzj51grlUUAg1vGWqvjdUtzpYfUCihIG4YpUhYooYQqYiNP/SMWvRspEkCdS9Npn4SaZKNSnG3Nwi7tCsXq/j2zZn9Ab9IQch5tExIboxiicBWiM0jevK+VxxFEz12ZOEDWkeG8ALyp98yRBAvH2AEpinhRbAOcTQI3SF9MqCQggjT1FSc4YU0Sq9TxEFGgNvR1JWvebjsU2DWMSDhUdRnRhKkZt8UpfjCav9hnG9CaQLJSox8aCCb1smaPwRZuaroHLqWQTY2KWW0WIsA6EafUBDVBX7rOdgqxDMWNnCTVqR1/MCVCxb1OOyoKvsRTCSpPgoacJNWpGndYggED1VZ8n6vYQRWBGfkMoUiuexWwAitFWWzXU/dZfVigdHniUUCTlR2qr4jdDNJV+j9fpu8HsO6Gi46xGrMUUgVA+V2tsIJiQqi+SExMZcEaoUhsqNUdbam4B0rxej8CNmJKFQpWasB6TdhXOkABSQaeeus+YV48IC6BpBSQJs4EzSMgoUKMjlG8bPGSbUKYWwMa8hDStBFiwlrAt0DjtXWDgDmbNQpn0LGvfIa0EGIDmDCFjQJlm691S8Q5g/QZYp5kAzyCE5s0mo0DFHG1C21o1Ri8KeGEyHAiGdBEAFY8iY0BosjYnzkBwtByhTtWYi2nPo5MACJ0lbDVWpKlH/Bj4bhEgFKoWGP96im4CoOD2FiIG2DVVnd0NjiU6jKpGfziOE+knAEJHyRoOSTN91MtdK4JD6QC+tb9EhQDKRZ+f5B6oLv+9CnY3C4WqRBC8K0dQIgDyG0fGgIbNat0DcDXpuUKl6lCty6quTACEehFGjc3fpk5y2IV1XahUHeDbWidFAqDMY2StQVs6VLkHonTcXgSeAL6r9aFJAIS2zSfbBCp7qbEFgQbnCqFSVZgCa6JUDwEGAB8MSyCjwCgV4f2JYMEYoVNVWAmqYTKiuwN0VXlaRsaA2eSdiOB6BqKjmCqk6uvFQE4AhE6tIKPAENI0v7Pg132EUtVghD57mhoCoIASssNgfhvZjRA+BLQLpaoBmGZjD2BCAIQip5NtAqMXE80OJiUMEkpVA/AhqkS6CDBA7pWTTxYosJJk9ueELVAv4ADrRMRoB0AIHSHLJi4gqS0EGrEKhFZV4GNw9dMZEgChZxYSUWCz8uzrRKkIvYCTuzcxJQBKS7eTOImVwwQWaw9lEngIuDvAUnZngIfIJUkoWaEcJZBgxqrGlsIWcOkPsSYAQrMIAoeV30TgpaJWqJUciTqPUZpeAQ/gn6j8ElDsULFMVAvSCTAg9FUeBECoqlUxSkRpiA7oWyFCreQAXfVD+BAApSUpHAbtSmH+Z6BvDRdqJQd4iurHiQAInX1VngFTtVxipgu16lRgOTcCoOBk2cNgkcLXfTRVNhRQUGCMzu8PUCNBo2wWmcJ9BCxtkyDUqlOBnfx2gAf7uEyr0sHyX4XbyGQKvepTYDJfAiC/LVgCKAQmRIJf8hV61afAVM4EQGglrt7wZwrGBPBLQUKv+hSYxZ0AKPNFOItskvzX5gpnAAsCVOn8/gAtkqTUa7kGiPxAnSjQ6U2htQMgtFELATJFVKBOgLfwMP4ECD8GvwLq5b8GFzg8JfRKjAadpZYovQLycNljCkZJuM2J6CNJjjKdcbVUdgDfZ+leAz8WeiXGTF1ZAXQIkCqTNKSQJQKnB+YKvRKjSGeRBf2vgNw4OVPwv+W/vFTYAXQCPHqP47cDlMqHByrdAvcKS6BOjGThDibfAQYoBAgrtayDY1qFWslRrrPmsq4dwF+p3Yj9iMIIN8Aax0Kt5Bio05+qZweoVQwKVMzyGiFSg3TiJXDhIzgQYB1BFUHFjrPZ0LeyhVrJUaXzIq31FTB3C0FigPJtZLbOgCaBj3W6AzUSoHoRgf7HKnaAmSGJ/HCdgG2pHWwJkDKaqH5olLINQUsUkYCyBvuzPAOEd5DVCCDwSCwQ4QBsTIFFDAlwirBqIElYUrvoGaAbsB8mnBUBFvcnLCJPFNQBDtYglKoGcLeIlboIgD0D2FIJi8XVkJnzyzSEEAiQ3APbmewA8n4fF0wk6wC5TW9WgwCuVnQFgx2gNMZOpv6+awgn3yzpjGcSQMgGFm0qsFEnQNVCwrc/eQsZ+PxyVihVFZbrukqREsCfsHOElKOiwg94BLCLvCB1iJH0VNkgI0BwLWEjwT1qGovDRwCRG6wSsEs9Rw8BPA+BKwm7R0kxpWok36yzwpnAA8DG4JYZ1HaAueWE6o87qU5yuMbMAqFSlQDjQqVqSgSwVRM2DWpQ21E+Ai48PEdoVCVgx+wQHQRweQUE1RM+/u+rDuQ7A9eWEwpVi8GwRhZTIEBAJ6H6a/JoXV9E2zjV8IV1kqH/FbB0Jpn6W46Fqxf7CDzWu0KhqgH385mslwCLBxE+/vUbtUgNtwspEFYAWksprdJFAFsGod9ntcYO8pW6rq8CLoAT7MgcQrgzwBtFhI//xLlUhd4k1EntYarRToDSGEL1x2qO3knXc3QVcAcmRitaKwG2tBLq/4Zmkf3gxiMiIlwTcjGPJ8FX8yXtyNHR2eFF7XFkAt6o0XylatWs/pkDdAgcAJ8w7RFClzTfAQQ5gpO16n9gqR6B4YQmNVWuBVzRiNGSciffcdrUHxepS97g2ZLe8mYCbsiGFzRe8YsZWtSfcEanuNUYk4JQpFZg/AHKtTaCNOg/RG8BBxvmzNIpFKkVmRiznXLvhVi16q/UX8MrDDP0UaFIzcC57RSP6rPUqb9larhuWeeO1/rCEsBiMS5DV6mLsJ8qS0BFCgVZR2EGF+UB9QAXt6X4Xl1Lrv7ZVPJ210ja7VYCWETitKb4zBKfAsqnUJEUl14kssL1Aee9V0wSiiJTf1EUHTlTMeO3ChXqw3qNxTpxSdruyL/Rm46YEQ2ScATz3QIWKebbK/cAjaeWs/8ZZgYRDMpuC1B8CWQq5H3tGUBNSKzlMUsoUDfexy2uUvtGFBwio/6CgYXURBxTgDMv2YT+dGMOVofKN+yt2O/OX09PwhnY8jKiSQgNbMcGbipb7yObYb8P1Wx9bJyxqApCBX64EzZRP+Z5k7zV3zGFpnxnsNvMGKE8tkcsaS2RMWmgW/3H6WfSqEp3Em9iEqqjBLxVj7AV25pZ3yXG5jfEDtleTbttwxHsASD/iNAcJdTh3XhRBouWFqurpKAAGUZiV3lRiqGChePTjEcLtdHDYnxC10wjO7HY+uHtDClCbRRRLZPGk2acWBPxYoni4HSRjV/q0Yal3sr4m+KEDZAu/GWyerNnGCPTVBlLs3gB0MYwmdV+1YhzgG2izqLiAuqwXa6Wyyru4gTHywUZCnUxQLPMipfx7suaJudrLhO9AVggUK6yWz7f4NuIaXJdZUSbaDb4WK6udwHPDLxDK3R2lRHQBNmUP3tnb15ynJLtLjZSKIoZ3pev68XJ+zJQPsU4QOiJ3dG7WXbty/I4yBAoL8NMUQ2CJfz2yDf162BugKuTby45fqNQElNEKiT91fuznV+hymzoGqEi1k9ggUKux9pgdpM/Xyk/eUEfoSDm8FFq8tR3Kau3fz+Fme2iGAwPRCtm/AxiYYnLrFVMOa8WyuGCMOWkv1rqk+ZVKk66VqjGPAyY2VZKcUKbD0GHCeEB5AeSKmANnbQq9GZWExQbsG8VauGINqLk/y00YsCLa4naC0ULpXDFYLL6D/F6s/PGpJP1FhRZgLyRR9j0sSxpnWbroH/yq2ST5K8TCuGONbNJqwDt6dASoTdl83LSCcpOCnUYgMXzySuBxcZcV+WkW9OeraLI5CqhDEMQXC6pQMuQG+uJXga+WSFlagYeWSpUYRS2qiwIW1Z+Zqmct6g0anBnnMoxRRkoIzG0RkNZ6MkhL85blxvZ6O87IxyhtIjAxm1jzvaZNSJ7tfqxJgwVSjAUxfGSkRind/uP3Htj1JD50yr3LJKk/LIVsXGT4ks2L7VOp2FX+cv6zk8MSTp2pg/frJjNxqk/QY/1J21pbSJ+/yoKCTP51UJW/hVDJr7ELVL/6CSD9D9a84M6ZUEMwVEjIbHdpJWmyeQPjV97lo88bUaoP1Sr8ydgnorX1up008UYqZJfSpzHQ6aN/DeBIdpiz3r3GZegcqa+7SZqOaFB/tYOfw6CZfBVf5m2IuCBU7U1tMteYA71a5V/OIdQKf8Qfuq3T9SSkG7L61egecrWDsPzDXXJP/alQuYCrovjpP9YTZWpUit1Tjso11D965W/oYN9Ev/gCRzUv3CzFtEG9KVhdTBuF6Ai/0Tmh5neg/syVn/NVi1R55GUDqmhU43JO6Mlvz2JfTGX6N0M1V/5ghaRfLfQk6DVgMhjmvLPZt9Cx1Y1jZH6i+ZpCS2xVS+iKsVyzpdC2vLXczAU++QwUH/zu5pk2ZhNXZJknvpnIH9nOHuxG7fTpW3oKG39BYKTQ1lsRdxckGzkj+WRQRtQPZ2awNNSNZ5d/FndTDmVoWQmP5+TzBvlDRRkrcjQHPG1ZrXECoN4XAcYyh/CKYzqbIeufaAhZJ6OQrSDJYaYvJj54jGVv5LbaywiWl2IX/ebduDzuiYuYWuRaGVtGGQsv8QzlT434311hsy4Eh+dbWUy2Ycq7WW5ZBzk55xMX0x4N4wbtemsfsdFab3EHgyNKlzkf4EvAxTcha1x8emb8ihdUKZM5uKWYpaQykn+VBMQIK5XF07S9VRFFKkJ+IgvWXtm8IC8XterqjNqR2SrcbkzqknJTf4XjSdAAovrM6k/oijdp9H764W5YctIV3Eqsrb8yca/AugfpouJXJINSXuLZQYJCiM7s8xC1pZ/q+EEyKBuPiVIKg191kfZreybSvAmtvtYXP69RhNgEO15lin+6BVhpOallCRlXayxtvxSncEEyKfsm3pO8cU5WE1V64gOJXt2mb+15U9YbywBKNsjXlAy4Km+vE9JV3KuFVtbfl79NXAEoPoOGCMfOBvaocWJ0zhcfgWHW1z+0TZDCdBCMWA5bazsL12mdbc+FcvHHGCQ/B3GWgLD6M0ha0AvO6XjaC7bpKAg19ry2583lAB9qU2xSTaYT5+1sU7Op7mi0Nryz44wkgDULiKRLTIkf1Hvi85XLjqvv8Xlz7YZSYB+lGaQe9G9S2F8ufDsaIvLn2okASg1epVpJRxKZ5ORuVCV+Vlb/gRfIwlA5Sa4EX+DaqB1SJPR0SiLy19uJAEkGgFq+BCK1duo/YhU/G9YY3H5o4wkQLb+4bPwz08QxV+BX8HY3taW/1WbgQTQX+x5Shknbw2+bdVai8u/yUgCLEzTOfoxbtGv2PqoCcXWlr8hzUAC6D2DpCVwi321Yc11tRaXP9lIAkj6rJHY4+1A+j8kE1cHY3yAteUvCzeSAK16LqIBuAcojkVHa6zF7obF5c8wkgDSZB2/NRkzZj6bCmm4o/TscGvL3xpsJAGkJO0bQBnn5JeRdA2qppE/zFACaE9azmLpooEQgYmz2m1x+WuMJYDmCFtMHG0ou1gnnON2ncXlv24oAaQCbT6PRhaWGYW7VBxFj4CJ5H/WWAJI+ZoM0iWsA00ARGF+QKG15ZdmGEsAKV+L3Ws1oziTo9Xpg0bGhMGm+FH0zjFmkn+rwQSQ7OojK/bCIw3Re1t+EkEzHdqXFsPe20nI2vLPN5oAGt58mFSaPH3iutnm0skfIfUHN3PJn2I4AaQQlRZV+EoTR/WmXOH9iRRae6i55J9qPAGkWFXFOOvgQXSV+A/2cphsJ7WmxKudy2TyN5uAAFKCmuIlcMR7K21LWRSp5tR6hMwmf6kJCCBJk8gzFivpe9GgZ6Pe+2NjqfjvrS4/GwJIUtJcsmFT6EcZ9gNH9K5X2UnDpWE6+UtMQgBpPJlzMgw+RlBfPyBiKhL8XKW62Uwn/2SzEECSdpNkQyRRDm4JxgXMxHh/djeFl6jp5LcXm4YAkhRXnak0LBxNHUn7+QFdcx0ULvDmk3+YiQggSQ3pkRpu0bPprx8UtVhH4ek1n/y1piJAV+ptkg/exTKHqiPdhl8/6HCUWaA71dGE8r9vNgJ0+Yknp8+Dq8YPAz+/mf76Sc+Q7t+qrvAmlH86TwJ8pqIjSkP9iLY+uUGBbuHra8GPasylGSTnp4ROI1PBj6oJbzWh/Pk8CRASzKIqdij95we2zPhITGCw/P48CSCTqaIdcdSfHykffKyD2BDAYPnr+BIAxVBfwBBQgFMDs/dINcPbx2hYP9zdjg0BDJZ/M2cCoBdpLyBUBPtsd/OafnNUr1+VKkO+xeU/xpsAqCqf7gJ6RxXZau2ux8nr6t6fBdhw5UQmBDBY/iTuBEApdJ+kOkWb11Y664cLq7G2/CH8CYBK+9FcwFzl27Z7Dkx/TfsnQmg7EwIYLH+8AQRA6KUCegvoeY0Onun9mcEUnh+cIcDi8o82hABo3WxqC+gZmJkBfShL5/npAWYxIYDB8scaQwA0d6Kd0gLOILF42hfofn5w3nyLy99qEAEQiiqis4AeMwdgPvZwBZ/V/vwgNI8JAQyWP9QwAiBbKo12w5JHmn6jzNOh6/lh1d7VYPnzjSMAQr7LKCygR9fRN7Af9NH3/LB6BRgs/0IjCYDQ0Pd1L6CHNyMS/0l5Z+Qzij+qjQkBDJY/1lgCIHQoKZTqNcpX2ygFBOUKuFwDecs/2WgCkLQ6UmVIWchq/dBALoYgzvJXGE8AhDKfGal9AT3DGju1DEJUn+d9JgQwWP5+ZiBAVwfNrByNhgHPjAL/AjbPD0JsmjwbLP84kxCgq4Bmn04tfdS9QuBj2Dw/CCUwIYDB8g80DwG6EL6yPbFV3a/3qq2QWc9m/SKY6N9o+cPMRYAHmLIyNSl7POnP9652ltasav2eIRTrYzYEMFj+OhMS4LHXOMK/MfKNdb26MRH8Cd5NsNLmM1g/TMnNBb3IYUb5A81LAG/Aca1AS2zyZ6iAvFwh6IdrsVlbfkauAEYEWAWuAVQTJ6CZ+vqhMt3udBPKP91SBEBgOCEYV022ggV7yeeGbbRJFpc/xFoEqCBxpzxEYTa987OMK6ja4vLXWosAcC88uNpgeD3N/RMXE5xrcfmXWosAcKXtHKRpBdWtnx9oqLT3trb8BcHWIsAhcCXsEVpWUM37Exeqp7ZWqOnkz0bWIgCm424bzq44hNbzgxBccTvZ4vK3W40AcK3tItzHg4dQen5wkVrrLS5/L6sR4HmVvwO3gmqfH4yHZo/F5Q+1WY0ANtgjh09vCU6k8fyguS0UrADmk384shoBcNW28VU2eidSeH7Qc/C0fSwu/2brEaBKUm3QGqndf/IYM+AHd1G4teWHTVDmJkAm7Ca2y1Q68XyG1D8/mOI+UDlGS8nPsGkQMwLg4mWWyb143cLsWtV7wOdiolaHWlz+PlYkwEnMvUi2HfHS7vv3KA1da0fAU8ZZXP5WZEUCYCwaSgkOVTldH2qI0VKWFZess9ni8ndakwCbMT9nltIXU97QGP0yHTPjDIvLH2RNAhSHcv49uGbP5RaX/zNkTQLgWi9KsZlMfkoUJl/BnmJt+VV6sk1EAN8WzC+ayOKXpOGi1J+1uPxDkFUJgM+ceJfBL8FWt02xuPwrrUsAX1zyVEIk9R9Si1u/fhaXfzmyLgHQd7hftTCC8u/AF4heb3H586xMAH/sz5oeQPVnREkMNgBTyJ+NrEwA/MYmJdL0cPuX4abJP2Jt+Qu2WZsAmBZeEt3atxGx2FnaLC5/OrI4AXrhg+X696Y0x6Ea7BxFNmvLP7vQ6gRAW2Tyrem8RyOx+6dkH2pt+TGZCJYiwFyZ9PHJNOIc6mSq2sdYXP75yPoEkO3gU/OG7uFvyAzfN8Da8kuRPYEAspVUCjL0jT1DrjdES6S15WcYCciVAJnT5H5kvJ6muLl7OKyfYfIPQj2DAOiobO+ZVs0HnRkxsvXK4i0u/4TCnkIApeLN9Zq2aluWfJGqsWnWlr8lEvUYAuBt6o+wvVT1kJEKKbmhQ60tP5cDADcCKPbxKpuqLoTybH+lnPzrFpd/FOpRBEhTbDrRMoo40sq2d7liSY5Ui8ufaOtZBEBHCEorTzrjRzDSyc6ZykMlWVz++kzUwwiAIonaUMZXzZUfJflVkmH6WVz+uFLU4wiAlkpkiEsfAEdbbAvrX0Y2REWAteXvG4F6IAHQOvIazgsrJs4aFhU5JyITpfk2Dl0X3R4ynfzbjFoscpO/Zg7qkQRAQ6n0nlLEIFbnJ07yT+P4/PMlAIpczWH9ytmdn7nIX1GIeiwBUONM5usXw3K1OMg/DqEeTAAUMZnt8hWksl0u1vJLJahnEwCFj2O5fA11rNeLrfwqC9pakQAIrbUzW77dqzisGEP5F+aip4AAaFg+q+NTGpclYyZ/vR96KgiA5ixnsXz5GbzM52zklzpt6CkhAEIvLKK+fDn+HFeNgfzjfRB6egiAfEfSXb7V0XyXjbb8UnkEeqoIgNAzYyku3wj+b0+q8seuQ+hpIwAKv0HLspodZMTK0ZM/oa03egoJgFBEEo3lqxlg1NrRkV8atRihp5MACG37TO/qtYYZuXr65U8YaKj6jSYAQo0Dx+tYvoqqYGOXT6f8e26UGiy/4QRAKLw6TuPDkx6ETADN8kvLq00gvvEEQAiN2a7ez5qTFYDMAi3y17SvMoXspiAAQra8cjU93ydn+CJTQaX8ZUlRZpHcJAToSsGbV15JtPPn1B5FJgSp/NL0jl4mEts8BHhwsfLprG+RWbsJ48LW25B5oSS/NHvcvAhziWwuAnSh98Y+qTE5K9ydrg2T32+fl1uKLABQfqm1vrw9OsrXfOKajwCPURjh37h+zbrcbat8ZyAL4rH8kY2BfoXmFdO8BBAQBBAQBBAQBBAQBBAQBBAQBBAQBBAQBBAQBBAQBBAQBBAQBBAQBBAQBBAQBBAQBBAQBBAQBBAQBBDoGQQI8AvcuH7Nx5GBAdZc2SV//+HnDZ//5/APS0wtZjmnYtsqcChvU3riBLeY6tjl/Z/bWrfKGpq//PZ/b1444XTBvtuXrnz645+XzSjtRIgAQ4ySprjP1CGhMnkVlZ+1rTGz7r9+5839Thmc+PX85yYTGaxxMN8QUXySiGrp5+esXWdK7f9x7baTAK988sU/TSR1OliyhrsYtl7flalIrmyICTKX8m2/XGtykqPpX4fNIvkxaH1nchYiqHOF6vTqSdGZplH/hg8OOtXit+Mvm0L2l8AHjKsIC+olTUhISjHFEh7/zeHUglduvW4C6eGeiOHc5vfvaNVRYqWf4YnWlz/9Rpv6u+D41fjTwHVwYXm9YVf1l3Si+RkjV+/nD5068dtbBhMgF1xWPmVLp5TQqLJWaVilnb/fclLATx8ZSgBfcFFvcJg5OLVMooMiQ2wDv59vctLBPUNtA6DdZQT7eU/VUCy1OnEu93V75x9Oenjva+MIABpf6lnP6vc+3VrLZVv5Vo7Zca3rDEft/5xNPxpW+Qasdbma9d1jvEQbzY0cF+2Xgw/0//A/FP7pcDh/+9kgAnSCy8l0Nf2HMGkYMZjXkr1889Fz63hX0PrUAAAU7ElEQVS8C3T/Q+vfnY5dx40hQDS4miwr8OYlSGwQwsc2ePj2o2ff0b0LuP03Tf/e4XSeNsRxfBJcy0HsJrzBrulS30gOC3Z1l9Pl+Xd5nGX/neznH//npw1GMEDiawzewrTt2mbmy/XBoy3bXYMABWT/G8wHh/MrAwgwHVxJRg3MIpolthjIdrHu//bo5AZpUM1DD5Gj6x8f8CfAdnAh1zKZ62iNxBpMW8ce3vf45Can0O6DHf6h93z/P/nOLe4EGABb11hMlcKj+XIIuxv1hqYnmlPSP8lnYHKc420RmAKvI4Pz1NDxEg8MYtWB5/NXXJ5UZf3LPvTgDvDwz4d/cWbANLiNIfV5osivfwsrJs4aFhU5JyITpfk2Dl0XPTWkmbxf5xA218G3d7k+3LL6P7j/vfNXP99w4P4StOO1nzf88u2b5y7eVdwBHv+L/ZxDRZ6TuEQF1RFqMC7GZwo4QFBYyGyyIUYyMf67varx+/q9m1dhy/7hr87tg3cIT178ypcAveBVpNyIeyiR/uPnFcuOsi05lqgNI4P93+2wjtsBLnwr79Y5fOe29zvA+05wmi8D4K15C9U5Ahcqq61+K0n/xzElMw24DV5ugu98rrr77av7JCfJDw4q3xdvciUA7JkroFncPk0x4rsghDgMyVY1XZEBlCMadpzAaKz7r+eIA33/9sf3MveFh7vAeZ4E8GF+o7ZVKOgrNEld7+c8pQGlLJor9NclJ2DAf7J9Ox13bx1Qd6Dc724x8N4Fjhv/DpDotTScqKCtZwPVnymVDgNnKS7QOdDa1/2PKz+oHvLP225HCu8L4n84EmAcvITptMZ/QV5V0zS10OqdKt/DfSG9KKGd3RryMuE6HRpDun7f2eRqM/S+SnKMEsqDl7CF0ikgRS7dT1qtOZjH7ztZx+JwagbAu06ZHaDpR62Gm/u3XLTvvQt8wnELwCTmJFEZPLxIVk16umitlDUMtNFZnCUnHJgd4IHVRs+D+s99+B3AwfMgOBVeQftQ1gcAe60+y3eE3GGwgI5L80NX/5/Hg+q48zddY9/fj3Modw3+JTcCHMJ16KQwdpVc72/9eb7tMsOvoNFu7COH50m9W0/79Gf2vIlzFzuczn/s4MaAeMwSbtI9coSMB2AajSaKeTInDArvsB92ub+nXXeAe/cpyP/2Xbw7iZ9v+HlcHrZuFYXIWP7otNMbir8N2PX7NC/gT+qX6MTwfdmEdyzwyyKfjPOtsrlgPLj805I9ZSx2Dt2lLt7C3tUdv/5OSf6fD+IiSpwXuRHgGdwS6su8y6xhuT0/hm8RK4PgkoPd4dseCqK4Pd+/jQkUc/AzCNp244y0ujKFO9k//w8YgPUPzU7TNfBNbMznFZryv3YQF1O4j9s5EHtYj9VRpi2FvZXmIYKw5wBd5swN2IBOylaaw7hzAEe/IHYbHaV9TGwGYBztoJ1c3F3A7q9j1Cu449k92kE7X97FxRYf4EUAH+zTGq11yI3YXE5ffjvYd9rHfB0T0evcd5+6/G85MQaB97htAVijWsFSjSOW455KFnXeknDSayfbOYxOHL8wkP8WJpz07mu8CJBSgPXWa3LXoUCcryaZhfiZRbRPAZdxu/IdFvK/fA+OEeJ4CtiOr8un6SqAcwIwKkS6qgHj1PTTOOBpzLlsPxv5L78Ch4ze/TsvAhTig+1aD6kf7ghmrLGsynngTjHPad4AwLB+Zo76tzBRgp9y2wKG4c12e9RXDEjGDHWdmfzLMAUFSzWN9iYml+cdZvKfg/PIdvHzCclUbVut2qxew8UC4HboCKVpzTwI5Po4HSzjNA7chU+d/OqI+cpEWTWoPAnWYcZhWd4T4xvO1jLW29DTz/hefgeOOb/EjQByvhspP0/VUJhAw+0sxQ/eA086R6cRyEUbTPO3fz8IZ50f4MeA7XIxVqkqBirGjOHHVPxqeNJ29SN9fRcMAbnLNlTzR6B+jMPpfJMfAZBszkUieXhAGHMfIIRwuPJwjfqR/gvn+TIO0Xh5H7gDnOBIgEDZYOvVxEZBuBKY/d+Mxa+F5X5e9UD7wSsZc8v8He/KIV1/+4UjA5bKB/GnkzkHC9nElyjCL5/OxrMDTun/kLX8970zxrr+wrVuSK08A2YSbQIY38zHzKWPAefdrXaYq7AfkH26zi3vGjNdFaV5EkAujO/hY0yQMwb7gV5lL3wQLLPa2Mb3QP3fZi//Ye+k8a7/u8+TALYcpV4dGYrR/A2GVSGPA2eep3KUfWA1Fx6pGt+DxqBvuW4BAUVKube7o+UpEAUfAX05CN8mUah/vgFO4efhmT0PeqCucSUAiqhU7tOQJVeL6Qb4nQou1xjQCT1B4yXQbTvez0P+H8AQtBN8CYACCdp41VRnqjwCvIA9u1cPLI+PLx/4whRFyU6ujQnJGTRxKt4sCb/A1N0/r3kbY7jZ5PeDQagHODOgkaSXU0LSG6pexJiTWJWLzSBngJxUabXdW1PDd5hWshkUDgHfg48hn9icneDc3yLeDCBr6FKUAdl2beA2DPejjJrv/qlJ2IzU3mfck4EL0sHIgqH6gwJsd53G3AG68CW4A3zKmwBoG2FLn4LmkuueDvdtxNYYW4f3URFTpnaKd53h2VD+rw28gahqiH0YtALwssa8Ah0DP+ROABSpoqlTXElW1AwlM9AC4L7Rn7jKWyR4LKkCPjmSfPvB4FvwJM5rF/4VYt9t/gRAq2IlVWitSErO2Bo9oM/KUaQ1h3KI04Y2YurMVpFeBJV/75Kv/9+By4c3fPmff54Gs3V/4LTu8EXQAAKgtHiaNXxbvScYhftsiecn5+KSDEO9z6F1qgNRlnx04YRbS08oWXMfr2X/E5zfmJ5C7RQJ4B2XU43/sGfrSnwlEO/sv0Dwc8OwP/Kvnd+4ax8OBuYWl3MAnP+qIQRAeYuoEcDLGBcgU+HHw3sjF6nU4SW0uopBOy55NnGDdwB+KTpgMPJ5YwiAAuNoEcDrcC/rdnQL5LTJnUZCvcwL04jeKo/w8kWHexM33A7wBbc1vwfN/4FBBECZSZQI4GXikb1lFCm/1bGJRoPUeAOuebVyw+wA/No8X4GCEa4hw1CVT4UAnlHFH7tVeD+J0JhEXCBnutuWPwWhaNc7YbOnwGBMQH/4x70DVOmEdwB+pTtvQl0lrhhHANQ4mgYBPBMLXHqHh/Z5+K8WuHw8w+WjLsG+cY/SvV3zzo54jPycioS020rNfp78e3493T6FZNiPjEQGBQLMwR/sn7zwXbyIId2fdG1x/qSqsEtVo70eI6+Fpp8O/rD/wJVZoB3gMrfV/h8kw/eGEgAdqtBNAE+nQffBrqzb8tD98dEuRkCoWsU8fLj6JnKH8B0oChsu2sYtRxPthIwRJ5DB8NHb8g1/BnSx09dDdiOXM2B3g+Aj+PYQg6Hpx4O/6hy+SJ/nH36dfI5DLUleQYYjrIwqAcDzWb/uRKTufzkM8uqG44vYLCC3BX/iUG4ByN0W+y3YYcx4AqAZnXoI4Gmx695RpnX/y25/f2X3v8yFcnxcmh4fI7EwlsE3LmL9O/jl6H4E7UZNyAwIHKWdAJ4Bgcu7/6dtgKpdLMf+kFOvBF/QNpU8O+gmSQfIh3+4lWrpOgN4xyP+A5kD/umhGgngGcATAlzRJsE+YZdRHje2Xx+KrziQrGhZeoI/sG1gvf7GzxtzB+osfA+ZBcXtNVTsANEu/9uyB/lGxcMx0QPxXoGFua7nkUISO0A9bAjepdjY9fEfjnYASI5LyETIC9FAAE9LoFvP2taYBYOTynBHBreX+vz2623xssE+oCUwHm90IWv+ys8S+C/IMHkBmQppgwepNRB7mmuQbLSBWxZhhOzAVUS+gGXwD1lykKS9c9cffr6ADyHD5DlkNoQPG6eqG7SXNzCX/IVRQuo2egCwSeFEzM/40ukkOwfw8wb+n/sm9PC/vIfMiF4diQtJCeAd6def+MNzZbabPghvYXBBLe43vLVL2QjU9Q9+/VxB18QdZFYU1720ZToBAbycdmgOdgdpXUxi3PP0GTzCRtLgwUf44YKyHdDp4Fe7/2fQNfEHMjciq6b2mx8rl07S4P2lNZgrZYJ3SbIOzKjLw70+OozoEuJmetsnfwF48IebJeaqp2viwd82IAsBjssFSg3CusqHOpdvgePRgW7jcCCjfH3y198+f2fnj39c/eXLwwfuu1liuv/GyxDwJthPeomVCABXGQkDPpkLxAXOhAvTJgPpRp9Bas2GJl+hRv4/oe3A+SOn1bvkBDrJ/sNK+kdzJeKLmL+Xn3kkrpiDz2yi6l8B4OQ5auTfAe0ADk4xOb/fhd5Cn1iKAGghuTsGvesW8VkkU0o+oN21B519y2IV24+6XugHoR3gGz5r9zZ4EL1pLQLEqzqHPR/zyAa4p0ShHGlp9GePD38ZuI7jxyiUi/0Q2gE4GYM/BQ+iH1mLAB1k4bvdmLEqN/cQWVHniKCo9Udk/nfQDCQdVXcOA++CfK7iJ8BGVT9biwAD6NTq0gI4O3ysypsYaA7gUqtrg0eRyEfN5K2lf+QHNwvJ5TB1CaEZUv4U6ADNATy6OX8AGiFOW4wALrF9rhjIfmIbbIsarPYqBvkDHRyyc2z7QDPUcasR4AZpgjBtYJKIAlUOcx40CnJIEP4T9kj9YDUCRMJ6iGY+8Ui4ppnaYQ67hOO4qIP9g/gr6JM+gSyHmYSuW8qAi9OotAI8OIu7ZQs+/vN/rOU/7G2CotyomBcwKaXDGE/7Plk0kjJuurtjH6uFdZb+aaBLAddoJGpYCWtiPttZ/e103gDdOWMeymDsEz7g8ApIs+gbwDXC3w3rjNh31moY6rbbffyJQv7JVP5bYL8IjsFIFJFswBawsYBejeLzXpVC2W8BP7uHoT2Z/zUrEsDXLlEwytOwPqjzBD7G3x2eobkP/wtLp/AlB9CnjHqvel7ABP2On8tsxmhM1NACTaNdcQ/MexIYxK5t1HEgKZhngULK2ItRxyhWE87ABKS1hmsa7h24agi7yu079jnAaNR9S6xJADSTOIyXDp7FzDdL43j/AKuGsOsdewXMTTGuPphupGIUMv4Ik+lwVQfHB2gc8EewaojT0cTGLvsRJh69yaobAArH1QEcbWMwWwouabVW64i/H4R3AOdvLOR/fRcmO+UOsizacBHix+jPlbkb19QgTfOYO4GggAccYFC7/eWfMNHor+ywLgHCcYkf9gW0p7IlMiCbex9P1/sg9XO5DZOcwoRs/LAWmyVyivJMI3AT5etpVnzeAdaQczidb1OW/xouL3XX11YmQCE2cTA/iupEHVimzdIz7JKDTngHcO76nKr8n0Kn/weznUeWRhVWMeODKE6zCd/crLeuga86cHUEmw5TlP+/uMx054m/rE0ATA/pLqxeT++wacfO0kvn0BcgzTz42zf0gsTPY+vSMPY9ccAcfEWhhF6U5ojBJ6Qu0zv2D7twtYQdr9BSzr+waamGFghmfg6UWqpoTNBbplxNfoTu4XdiS8c671LJ2P7rnMO7ItSjP7vuW58ASK4N7RkK58whMuPPoiD/907PBKHuV8FX+odfst/pxO0AVj8BPkSQXFm5UQE6R4+UayXRTMNid/muR4qg6zH9ml4z7YbbDs/Bu/9c/KsnEABtlSsb0neorrFT5dg1fjEV+Y/jdwCH8yd9R8Gdu+DBH140XkM9A/3lGNDSpv0xjUiUrUmzlJL856AL+mMO3D2vXf77Fzzjjt22gLd7iP5RoXwn6maNm4BNoXh1Jy35Xz4BmeiecOCixk3A9tU3TjAE9NGfD1CPQW6BrKbsW7Qc1qOmKdSkouey23AXLhv1WHXXtBzWP7/nwJDq4f+7aOs5BEBZCgXE8juLVY64XqmnZVkgRfm/hQvHPVHdrk/VWuw3/OrSFAKKO2j6AfUkHFOqIbcouVDFcI3L7EqUGkNV/jchP52r7pr+p+Y+8PM597hv79jDV75EPQvKxYVXp5I67lPKlYsS1lGW/zRkCXIvILOT1HH/+mmZyqSPGPZnD9M/Cq5XVlpof59g5ZN/arPySHYf2vL/fgl4B3hc4O5eufq78sl/50VsJcInHHBcRT0OxZUk5WQbkvbKRY0HhQ0nqkrLIPfg69tOzAPr+vemW2/JnQYO//iJfH/iRxz4EfVA+E8grCk8LWYAUFKyMDcshLRnUTIL+V874ZBrMdjdf/bezbeAgj5Lvvzq3DdOpf7EDwf5H+qRiChSUVq8b3zJ2jODB+T1ul5VnVE7IrtVxXeT2ch//55ci0HXe4HT6fzpwgdffHX8rbf/+c4fH+28c+3SvieticFeBG4DfoF6KKZQ60Mth4IFrOTfcRE+sLnfCh8xwOnZkd7hBCsOeL1QHN+iHou0Zvb6z69jJ/+SS/jWUu6WAQfUkd6FHvgT4K5fUA9GQA5r/c8eylL+Jb8qXN88OtF7XxcxG8CTr+/bgHo20tnqf/ccxvLfkW8x57oDuP0dLjfhGQHoPHEA9XQMLmCo//hC5vL/2UTSY8grvs+76APwWcevS1DPx7oyVuq3r+Uh/4F7TrI2U1DzP/mvfIGeCqwqYqP/1XV85F/ynsJLAHjMSXrTNf2JnhIEt7cw0P/kxdx+wDv7CDvNQSZD3De+fw09PQiaRF3/U3nKf/+KcqthKJdA5htvoqcKtk0JVNVfcYjzDzje5CRvPO+Usf4+/LP/dfS0wT+Envpbq/jLf+A0sfodSm+Bfd+ipxG5lOyCBQMLDZH/y4symz7ufAj9Tx8sQU8nbFU1FEy/Mf6G/YA/Tsgf7wjOh45dty6jpxfhbXv0qX98+1wj5X/5/EEVuwDwt6Y3v0ZPN2zD4u2a1T/hTKbR8v/t6gWHml3APff7q5eRADrUqck2mFC+1ByB05c/bVL5Cnjwj1dO//mXUP4jy5BP/1CVVt+c6ADzyP/71St3CawCLlRwfHJ8idC7K9JeGKLi1t/mazb5d3z0iRNnC/LaAvaff01o3BtHspJeVVZ+Tfr1AHPK/9pHt26D50E3i8DBm++IZx+P4j5Th2ALS00YnrR5o7nl//qdN/cfxJ35T3xy66vXhY6VETC0qra8ormocuEiSSrb3ZwYEjN169KjlpF/yYY/7pzef/HeiYNNTkfT7YsXzt369Me3dbf+/P/wmao/+swjEAAAAABJRU5ErkJggg==;" vertex="1" parent="1">
          <mxGeometry x="15.5" y="403.5" width="84" height="84" as="geometry" />
        </mxCell>
        <mxCell id="6Cb9cr2Xe844B4fNmnPE-600" value="" style="outlineConnect=0;dashed=0;verticalLabelPosition=bottom;verticalAlign=top;align=center;html=1;shape=mxgraph.aws3.users;fillColor=#D2D3D3;gradientColor=none;" vertex="1" parent="1">
          <mxGeometry x="29" y="97" width="66" height="63" as="geometry" />
        </mxCell>
        <mxCell id="6Cb9cr2Xe844B4fNmnPE-601" value="" style="shape=image;verticalLabelPosition=bottom;labelBackgroundColor=default;verticalAlign=top;aspect=fixed;imageAspect=0;image=data:image/png,iVBORw0KGgoAAAANSUhEUgAAAgAAAAIACAMAAADDpiTIAAADAFBMVEVMaXELZqMJV4wBQ3UOaaoiqPITbqwBJUwJTIMkrPMQbq4gpfEVeLYUebcgo/EIZqcJbrEGWI8Jba8RhMgJfsMUgMAOf8MGb7QAbrEAcLMBb7IHb7EPhMgAbrELcrUAh9AAhs8IcbUHc7sBgM4VjNEUf74Af84FbK8CbK8AcbUFfsgGbLAAeLsRjNIMdLcEe74MjNcYl+YBe78JdrseoucBg88EjdQAiM8Aaq0CbK4Ce8oAa60GcrMCjtQCbrEdnPABfsoGi9EAf84DjNUSjt0UkNcBiNIDa60Id7kAeb0FeLwFgskNhs8EecEGesIAhM0TgscGfMgAj9UBhc8QkdkFjNQksvMVl+AdqOcEg8sDcLIDaaofo+0Nkt4HZaMkr/Mcm98AdbgAZqYYluAiru8Ae8MdpOgVl+AHeroFhswNh9IFiNMjsfAAfMsgq+0GktgCi9MDerscme0AfM4Afc0cmOkiqusAkdUPkd4dmusal+kOjtwAes0al+kAhdEip/EgofEmsfMkr/MipfEkq/MkrfMAh9EAi9MAg88Aj9Ums/Mgn/EAdrkAbrEAeLkAidMAgc8AdLcAjdMAdrcgo/EiqfEAersio/EAbK8AeLsAbLEAfL0AidEAfs8Afs0AkdUAfM0AjdUkqfMiqfMAdLUgnfEAcLMAcrUAbq8AbK0AcrMAcLEAer0AaqsmtfMAbrMAaKkAZqUAZKMAfMsAZqcAgc0AfssAessAaq0AeskAaKcAfMkAYqEAeMcenfEAescAeMkAdsUAZKUAaq8AdsMAdL8AcLkAdsEAaqkAeMUAeMMAcrsAbrcAdMEAesUAcrkAes0Acr0AdL0AaKsAcr8AbKsAfMcAcLcAbbUAcLsAdr8AdMMAgcsAeMEAfskAcL0Abq0AdscAY6IAcsEAbrkAg80AdLsAfLsAcK8AYJ8AesMAYp8AcLUAdLMAdrUAdMUAd70AZqkDgcQAfMQAerkAbLcAeLcAcrEOlM4AdrsKg9UQidkJgdIOh9cRi90Ffb0vENdpAAAAfnRSTlMAGQwHCO0OAgTtFO0dJu0jQhMtVog5Q2Lv49R1Yfw07/5KV8ZwL+GLyfOTOvN7U8S2/OFrzfj5/fm3pd2b5MD80q/v9pmM4ah9/LSnaZ10/El9+9Omx/7L97iumOn1U+2Z+/a4+/PgwKaaifb8tfvx1Nbw9/nj6/3o19Tl990be514AAAACXBIWXMAAAsTAAALEwEAmpwYAAAgAElEQVR42u2dCXQU15X3C6SohUYM+25Ws5nVMbYDNlBe4hhveOVLG5/PMrEmXtJODBOHc/J9gRKWBKLcbSON1OTAWJ46NEgokgEvGBkvyfEi29g+ZCxvwURh4ghM4MyxNeBvJjP6Tr2t3quq3mt5Jb0rpO6uXiR0f/d/77vvVkuShAkT5qENHjVi+n333zd/xKjSQvHb6F8WGjz90ghtbXfNEL+VfmOl90Gnh/EHuFk2f4D41fSH4B/xY+DvcBtlOgaRSOTHI8Tvp6/bjF9EwuFvv/322//NEKBDoItC2c0h8Tvqw1Z437e39sRi3b0Nvd09Pb3f/lQXgrChA7o0TC8Wv6e+aiXLent7umOxWOxcz7lz58719HwbwRkgjEWgLTK/QPyq+ua67x96u7t7emKAgHOxc+fq6nbFviXVQJiIQNt1Yl3YB+227u7uhgYCwLm6unPn6tas0UXASARgRdDW9r/uKxK/sD5mK3X3UwDU1dXVna07u21b79YIWQoQEYi03VUi6sG+ZHOA+00AbNu1a9eus70R7Pw2UgroMnB/qfi19ZnV/4O9DQiAGAXArrO7dp3Ztau3LUIrAFGByAODxa+ub/h/4Y7fMACAEqBOj/8zu86c2fMtqwBthgxcKlrEfWH5v7Z3R0MDlQJgAXAWAHBm796WPT+NkMWggQAUgktHi19gwK3oku7uhpQAnPm6LUw3hvGiADYGfnybKAeDbKXzepMDcObMmfPn97acCZOdIRMCoBr4xW2iPRjc9s8Nvd2pANh7vmX3+YnfMhtDGIEwbgxs/cUFAoFg2qje7h3pAGg5f3JiWyTcZi0FqcZA2c0CgQDaiB26+ykCIADnTAC0nPypEf9MGRg22oPl08UmQdBsZe8ORIAhATYAnGw5+W0kQgTArABGY2C+2CQIlI3U/Z8JACcnfhsxK0CYkQOkApHrBopfa2DsQeB/mgC6D3j27K4ze/fuPX++5eTJk029aRSAqMDW+4aJ32wgrPhG5P80AOgC0DLxBmoyIGynAFgFtm5tu0tMDwbA9PbfDooAeisoZgagqWsiUoBwG0UAfYupBcQ+EfdWdInhfwOAhiQAnJy4JkKFvUkH6JtojLxN7BPxbSX/0NvLKkB3KgCamgwFYBiw3CQiEBH7RBzbYMb/GQBwklIAsw6Y0gI+k2Br26WjxG+aT5vR272DBmCHXRVoWwPYlgAmRaDag2KfiEcL3Ub7npUAaiCITQFrmFVA2FIMmIggjYEfjxAI8GaLeq3OZyTgHJgH0dtAoA3Q0tRkWgVY68CwrSYAFfjFBeJXzlf7b0fGAOwiAEAFCFtWf+aFQZitBuBW4SCxT8SR/t/Sayf/6QCACmDjZTMIloNABcqni00CTuxG+/xvFAEpFCCJnyl/W2nA7UGxT8RH+2+hxf8mCUDbwSYAupq6qFWATe2XoiLEfYGtYp/I//bf2h12lgkAdB/AvuIzZQOmLoB9gU1in8jn9t8lvWkBMHIAC0AT0wlM0gq0qwfosaG2irtKhBt8s9J59v43SQANwBlGAdpsm8A2SwD2ijE7uHVr29b7hwhP+NX+S+Z/clKAngF0AOrq4GkhYBxEbwN1dW3HNUD6FgA1MUpdJ5sEYp/IHxud3P+pAWgBAJAawFr5JVV/cy7AJxVuvXSS8IfXdkFy92cEwHaqBrC4164FELYXCsjAVnE+kce2YseObAGoowBo6iKdwLBV9+2FIBkhYEGwdavYJ/LS5vRmDkCPDQBIAZIMgbTZrwZstonBigC/96DYJ/LKQg9279iRGQE9TA7AM8GGAqRWf8tRu80D/MaDW8X5RB5Z8cLeHXkCwKwCkraCkgmCed1IjQ2JfSIP2r9rd6S3jBQgma+TLA5s14mwMUBkoK3tp+J8Ipfbv5f0dqc3BgByXgieB+lq7mqORMKOms4BkoH5YpPAzfbfju4sAGiwB6Bp+w2G29Al5UnmWBt5VBtzi1waV1AxsDVynXjTMZdscG9v9gDEbBRgIiwBiMtJTmcRsAMjTBPDvgihoELsE7lio7oz8386AJqa17SlUoCwrQKEkyiASTLC+i5RxVZxPpHzNqI7U7MCUHcW7waiGsDs8iTiziR5e0zaaATajFxwf6loDDhqK7udAqCp6Qai3xZXtyUFw3SLPcy8BuoMPDBceM05G9nb7ZwCTIy0ZaQAbTkoQBuFgdgncswe7O52TgG6bjDV91bftqVRgLZUCkAA2Cr2iRxq/92YYflHAEA9IHxmGOwD7T1/Xm8DsQqQorxrS1YDWA/Ti0R2YSj2iRxo/y3Mxv1pAeiaeAPrdFO1Z4prOwVos1kGmNFog0uCrRW/uE240IP2X14KYK3u2iw0pFOANnukIpGtFZeKdxjIw0rmdXc7CkAXqgHSKIC595fUzW22bODX0gGoqLhO5IGc23/zend0e6UAVp/nqgBtRvMQTBBfKiaIc7LQjKzdn18NYJsY0tQAbal3isByoKJcVAK52ILe7m6nAUhVA7TlpgBtKf9BBirmizSQtS3q7nYegJQ1gKmOd0IBiAjMFw7Nuv3XkKOxAOh7QWfO7G3RRwK7upq7uiJhbxUAMSAIyM5u6W5wB4AbUjrb6RqAygKiDsiu/ecWAM1eKwDeJawSa4Es2n+5u59HBQAAVPxYjI1m2v5b29vgGgAZKUCbswqA8sBdwrWZ+X9eQ4NbAHR17mnzRQFAISDebjATK72hd0eDzwoQdlwBwNVBwrvpbcYN3Q1uKoBPNQDUgBHCv+lsdEPehgEAXSDwNpEAAP28oObO5maHTwvIyspEQzCNXdDgLgDNzTf46P9IRDQDUtuK7oY+rQDhS4WPU9kcJ/yfBgA/FSAcqRAnjyW30IPdHgDgrwKEpws/J23/LtzR0NDQp2uAcDgickDS9u/a7gb3AfBdATTh6STtv0uc8j/PNUA4HBEzovbtv3kO+T9mGDwz9OxZ49TQrubOTp8VICz+6ICdDb7BqfBPA0Bzp98KcJ/wttVGNTR4BID/CiCqQOvyb0SDZwD4rwACAIut7GnoRwrwY+FwU/yPbGjoRwoQLhMuZ+3Bbi8B8F8BRCOAbf/c2NDQvxRAAOBO+88CAPhrMeiPReyFfy2gq6tTKABn7b+GBm8BEArAk5XM6/EagM7Ol4QCcNP+m9fQIBSgH7f/erq9B0AoADe2oMEVEwoQEFvU7QsAQgE4af+taGgQCtCP/X9Ld3ePO4bc/8QTdfg9ItEfjdT7QF2drZ2tQgF8t+Ibe1yzNAB0tgoF8L/9t7DbNwBaO0Qn0Pf239qGHqEA/bj9d4mL8S9qAO6tdJ6b8S8UgHeb0eOyiRqAaxvd4zMAQgF8tQtiXtg52ANCAMA3iWw5qf+5kE5RA/hqK2K+A9DZuUYogF82pyfGgQKIGsCv9t+DHvlfKACf/l/IDGwKBehv7d+1Mc8sNQBCAXxp/17SwwsAQgH8af/F+ABA1AB+2OA1Hsa/AQDoAukAnD9/vkX/YxHNnZ0dYiLIcwuNavAy/lMD4HsNEOl/AEzrjsViQgH6qwKEVjbEOAJAKIDXNrKnJyYUoP8qwIOexz/vClDVv9p/PTG+ABAK4Kn/1/rhf1ED8NP+O+e99+sMOwvcj/9YBDgvqLWjQyiAV1Yyzwf/pwOgtVUoQN9s/2WsAGIiyBsbtSYWiwkF6LcKsKCnh0sAAqgABSUlA4uD9reGFsX8sj6lAMUzHl61vhHYqpWjCgLU/jvHKwBBUoDBFzc2rkf+1+3y6UFB4Bb//N93FKDk6karrQzCnx8uvtFH/5sB2AvfJBL+1dDOzg7fFSBTAG5e32hny4ZyXw0ULozF+AUAKICmM+DTF60yo1/i1Y3J7GrO80Dh2l/zDICuAJoeh2GfvmSkAKXLGpPbsiFct3/nxWLcK0DEJwUIaxEtkoECDP5ZYyq7Yxq/aaB03jm+AYAKoKF07PmXTFYBoRl3NKaxm3hNAzNivlsmCgAd4XXwo2+bdh7gtvWNae0HA7j0/+gY9wCgGoAIgIfBj75vOgW4Ob37G9evv2Mqh/4fE4sFRwGouPRSAbR0E0HzG2vSW2NjTeND3LUEVvRwBMC2bWAahAAA+0CdHfs6WkFMRhgd8LAGSLMKeKgmU2t8dBhf/l8aiwUAgI59QAE0EpBc9QFCV9c0Zk7A5UM5cn/Ij+nP3BQgQiKf6AAnfYCCVTVZWeNIbtJA8cJYLCAKMDECAjFi6AAvfYCBjzbWZEkAL2nAy5O/81WAf9XM5b+H64FUq4CSZTXZ2vr1187lYvrvklhQAOhoN/oAkUjE2/UA+D7JFKD0Z+trsrfGmtv9TwP+t/+yUIDZw8pwBaBpdAngswLMuLaxJhdrbFw10O/235pYLCgAtM8KSeaY9HgVYN8HGH3H+pocrfEnk3z1/9A1dPOFF0MA6H8rYm8L/GMRXZ2ti+eGJKks4nUTMP0qYETO7geVwEofd4emxXj0vz0AVw7Tf1FhuBfkx26gvgywqwGm1+RnjXf7lgZWnuPS/7YA3AN/5LKIL3sByWuA0MM1+QLQuGy4P+2fkXWcmhWATtw3K9N83QuwKEDorsaa/AlYv8iPNPBgXWAAgPKPFMDcA/BzN7D44vz9DxDwPg2EFtYFBYDz9xir5TLgCa8VgFyYFKBwVY1D5vmsWOHa2LmAANB1L/Vzl2kRfuYBih6tcc7Wj/EyDQy8JFYXEAUYx8zPlHE0ETRgWY2j5uGs2IB5Z3l1/tmzZ+F7Q+zZo7eBzl/P/lbK9JlALeztF70BgG7R05/X1jhsy7yaFRs8j1/5ZwHYe6/pRy/zVAC0CLrQrPMAo35W47jdscCTNDDqHMfyzwAwzlIZlZGI9OILlgB0ne4E3lbjinmRBhbU1QUDgDOrrXtlZTgitQj66uY16HUoOmwn8Ob17gBQ86jraWBRLCAA7LUri8simkYTgBzjxjVc+6P0D/cg0Y9xQY1b1ni5yyPDI/n2PwHg7FjbhXGZZuRozZ1rhARaAuAtTXNV/5HNcXNI4JazdcEAYLn9b6GMOCfs3jV4lZyGiE9G0ocQ4B76Ha4CUOPerFjxjXV1wQBgQpL/QRmSaVOljst1h44ZIY8lAMY/3AsovLbGZXNrZLhwLefe34ZaQBcl3R4rI8FJVulsGDtyjDrvwJAFPTNUZTf+n7u5MjJctHZNIACoW14oJQcAL8zIKj2MIxZpQt7HNOqD/lYaTAEz1nsAQM0q59NAyUVP1AUCgBUpuiFlpD43QhafMUyHcT7HjFMPDAGAjQGQApbVeGKOjwyXzovVBQCAuotSDsmV0fU5yc+kUsv3GK4BKAEg+wFaRKvQJGn0+vXeEODwyPCMNXV1QQBgdlHK/0YZXZ9T2dtatud0jKkBIqbKAHYC7/LI/bXrax0cGQ6NrguCbaublaYZXmas2SJU7gaHSE2fzTHjpbAEUEdQWUCOVmlS8bU1NZ4hMHm4U3sDY2KBAGBN2rxXRiI1QuduHKkR8yIh7bEIeakI2fYz7mWqBTAVPKrGQ2t0amR4RSDcHxtflPZ/UoartghdoVOfGr1ISHuMnGGI93wi7L3MM0ANML/GW3NiViy0NBjxvzSD/0sZs2ynm7ZkC4daJKQ+hkKeyvpwqQc9DpcAaGcQ7xBonpUAxpBA3iPDoRsD4f5dGXW/ykgTEDftNSNFh5kmfiT5MVIDmBIJ2gXSTEc0zEbFRmmV1wDU1OY5Mly88GwQ/D+uKKP/ZhldqUPBNqp0tomf9BjO52Tmz8j4EbILHCbdP3qPUPOqC0D5v6Ymr7eXHLg2CO5/YmmG/50yfEpgmCrsCAYRpokfsR4LWzf8iBREDAWIhBlJMGqAjVKND1Y7OfeR4ZJxQcj/2xZk+v8pwwk/HDYyuSEKGj3Eaz1mrBlIZRAOU0sBjRoGilCTAeQpmvQzPwhYX5vr20sOmHduF//V/7jMp2DK8N49m83JLh6zhLccMwoIdsNPi9D+JosAZq84DBXg0RpfLMe3l5yxRt9b4x2A1VnQXQYj2vAUdlJEY1XBVCuYBSBM6QIu/cO05Ec0qkgkNzTpYn8AqFmfy9tLDoWn2fNNwLZp2fyXyoxajfZ/BBX8Rn1gqRWMCX+TLlB5n5kENaYF8BnJugI8VFPrk2U/Mjzt7K5d3CMwrjSUHQDgvUHgP/wBSjlAgG7omGY8QoOyoZEbwOuoBQCvhzXymrghpB8L4wfhp0q31fpmNVm+veQEw//cEhBbnWVqK2P8r6HPsBbRGCKYa+YnGFTgpjL71LBGXiJMPUbfC9goFdb6SEBWI8OzYrt28U7AtjHZ7ngOosKY8iPxaUQzed9yd4SFIEwfZV+S3EteQN8OXuUjAbWZjwyHHqzbs2cX3wicu2hw1oubMnOsG+HMuk4z30U7n3kG+1T2RQhR4LOicqMkjajxk4DaOZn9yoqX7927h3cClucw8DCogo5tkyMjlgjWbAPfzt0mjCxM6F826QAMvNZXANbfmcmsWOF48BZbfBMwIZeF7aAq2vu0zy353iz+do9KIhkmItDVqiodAOnmWn8tg1mxonHw1GqeReCi3Da5BlVVVdhEOuMoNpvTfqSrAgsEkaRygW5XVAIAQst8JqDm9jRpYMDYvdh4JSA2u1DKEYDKqog1p5vjNWIr/7bFoPkVzEUCvqNiUxUEQBpd4zcBqUeGB088c/48hQBLwDYubEWuexuDKiurqioq2HA3e9VcJFoygLkYMNeTNmKgxz8CQHqo1m8CJqeYnJ07cW9Ly3kDgT3cIVB30aScd7h1BaisrNA0W8/TftRYb2sp8rspdViKCBz/VQiA0MW+a0Dt7UlP/j7ZAoxjAjKY/EqhAFWVlZVVmyoqKrQkxV+SBoC1/IuwK0Q7PMg9m/TvigGQih/1WwNq77jQflZsQlNTE+cEzMpnvEVXAB2ByspNtus5zepHtjFsXuBH7JqGJmGp0uO/qqqeACAVLfOdgPXX2pXRs7qamjACfKaBNfmd8DKovLKqHiBQVbVpU5J1H6vl1sYg/meq9CLJSkWQ/qsoBZCkQv81oNY6K1a8tLmrq6uJYxGIjS/Kb8ANFIFQBapAKWCKWvvqn2LAphVIaQS7qATOr9gEvpmOXX3VRuN3veqOGt9rwbvZnZTiJc3NfBOwa2m+Y+6DdDcAX1SBUmDTpoqKTRUoHWxNttQzPL+1gjzBvFbYWqFpW/W7GAY26aSB8C+vqqIAkKSr/ZeAf2HeXrJgdmdnM0DAjgAOEKjblf+7nwyq1xWgXJeAKijM4Oumqoqqik0V7GIQ4LGpYquexHU29Nvw8Ug7qBpQv6sK3F21CXAEOYFPQAUA7gPg7ZaH7vgX3wnYvMho/13Z0drZqTOAROAkWg/s3p2EAK9tXJGUPwCVlfW6B+srdSGoNFnVpqoqIOYVOhHG0UqYOJhHgofq8V6xqWoT+0pV8IBGDujfDXzjjcwPM5+DOmAzHhkeNnbfPkhAJ58EnLveiZNdB1XqVSCOfBvT43hT0ntNDwXJPe3j4LerNxpBxC7ggIDaH5TqP8qQH+1vNwhoxgScRARwgMACSXIEABKS9ZXIK+4ajP36qsryysp6EwB+zgdRLYFpIWnS/v3t7ToBnKaBunEOvf3doHro9XI9gl12PyYMOr/SRgEkacblPCDw0JgT+wEB7bymgdVOvdfBIOT8SlILuCkDIPqryPX6KgsAodJreSDg1q79+/djETCngRbf00B2g79pFQCncJAF3JEBg6tyfA18o402p94s44GAzU9QBHR08pUGxpY69xbI+iqgqh7kY+IVV2QABn89YgBXHDYAhIp4aArW1n7dvp/TNHCjk291QxRAd1A5WAs6LAP1dHahrbyyqvJxu5+pYBUXBEx56QBGoL2jo6OjtRUQoDNgSQN0d2iPyzw4+4cwBpESoNJoAzgsAyj4q4zQJ1XHRvsJ3Ku5IGBznZWAZkiARQQ8QyCHwd/0y0DglXKcAsodqwaSBj958ceTzGA/VMtHGthvIgCJgH8ELC+UnLVB9YzDqGagIzJgDv7ySlRugDWAzSoA28N8EDClk680MEFy2gahqqwcXlTVEz3ITwZSBD8pAZIrAAezwsh27uUoDVzkwh/EHFRPaoBKtkeTrwzYBD++A60GKuurkgPAR1Owtrb2G0sa8ImAutmFkuSOAlSaQrU8LxlIHvxGrYFxSAGANOpyXtIAg0CrX2lgluSGDao3tgJZMchDBpIEfzmj/uARj6ccx76WkzTQ4n8aSPOOv/kpAKj8cJTXV9aTsiBrGUga/Ibo12dYA4ATMibXbubCfrP/gIkAOCpCEcDMijhPwPgiSXJLAcppbS4nO7W5yUDSzF9u0xZOsQpAbeFH+QCg9ljHAXMaAAQ00wSYEXCOgLpZkls2yLo2p52VuQwkDX4j79PLjcr0NQCYFV3FBwGbd7YcyF4E9jiEwJ6hknsA1Bt+oWrBejZ8M5IB++Cvp5oMlZY6c2O6n6/gYk4I2NzwO5/SwBOuyb9ZAeqp+Cxnl+wpZSDFmr+c3gCsYnSmPBMFkKTQTZzUAZuTpYEml9PAUjf/6JnRB7DGe7ntUVsZSBX85ZT418Nmo5FqNmbwIz7MSR1QW30yaRo46VoaOOPynz0cZGoCkFZgpblBYCsDyYKfTvzUnXqJWVVfSTpBGSiAJEnTedGAzb/2PA2MK5FcBoCe0aon02FM+JfTO4UWGUhW9lsSCXkepQ8bM/ohR3BDwNftGaQB5whYc73rf/yaGgnTtwIsLkOhCuc3qshmLtSBqkrbScJyMmOKoYLqUU8zAYeRH8/spxx9OS8ETOkCaQBNinTAmVHj7BF8/ojeG9xt7g9mX/0vkFy371TWV2rAS1qlhr6gD3LF8qFVoocZjzLdbdxA/+BFfSX6Zvibbszwx5xxLS8EbH6CIqB9H00Ag4AdAdkh4Njgb7oUYLgDuYxcojs02pPGY4lP6Rvk0cYB/Vi98UjmBR7P9OcsncxPGtgPCcAigNOA0wSsLvbA/9J39KDHCgCdo6HrWr0hB5gDeEyDQa6BiEZ+1VDka8jBGnnJeuPRGpYY/M0yBkAqWcaNBkxpZtNAqxtpYM8YyRMbREelxioAkmxIgyns6ykvIxTQbfxymuWVWfUHNzMHQD+BnBsE6ug00OFGGhhb6o3/UQ2g0VHOuJVK5RrRAFYSDF2opxSAThaa6bpBzMZsftZV3ADgdhqoW1Lskf+lQZRH6istntcMHOormUReTz+BCnyTAmjMi2msJmSTAuAJ5PykgVZrGmh2Kg3sWSR5Zt9hotLsLM0o4TQqc2sWgchaANDLbszup53Djwbs3JYmDbTkLAIXDfbO/yYFqKf8ixK6GQ7mQmMqAFsBYBJKngogSfP5IWDzN5Y0AKtBUxqwnRjak8KWF3rof1YBNGPFRkcsdqzGLuE0KvotAsAsH9kmQc41ADiBnB8Aar+0pAG0HrAS0JIxAXtXSJ7aoEpzWJpTNvEsc5wBxEYAKAmgPvNWAEka/SRHaWCvOQ2g3rApDWQhAm5NfmVYA1SSZT7TACAtPM26KkipAJq1RmATTtYKIIVmXM6RCHyx39QWzC8NbJs90GP/m2oAjW3XseUcE9LpFYDlxEgCmlEY5KIAklT6E44KgS87nEwDsyTPzV4BmOW+NX6NiiCFAjCpQzOKS6Y9nAsAIY6agmRWjNodyjUN7Lporvf+T64ATBKwPIRpGCVTAI2uHtnFA642Hs/phy56lCMC0Mhw/mnA1cmvjHYD6VDNSABI9Ns+knoAvR1ErQ20HAHgZ1YUzoq1268Hm7MhoG6W5IsNMi/OjHWelkYAqOhnHqkxbYBKdplJSYCWswLoJ5DzRED1yRMHDuiZAKcBqjPYRL+7WHIE9g71x//SdzRNq2f+1VMX+EZW/+rNzzZuwIdQj9mY688deognAp789QGDAIgAPS7GzAvZEVDnj/zDItDiPoiERt/I6h9+PnvAjBh8wOO5/+QP13KWBiwikDkBS4tDEicKoDmjAFS8Gy9l8EDuzgMA6WaeANg8pSlpGjATYEbg/FTJPxuUzHvsZTbuN5TE/iVoNvIBQLqNKwL0WbGc0oDrg79pFMDkcka/c9F/k5KkfnReAEijLueKgK9zSgPXF0u+AkByPhPCJkHIRQDqM8CnPj8ApME/4SsNNGedBloWSP7ad8wqzSJg1fBMCbCwZPsvTwCkkslcEbDziRNZpYEzngz+pq0BLLmb0nJLHsg0B2T2hHwBkIp+sHknT/b1/hMHDhh9oX34TSapWaFolBCwuiDkNwDfqdcsH8YXcMU4ar1l/Ue/hvXp5jvzBkAqvJMrAHZ+2XmCIIDfZrS1k2kMRjECYyT/zQ4A00eyi5QLQLunmw/lXwPoVnwxXxqwc1tSAlgRGDtE4gGAtP6vT3Zh+pf+6a4ogCRJN/EFwM5vMkkDe5cUS1KfUoD0Tzcd0s0RAKSHOSPgy3+1ikAnmwaaJkgSJwD4as4AIE3njICdu9KkgbHDJQGAgwBIIzbzlgYOmAhg0sDsAkkA4CgA0qjvceX/zTu/7EiaBpomhCQBgMMASDN+wpcIbK5uOWwmAM6KLJ7Ekf/7DgBS6WTeCoHfWNNAR2un94O//QQAqeQHnAGw+dg+Jg0AAmYVSwIAdwCQBj7KmwZUN7FpoPNHQyVJAOAWAFLB3Tv5TgNXDpMEAC4CIElXc0fAsXa0Qbh//4F7QpIAwF0ApDncEbCBpIF7JUkA4DYA0nzuCNj5az0NnOZQ/vskANIF/BFwfP/hE9cXS3wCsNFXcwEAaTR/BExpvVeSBAA2FnfhvzT01/wRsHOaAMAjAIrvPXx6WzV/BNxUIADwBIAJJ04cPh3lkICZAwQAHgBwz4EDB04cPt08hTsANn9vqgDAbQBC17frJ2ecOHG6lT8Cdj75ULEAwFUACpa06w03nYDD7RwSsPPOYQIAFwEomN3+/MBrDFgAAB2USURBVH5CwP5jHBLwvaECANcAKLpyXztDwHEOCXhyTrEAwB0ABoxt7djX3t5uEHDgax4JuHCYAMAFAEJDFne2dnTs20cTcOIrDgHY+ZO5AgDnAZi7uLOz1ULAYR6bgjt3jhQAOA3Avc26/zEBqBDQW0LbuCTgwoECAEcBWNTUnIyA3VwSMHmSAMBBAGY16SfgdwIEOjo66MXA4dPbq3ksBKpXhgQADgEQWtoEAGg2FIDSgNOnW6dUc2hP3s1HGvi74AOwRD/XMjkBJ07v+5JHAKonDxcAOABAweyTTSYCOswEPM8jAdXVOxeFBAD5/vyFV6LTrSEBzfYE/O4YlwRU310gAMjPSsZFmzIh4MA3T3JJwOQhAoB8bMhF0WgKAtoNAk58xWUlWP3kmJAAIGebNPFkSwtFAFMKmgg4/RsuJeDJJ32eFQsyAFPhe20lI4CkAUTAE3zWAdU/GCAAyMnGtESxQe9v394MG0I0AaAfdODE4cOnT+/mlIDqBQKAHGxFlLK0BOg9wdPbOQVg5xUFAoBsbenuaNSCQDoCOjdwSsDMYSEBQFbt39V7TQBkQsBhPpuC1dXf2+nbyHAwASherv9B5hQENHfSTUGKgPZjvBYCPs2KBRKAwvHwT3KnJKDTnoD9vBLg08hwEAEoGYf+JntOBBz4mlcNuGyoACATK71o9+7UBGy3EkAtB098wysB1SOLBQBpbfjE3dRfY6VXgcQoAvS/2dDe/rwxInT48OnDv+GWgKsGCgDS2NAW1qJ2CKQhgNumYHW15yPDQQNgWktLjgQ8j4fEQFNwA7cI3B4SACS3CS0tWRPQCghoJwSAtnATvwR4OzIcLABmtbQ4RUDzFG4J8HRWLFAAXN+SxLIn4PDpji+5JcDLkeEAAVC8fHdLDgQ0IwI6zAQ8zzEB3o0MBweA4vEtLVHsb8slS8B2EwEdJgIOAwL2H8OFAH+Xns2KAQAeR+7w/jJzAIrG7U0uALYa0NWle/+ll156Sd8X2LdvH3v2+OnTpw58zK8GbPBoZPjvNj7up2UMwICxqf1vmwWSEbAfE3CY36Zg9c5HPBkS+LvHAwHA4Ita0loyAppZAp6nCTjNb1OwunrmEKEAyOZObGnJlAD7NJCMgFP/j18AnqyeJhSAnv50mIADkIA9HGtAtfsjw0FQgEUtLS4RcEInIMozAa6/vWQAFGDW7hbHCGgFBDCLgVOnOG4KVldPWdDPFSC0tCXV+t9yae0HUATsQwTsN84a09NA65fc9gOqq6tvKe7PChBaEs3JcDNwOx4PAaeLgPkQvBz8HdkbPPX8sQ38WvXMYf1XAQpm7456QcDvOCagutrNkWG+FWDg+GjOloSAVnsCThznmIAN1XNC/VIBSsZGo84QsN2eAGNC5NThbzbwbFcN64cKAE7+zpsAuzRgLAcNAk59wTUBbo0Mc6wAkyZG87XsCPh3ngGo3jAy1L8UYGr+/s+IAL0QQARs41oDNrjyLsPcKsAYB9wf3W4i4CUTAc8jAuCU2KlTUb414LJJ/UcBVjgU/MnqALop/Dv8BgKnTm3fwDcCzo8McwrAUsfkPysCTp9q3cI1AlMcHxnmEoDQ6qgjlgsBXDcFN2xwfGTYZwAU2/bf8mjUMwLazQT8jm8CNjg8K8YhAIXjo1FPCGi1J+DAcc4JcHRkmD8ASsZFo24SsD0tAZw3BTdUXzOkDwNQOjYa9YWA/QYBp7/gnIANzr29JG8ATIo6bcZ5AiwB4C1FrbPCgIB7pnGeBTY4NivGGQBDJzoOQHQ7a81oUri1tdV2WvzwqdP3Focm3co5ATNLnQHg73kCIDQt6oZlRIDxFyauBGN4gy/jnIAp0/oeABOiUf8JuH4gzK8lk6dwjoAjby/JEQChWdGoNwRsT0HAvaS8KrqTdw1wYmSYIwCuj7poGRJw5ZACo74eeGE17whMDfUZAELLo1GfCWg/sGQg8wstvpv3xcCGvEeGeQGgcPzEqO8EWFbXoZu4J+DOAX0CgKJx0SZ9ze7mJ/Y8/qQI+FcdgR8NsdHTkdwTcGt+s2J/H9f35Hz7VPCbP0Q9MHsNeAlNiCyx77Cv5J6ADXmNDHOhAKHZ0ajfBExI9lscwXshWF2dz8gwFwCsjkb9IwCkgbEpdtlH894P2FB92dxAAzAtGvWXgNblKTdYh1/GuwZsyH1kmAMAisdGfSZgQpqWWunkLdwXArnOinEAwIRo1D8CtjdvXzwpbfQU/YD/UjDHv0jvPwCFi6NRPxGYnUnoFN7JPwEbVhYHEoBpYH7fy0+mHzArs+RZcLeeBTj/zGVWzP8+wHLzu/27b0b+X5xx+Vx8UwA04JrhOQDgqylSYZMPhgkYX5T5byo0JwAEZD8y7DsAU5v8I+Ce7H5XtweBgGzfXtJ3AGY1+UZA1k30CwIAwJQsR4Z9B2BJk08EXFmSfcXEf1Nww4YpG8YECoDxPgGwNKfW2Yxbg5AGspkV8x2Asb64f2Ku775XOjkIBGTxLsO+A7B4O5rb9/Bz4ticpyhCJTP57wds2JL5yLDvAFxpac66b9fnM0c18M4tQbArigMCwHLP3T9xjJSXFVwYAP9nPDLsOwDXe+3/cXmfWRl6ZEoAEJhy2dRAALDCY/+vduKddx8KRBbIaGTYdwDmeut/h06rvT0YBGQwK+Y7AKHFHrp/rGMn1t8cCAK2pH97Sd8BkFZP9Mz/yx184/XbgkHAUyMLeAdgqFfuj05w9N2VJt0aDATSvL2k/wCEPOoEjB3s8BusDbksAALw1FMvpB4Z9h8AaZIn/p9d6PibbA6YGQQAtmzZkmpkmAMApCUe+H+C5IIVzZwSAAV4YcuWFCPDPABQ4nr2z2Dwt282BQEAL2x5IfmsGA8ASFPdlv8iySUrvjsIALzwwgvHkv1Fei4ACE1z1f+z3PwzzFcEBIBbFw7kFwBJGuOe+xfPlVy1kcEA4NgL19id/s4LAO4RML5IctlWBgOAF48dsxsZ5gUAaWiXK/6/JyS5biMCAYBuNxbwC4A03PlNgaaJUyUvbFRAADh+3Dorxg8AUulYpwHIZfA3Jxt8WUAAOP7xGH4BCJWMc9b/S0OSVzbgmoAAcPz4gwW8AiBJA6900v8LvPO/JJXw2RS0AeDjS4ZwC4BUMNsp7zePGyB5aoVXBQWAb766l1sApJBT+wKrQ5LHxmVT0BaAb756sJhXAKTQUieq/8VjJO+t+KYt+tYbV58IgGOwD4AB+OartUQf/17R3eDbp82fjJnFw+BvbtPCc7hTgBewHTv24osvHj/+8ccff/zBN1999cUNUzlVACeagkuKJZ9sZWAA+OKLewp4BSCU5+bgGMk/mxYcAD4fP4xTACRpbh5zomOHSH7a6OAA8O9rhvIKgDQk57bw8gLJXxt+WWAA+Pe/zCrgFABpQI5t4QmS7zZkcnAA+MvsYZwCIBWNeykH+R8ucWAlMzcEBoAP18Q5BUAqHL99+/aXsvp0YfA3xxPIuekDYPcjAID/P/jmq3cRAB9+uC3OXR+A9FWyPXF8QkjixAouBC0YDuwFow/4IugCYQX4/PPP//KXv3z44YeKz5aqs5bVmeNuDf7m2BQUAOQPgCTdk8Xk10CJJwvNEQA4AEDmbx4wS+LMQrcLABwAIMO28OKhEn92gQDAAQCkoc0ZyH+JxKNN3SIAyB+ADGZF7wlJfNqkWwUA+QMAZkVTrP8XT5W4tSGXcQLAiwgAow8QIACkkrEvJbcrB0gcW8k1W3hSgJchAF+9SwMQVxQfP9WMfo9Lkrk/v7d89MCK7uQcgD1+dgKVeDwzAKRF9v7nsvo3NwUDoABx+MXrS3CRqZZeb+P/JYUS/1b8CN8AwEhU4j5c6h9q5gXVapP7Zw2QAmGhh4QC5K8AIJaGr1iOnL980fBiKTA2UiiAAwqAKSgqKgyQ71EJs0UogAMKEGBboPvCj0+2D0AA+OKLzz//PVEAPz/U/gGANMrnRtCLYB4IAvAVUYAPP/zkk38SAPTlpmBaAPb46//+kgLACeR8KoBIAZ41BWcKBejPCqCfQC4UoD8rgH4CuQDA8tGfAJBCV4hVgOlDlvqXzfG+D/AiAuA5CgDUB/jww0/+ilJxPC7HlZ/KXl/vZwqgn0D+gh9GFOC111774F0oABCAT/BgRjyuKCpwjafX1f4GQGgaXwDs0f2hB6MMZzR033h5vd8pgCSN5kwB4tApwBuKoshwu8aT60o/VABwAjlfCgADUsaZAF9z9zpUnXh/VABJKr2GqxogjhRAhlkZ3oQ33LsOKsF4XO2PCiBJw2ZyqAB4Uk+GN+IoWN24jr5lXFHj/VIBJGngVXzVADIsAeS4ikc2QLXu0nU5jiuO/qoAklR8oXfORwC8jAB45913330bAfAJWAWoOC5xcYaBcP56XGcMK4L+nfsrAFLoJk+8//TTT7+I7LmXX05SA2Df687B63SVytmwXnPiuu58FXyFSw9FkfsrAFLxHC4A+CuKUBXnaCWOSnQs3JiQHK/rr6vqt1Rq9ad/N6gAitR/7XZOFAAXgHrUyyBTQzmII0WAX+W4ilyLhSKT46CmQIf116fKzf6uAPoJ5BwAsAc6BBb/CnKNjDp2uFtH3tAHrRPR4fTHjcW//g3QShMeVqESqP0ZAGnqUxwoAFJt1KaHvTroUBmuDBR8mNxDH05zHN5GpR9MMjL6hgCF/g2ANOnn/tcAqPBT47gXhHI2DmljA8e4R6E8meo4vk3VAIgEJDL9HQBpyD9ysApAhZues3VPqiSU0achDlghYLrP4LiMC0EVJQS05FDj6KXlfg6AVHLN07qf3PpEADyn9wFefvnl11577bV3zX0AVQE1OcjR+iatAj8VfKnC+CZZAY1yxI3j+uNkVALgkz7Aa8JwV+Ft2AGMy4qKF4f6ff0dAJebgkQBjh/XBeDjDz744J13333j7c/ffPP377334Sef/BV6K44SAMnVKvQQjlzU0YmT0kDBPOCtRBj2pJUgx3G7j2r/xMlZ4aRkFACECi70GQBUk+N1uqrgIjCugrEN0x4e8iiuElSk+yp92p+CGj44FRAU0KNRM0AVNQBoCT3iswLIWLlVqN4qmtpCpXocb+OifyryL4x443xPFP6G22nBwDvAqGiUUc2oCgDACeQ+AgDrMZjFyVwAimcZhzus3lXy1h6yQjX7iAjEUavX6AzIeKMZYYYbgcaIgAAA2Min/EwBqrFCxz7FUc/EMVgfqIakg81DvMujoLoBCLuMN/1xnYBrCNwDUNFYgFAAZIv8VAC02CebgjLJ+Iop8TMNIzLlAReOVLgjcNAUAFwtGE1gGe8EAlqE76EteMrHIlAmLoobcxtYE2SqFYQ3CkgxALcQ4oYqqHinn5T8JLfgmQNGbGThemRz3e0DQABe++ADvQ8EAHgPK4BCKnbUB4A5AUUotd6HCiAbZSPZLpLJcYVK+Cpc8ytYX+B1lTSLwHOF542m4NOuGABAbwPqfSAAwBdvUwqgqqquAKoSV2W48IPuV2HOl+P4Q/ccWO2psOcHjynweSj3o+v6HTLiR42rqqqCJ6HnyvAY/F4iBRg24Bo/AAAeB9WdSlZxKHTBV/JBZAHggY6ix6hxhbqO/As1wHhNVSVMyArSBwEAbUUz/VAARUVhrhhhCZiIg5N3oNtUFQACBQIfUlVMgaoS18IHgQsiAYpCKwAmTYkLBTBZ4VXeA0CiEiZxEJgK8CH0OfAXdq1+P+gawgIQawWd8tW4Sr8kERPjDvjyCnox4XW2KfiU5wpAAjqO12w4dnEYq5T7UPInAW3kDfwYGb0CCXXMg3GHTKoJoQDmpuAV3tcAqpGjVZS0DW+rsAsIAxkVCir2KQ5wkgtYBVDpokBR2XUFzBNCASwEzHnK8xoAOAcuBRQoAvCWSkJZURUc3UDAsUoohBWZVH/w1VRqLanC6SCyGABfoB6o64TLzbbSYQCeQwAcMgHwHlUDEAGHeVtR1bhRvKP7ZaQQKKnDIt68cMBlBHh8HDwHiQt8jBon30sF910qHG6xaR4owJu///1777331idHjsCSTMWFPKn30IJAIdU8wwNdGKpk3aDiHgGUeVWl5QQtMJDv8dbh/cLf1iww10MAdqsqCWmUw2GYonW6Ea6qSq3l8VJehaMEQDNkpPqkrDRUwlQSUAjdJfxtY8N/7qECqHES63Ec0qhmJxU93OeDLQNQKigqnPzHKwIFPZxSBMVYS6D2H9pAgAKBGgL3CW/bWek/egXAs4qK41UmHT1U/RvrA10V0LofNPRlanmHGvzw4WgZgVYHsL6kewDGUhLpynThbFsbNvOfvVMA2NMHjXwVazOKb1LvM1+xpONH4CdSqzy0J0A1/nD+V/AFuG+G8LW9DbzKOwVAxT2q2XCKtgQubuSpbHkgo2EhlOBl8x4Cs1pQSNcJvVaxcHUSK7jwKe8UQIWRqxqbdfDCEvtk7s8oD5CiWxaOyMsKtSGoxIncoMf+Ujg6eVv4Cuf6AC+b+wAIgCNHnjX6ADJcAODwlOmCHVNB1vOok4+uU8+hriMIFOM2uK7i7xMXJUCapmD+3n/mmWeeA/byy4cOHXrttXfeeefdN96GAOjnBR35q0oMxKmsgoyOPmX9SwLegHfIKmXgAcCl8HHo+fi6il8LXVLPU2X45IEh4ecUdrv7ADxL+0UlhTwyxYSHiqsFO8PNQsYMgTAdB18fED5ObWO8UABZUWUs2KqsMLGL/SkrtAPJnJBKx7aCHgilHl2YX1PGbWVgtwkBSGOjPVAAhY50wzvgUgEOhQ+wxH4cYBFHDzFphkJeAy8xZOpeeMc6sQZIa5N+7n4NgEMVXyokdlUaD7SPJysWJVesd8Bgp3MIqiqIXsiKepvwb3rLb1Y0wxogLjPxacrZChP66LHoqyKzioDvU8zPVfAX/AxFfUwkgEys5BpPVgEKUgCcpKnbRATIPXB/D+7t0wqCfcxkCkVlXkpFV2RllHBuZk3BmU8/o/syl08EwCEEwDvvvPPOG2+8/fb7CIAjQAGMmCTOU8y3iUQoFoGAW4FGcWi8nozqCOb1iNSIneDMm4K5d4Fw/L/88iH93SFMCnDkyKcocGUFX4mTHK6QqGfCmi4UqLjGT1RoVYCvqrBrC2iPiQow85bQI64B8CwOTtDZQwGryObCQEGRDeNXkdkSUZFV1fgKw94o9fBL6QUDfjVVkQcLv2Zht7ioAGDxziq/Ym0EYV8DBVDoYl9h8oYp6WN1gc/F9yiiCZytjXRLAVBMq+YYVmQj7tmKXsHHrQJBnqXQHCk46Clt+L5waZa2yC0FQA08HJkk3yumjE7uYAOaOaCyC38Zvp5RQuDXV78vVoBZ2wKXagBclyv0UsCIVxTnirmGRxWBUeIbqsDkD9hDNHREEfGfc1PQrRrAKNpRpMtxozVAwpbkdCwHiqniN4IcdoQUai1B9RkUWb1ZODPHpmDWfQAEwCEEAO4DvEkrAO7UyVQL3whlxXbvDzgXZXyjfkCfUPETqDdAHocBWTdEuDJHG3DNM1kaBuAQ6AO+AgB4++3333/z6NH33noLKgBT8jPRTLV05Ti1vQclgV4iUKsIhe0hK1R1AG4+UCDyf85WNNNpAJ6l1/jQwczWHmruqebePkr4caqJSDoFYIdAkVX2WTBt/Gq08GI+Vnih8wpALf0VNqSp5p5J/lXLFoJCrQVI1IOSQTE05TExAJB3W/gRxxXAWL3j9T9a7KOWX9xY5Mdl6+4gQYfeJkQXcarJoKq/Eu53oi18xdOuKACdw432nkLSPY5vmdkDNE0BKKbVA90Q+OVQ4X6HmoKO1wDGpj1Z2MfZPE71BBXSDiDnBJolAoU+PRrww0nCcY7ZSocVgKrdFapbp5DGH93qU/FmAI5/PAVgRL9ivABaTTwwXES/kzYtGwAOIgBepwB4882jRz+DCqBQYzx4bW+M9tDxjNo7oDRQ2Pkvaq1vjIHJ+PN+sfB32ubmrgCoD3T0PaQA+gR/AngKhjSe7U9gD8rYkwmyOMD+lY37wVPh+QAyugu9wF0DRPQ7b8N/7hAAz2JP4s4dcR1BwQhmQAF4LPMMgw/ofHQcPOn7w4Sz/GwKMgC8klIBiHdVWT+QoN2OEKHoiCdk4376gejp8IHXDQuJ8HfJhs10BIBnWdcZDKBEQAUz9io4lmACn2SIBKX98vyBwk0u2sCrMgbgUBoFkOOJBB246Pw+GR+DgkDuR8cYUliMVFVeN7+gWES/303B59IC8Cwd9wlaBhKGnhsVn35XwigPZEwGfjy+b93NYsvHfSu+IjcA3jcpQILU+4YMJEiQy/QZv7jqSxi5PoFPIcbXEupjFxSI3O9JW3iO7uTkn6AHcBAB8DpqA+gAfPT7o++hPgBydQKLPFYApPPouAzze8JYGMoGDwn8BPDcxGMjhPZ7ZrenFICDyID/X9EF4Le/feON999/86OjRz/77K0jR458+mkCdwFUnPMpiU8QVWAzAq0AMpMO5F9NFfP+XtqYPAF4VqZqeTqLo7gmrpbpRSK9OIR4JMDaQP7lUOESj210tgC8zyoA6QMiz8okvs0dIbr0o1YMCUMFfjhJaD9XTcGUALz1lu7/ZxPsat6yosPyjz4TjDjQjePEA8Ml4X8/bMj/zQOATxO4hEfeTJA2IH0PKfIpQBLUwlFWLxY7Pv61hWem9z8E4LcIgKOGAtDinqBX/Fbph43BhLFpgPvAicRdA4Qb+GsKZgLAp8TtRmUXp1aE1L10Y1AmK0C44yO032cCLnzmmYPPmD6x+w8eOvTKodcBAG+ARQCjAGR9j9b8cgJ3+0Bok0vS8kvAm/i+hPzwMJH7/W8KPvKc2Q4eTLYKNADQ+wCJREJNyAk5ofcB4HV4LAEbA/AS3qnfJFfBfeseFm/1x4fdkhSAQ6kAeBbEMerlAWcnYGgjDhLoDjVBjLq6bn6B+M3zYiOfzhSANxkFAP6VYaCjG7q8J1R4WyZ3yKgOwOEvix0fvmxRxgB8RCuAKapBwAMnJ0xmEoHHLhAtf85swTNJAXidLAJMAHyaMFI6jGujCJDJBgEKfFgDgAc8tkC4nz+blFwAkgHwrMzGtqEDMjxMawP8TCQSv5oqvM9pUzBFBniF1ICMAhglPU71CVwPqqT2h0cAFLL6Q7Hjw62VXINmAHAP4ODB1w8dOvTK66+88tt33vntG2+88f6bBIC3wF4AjnGZ1gFZlc25Hx8S5/hwbUUzD5oaAED9X3nlFaD/f9Dj/6OPjv7xj5+99ec/g72AhIydT8p8FWcBlVnz64fuHy5mffi2gqsOWss/6P8kAJAtXTrbq7Kp/gcHLh4ivB+ApqC1/LMD4LM///nIkU//g9F93Osjok8WADoSYscnIHZFEgDesAHgLdLZMep80uZP4KWAToM4xydATUHa/6kB+Jxq/qg2FSBeFzw8UOT+ANlKiwDYAPCWDsDxBJv56eof34ivu124P2A2DfnfVAKYAPjzkSP/lTCKfaMXjDt/AIJ180XLP3g2F6z/X0cA/MmoAd//6KOPPvrjH//42Z91AP7ju3gLEFb+7B6ADsG6mwvEdn8QbcjrB00lAGgDAQXQZ4JhJ/CoqQGk0tU/3PERv8qA2oBrTCUAUgAAgD4VrhPw38ayX2V6PuDwYwuE+wNsw2a+bgYAKQCRgKOy0QeE8a8acwG/FOf4BNwGXmUB4A8MAB/+F+70k3YPKQF+KN7VLfhWsPBQCgA+e+tdNAvESoAuAA+Ic3z6hBVfYQMALgI+e/+71MwfXAjA0k/s+PQZC805ZAbAkIDv4uCX0UY/TAh3DRHu70O2iOkD/OH99/8NAnD06P/gWVC85Acj33cNEO7vYy2hd/70pz/9SQfgD38AAHwEWkFvfDfxagKdD0AuxI5P32wIUAD8AQHwN+T4BKn75YR8nXhbrz5pRasYAP7to49e+y6Rf6IA8nyx49Nn7eb/c9DIAb/9z/9JvJogCgDX/uumix2fvmyF1637n//+z7/989/+9l/fffXVxKuk6YPcL87x6fNWct+ruudffRXLvhH+vxwhvN8vELhunczIPrj+2PQBYru331jp9F8y0b/uOtH06W9WMHz0iPnfv//700dMKhXndgvz3f4/ETY2M3ZnqDsAAAAASUVORK5CYII=;" vertex="1" parent="1">
          <mxGeometry x="20" y="540" width="84" height="84" as="geometry" />
        </mxCell>
        <mxCell id="6Cb9cr2Xe844B4fNmnPE-602" value="" style="outlineConnect=0;dashed=0;verticalLabelPosition=bottom;verticalAlign=top;align=center;html=1;shape=mxgraph.aws3.android;fillColor=#FFD44F;gradientColor=none;" vertex="1" parent="1">
          <mxGeometry x="50" y="552" width="49.5" height="60" as="geometry" />
        </mxCell>
        <mxCell id="6Cb9cr2Xe844B4fNmnPE-603" value="" style="sketch=0;pointerEvents=1;shadow=0;dashed=0;html=1;strokeColor=none;labelPosition=center;verticalLabelPosition=bottom;verticalAlign=top;outlineConnect=0;align=center;shape=mxgraph.office.users.user;fillColor=#2072B8;" vertex="1" parent="1">
          <mxGeometry x="39" y="690" width="46" height="50" as="geometry" />
        </mxCell>
        <mxCell id="6Cb9cr2Xe844B4fNmnPE-608" value="" style="edgeStyle=elbowEdgeStyle;elbow=horizontal;endArrow=classic;html=1;curved=0;rounded=0;endSize=8;startSize=8;exitX=0.974;exitY=0.603;exitDx=0;exitDy=0;exitPerimeter=0;" edge="1" parent="1" source="6Cb9cr2Xe844B4fNmnPE-589" target="580">
          <mxGeometry width="50" height="50" relative="1" as="geometry">
            <mxPoint x="660" y="520" as="sourcePoint" />
            <mxPoint x="790" y="368.5" as="targetPoint" />
          </mxGeometry>
        </mxCell>
        <mxCell id="6Cb9cr2Xe844B4fNmnPE-617" value="Cloud&#xa;Run" style="sketch=0;html=1;verticalAlign=top;labelPosition=center;verticalLabelPosition=bottom;align=center;spacingTop=-6;fontSize=11;fontStyle=1;fontColor=#999999;shape=image;aspect=fixed;imageAspect=0;image=data:image/svg+xml,PHN2ZyB4bWxucz0iaHR0cDovL3d3dy53My5vcmcvMjAwMC9zdmciIHhtbG5zOnY9Imh0dHBzOi8vdmVjdGEuaW8vbmFubyIgd2lkdGg9IjM2NS40NjQ5OTY3NzA0MjQ5MyIgaGVpZ2h0PSIzNzkuMjIyOTk0NDYzNTc3OTUiIHZpZXdCb3g9IjAgMCA5Ni42OTU5OTkxNDU1MDc4MSAxMDAuMzM1OTk4NTM1MTU2MjUiPiYjeGE7PHN0eWxlIHR5cGU9InRleHQvY3NzIj4mI3hhOwkuc3Qwe2ZpbGw6IzQyODVmNDt9JiN4YTsJLnN0MXtmaWxsOiNhZWNiZmE7fSYjeGE7PC9zdHlsZT4mI3hhOwk8cGF0aCBjbGFzcz0ic3QwIiBkPSJNMjkuNzk0IDEwMC4zMzZMNDYuOTIgNTAuMTY4aDQ5Ljc3NnpNMCA5OS42NzFsMTIuOTc2LTQ5LjUwMkgyOS4yMkwxNi44OTcgOTIuMDU0eiIvPiYjeGE7CTxwYXRoIGNsYXNzPSJzdDEiIGQ9Ik0yOS43OTQgMEw0Ni45MiA1MC4xNjhoNDkuNzc2ek0wIC42NjZsMTIuOTc2IDQ5LjUwMkgyOS4yMkwxNi44OTcgOC4yODN6Ii8+JiN4YTs8L3N2Zz4=;" vertex="1" parent="1">
          <mxGeometry x="1046" y="313.5" width="90" height="90" as="geometry" />
        </mxCell>
        <mxCell id="6Cb9cr2Xe844B4fNmnPE-618" value="" style="html=1;labelBackgroundColor=#ffffff;startArrow=none;startFill=0;startSize=6;endArrow=classic;endFill=1;endSize=6;jettySize=auto;orthogonalLoop=1;strokeWidth=1;dashed=1;fontSize=14;rounded=0;" edge="1" parent="1" source="580" target="6Cb9cr2Xe844B4fNmnPE-593">
          <mxGeometry width="60" height="60" relative="1" as="geometry">
            <mxPoint x="690" y="634" as="sourcePoint" />
            <mxPoint x="750" y="574" as="targetPoint" />
          </mxGeometry>
        </mxCell>
        <mxCell id="6Cb9cr2Xe844B4fNmnPE-619" value="" style="html=1;labelBackgroundColor=#ffffff;startArrow=none;startFill=0;startSize=6;endArrow=classic;endFill=1;endSize=6;jettySize=auto;orthogonalLoop=1;strokeWidth=1;dashed=1;fontSize=14;rounded=0;entryX=0.404;entryY=0.035;entryDx=0;entryDy=0;entryPerimeter=0;exitX=0.58;exitY=1.032;exitDx=0;exitDy=0;exitPerimeter=0;" edge="1" parent="1" source="580" target="6Cb9cr2Xe844B4fNmnPE-596">
          <mxGeometry width="60" height="60" relative="1" as="geometry">
            <mxPoint x="890" y="434" as="sourcePoint" />
            <mxPoint x="777" y="640" as="targetPoint" />
          </mxGeometry>
        </mxCell>
        <mxCell id="6Cb9cr2Xe844B4fNmnPE-622" value="" style="shape=step;perimeter=stepPerimeter;whiteSpace=wrap;html=1;fixedSize=1;" vertex="1" parent="1">
          <mxGeometry x="130" y="400" width="590" height="136.75" as="geometry" />
        </mxCell>
        <mxCell id="6Cb9cr2Xe844B4fNmnPE-623" value="" style="outlineConnect=0;dashed=0;verticalLabelPosition=bottom;verticalAlign=top;align=center;html=1;shape=mxgraph.aws3.android;fillColor=#FFD44F;gradientColor=none;" vertex="1" parent="1">
          <mxGeometry x="165" y="435.5" width="49.5" height="60" as="geometry" />
        </mxCell>
        <mxCell id="6Cb9cr2Xe844B4fNmnPE-624" value="" style="outlineConnect=0;dashed=0;verticalLabelPosition=bottom;verticalAlign=top;align=center;html=1;shape=mxgraph.aws3.android;fillColor=#FFD44F;gradientColor=none;" vertex="1" parent="1">
          <mxGeometry x="283.5" y="435.5" width="49.5" height="60" as="geometry" />
        </mxCell>
        <mxCell id="6Cb9cr2Xe844B4fNmnPE-625" value="PyLint&lt;div&gt;&lt;br&gt;&lt;/div&gt;" style="text;html=1;align=center;verticalAlign=middle;whiteSpace=wrap;rounded=0;fontSize=19;" vertex="1" parent="1">
          <mxGeometry x="159.5" y="511.5" width="60" height="30" as="geometry" />
        </mxCell>
        <mxCell id="6Cb9cr2Xe844B4fNmnPE-626" value="PyTest" style="text;html=1;align=center;verticalAlign=middle;whiteSpace=wrap;rounded=0;fontSize=19;" vertex="1" parent="1">
          <mxGeometry x="280.25" y="499.5" width="60" height="30" as="geometry" />
        </mxCell>
        <mxCell id="6Cb9cr2Xe844B4fNmnPE-627" value="" style="shape=image;verticalLabelPosition=bottom;labelBackgroundColor=default;verticalAlign=top;aspect=fixed;imageAspect=0;image=data:image/png,iVBORw0KGgoAAAANSUhEUgAAAgAAAAIACAMAAADDpiTIAAADAFBMVEVMaXE0TFA3SlE5S1I2SlQ4TFI4SlI4TFQ4TFQ6TFQ4TFMjNDQ5TFQ5TFI2TFI4TFI5TFM4TFM5TFM4S1E5S1M5TFM3SlI4TFI4TFI1S0s4S1I2S1E5TFM4TFM5TFI1SVA5TFM5TFM4TFM5TFM5TFM5TFI5TFI4TFQ4S1M5TFQyRk84S1I5TFM4S1M4TFI5TFI6TFM4TFM4TFM4TFQ5TFM5SlI4TFI4SlM6TFQAm8couesCi7kArdMiw+8Aq9u/2+EcfJUuh6E0anosZHTV7/EOlbUopckgr98Oh6ssZHIcfJMQep8uiaEAmMMCjbkBlcElt+oAk78Am8UBjbsAkb4htugwWGU4TFM1UVs4T1cJhKsBj7wOlbMAmcUea4UvXWwGh7AAi7gWiKMCpdQqX3EyZng2U13K6OwsncQopccbtOYviaouWmkPsOIOk7kydY0UdpY1XGo0U10YsuQFn8smst7P6+4jsuQReJu1194kja4YgJ84UlwxVWEDrN02T1gplrXD3+SXytcqlbYmYXU1WGQPgqYEibQrXG3I5Ogkb4Y+U1kgnscsb4YxYXErqtigztoqpdEQjrILoMkZcY8wf5sfdo4ulbkde5gre5YMkbkGocMilrs2YnE1VWGGwNEnZHiMxdQKgKe72uCf2ecLrd4TiqwHkb0naH2w3ughZ35JX2cye5ZXrsgjrd0TiKl8wNPT7fAqrtxDo8GJzd47kKogrNt2ssMcepcgseEhdY8socszhJ80a35Outcxh6MnrNMbpc4HjLRlts0ghqYWlr5prsGl0t0qdY8ZdJKx09o4VmKr1d5qxd0ogJ0QfKAKmcEGm8Wnv8NuhoxEkaggqthHh5oAqdkJmr1cv9hxvNEbiquIpKuV1OIukLMMl7+InqMsm8Gwyc0fp9Ios+MpmcAzaHw0boMos+WasraFsLxqvNM/mrcWhqe74+pio7dPfYx8k5hlnq2gxc7B2d1XbXJidnyAuchCtdU0cIVsuM5skZs8WmZis82By99edHqfpM9FAAAAOHRSTlMAFB9iMs1mQMGBzwPqxSTZ/G2+RnS0Ko+fCVgZ+S+GD1DerX2k45f3TfIMNpp5yvTnujrupz4yVG4r47oAAAAJcEhZcwAACxMAAAsTAQCanBgAACAASURBVHja7Z0JfBRVtv87QWUJSQoISwj7DkLYpWgwEdLvo2KA4rE0JbL0sCooImsg6oiCo40GGBHliYAIDwHF6IzOQNSnM29cUFFHzX/eZ0ZkniLz/8g48/494+gf5///VNW9VbeW7q7qVFdvv2+SSncTbi/n3HPPPfeec30+AAAAAAAAAAAAAAAAAAAAAAAAAAAAAAAAAAAAAAAAAAAAAAAAAAAAAAAAAAAAAAAAAAAAAAAAAAAAAAAAAAAAAAAAAAAAAAAAAAAAAAAAAAAAAAAAAAAAAAAAAAAAAAAAAAAAAAAAAAAAAAAAAAAAAAAAAAAAAAAAAAAAAAAAAAAAAAAAAAAAAAAAAACQ5gxukQhF+OCyhcv5RLgMHxwUAEABABQAQAEAFABkugIsmWgPKECWKsDEq+0BBYACQAGgAFCArFQAnudvvtovXxukR/wTjFcoQPYrgHJVxG28+qEAua0AsAA5rADVUIDcVoAGKAAsABQAPgAUIDcUoBoKAAugH/2hADmoANXMFQqQgwrQgCEAFgAWALMAKAAUAAoABYACQAGgAFAAKAAUAAoABYAC5JICIA6Q4wqAtQBYACgAfAAoABQACgAFgAJAAaAAUAAoABQAHxwUAEABABQAQAFAlijAhOrqtdJ1wtqrb55Q/eOrLa5QgGxWAFQISV+uaJkshqkK4DcK22+8agUiroJIvKWcTzITWan7r7ZQB50FSJEC5PfOcUOdNqRmCBhUzLcogwLkrAIUtOB5vvVoKECuKsAo+am5IfABkgNH4UXyOzqp8AG60Scf3h0KkAREPsxz8rf0I8q/9Yg8J6ZOAZppL7U4H0NAUi0BvRXmROWH3NL+xfshoEMX5iW2vipHFWDSeFtMkv94gr3Qzs1y97/eXsvjU6UApcU6Je3fAwrgqgLwVbYVQEyJAnQy2qkSKECKFCAlFqCHeaTqmItOoKQAVVVV/2v8j6qqHh2vuz5aVfUjelUVYMfEiRP1188mTvxMf71ZdgCraMv69q8/qb+OT40TWDaQPO/885qr0i1HLQDP8zdJIq4ar7tWyf+qXFUFkISrv07g+Wr9VbMAcsvR2p+k/o3ovQUYTIQefE54X7MBvaEAzhWgmucb9FfHCuD9ENCBivwJv9//hKYBQ6AAjhWgISj1evZ6s9ynYyjANcxV+lcpGODtENCCCPwhv8Q2MQc9QTctwAT91akFEDmvLcAAKu9rZQXw/7dmAzpDAZz7ABP0V+dDACd6awEKibTf9xNeupsqQJfRUAA3FEBMZwtQRKU9069qwBL62MAiKIBTH6CpFkBaJfDSAnQkst7o17j2SaoBPfOgAM59gKYNAd5agILW5DnXC3765fev30I1oLwgxwJBSRgCRMcK4KEFoEHAxxkDIPj916p+QB8ogDMFaGiaBRA9VoD2RM4vEcnLP7q5QGcMAQlEAps2C/BuCCggy8CriOQ1FfgySBRgaD4UwLtZgMh5OwtoTl1AVfxkEBD8v6YmoFUBFMDDOIDo6RDQTRsBBDr+EzUQHsqdlcHydAoEeaoARPW3aO6fdkNYRTWgHSyA3ThA02cB0lqAZ0NAnhYFFFQHQDUFL1E3oGcBLIBHFiAY5ry0AGPIjtVtfh0CUYIncmVh8PJcHQKoC/BL0vU1D0D5/RadCeRBATxaC/A2EkiiALWCvv+ro8B6uirQCQqQlbOAvmoYUGC+GXfwdToIdIUPkIVDQJ4uCqCzAdQReJz8SSEsgFdrAR7uB2hHpLvNbzQBqkasz4mpYLoNAV75AG2IcJ/zW1oA+YcGBNtCAbJvCKCTgPXaDEAwLgoIqS1akHOzAHkxwKvPmiYE+f1WJoCwkfxRLyiAJxbAyx1Bw5X3/bDa9fVxAMUNFOg24SzeHpars4BW7H5wi0CAcoeagMFQgGzbETSShgEEy0AAuUMnAgMxBGTbLIAUJPh1LAvg9/tpvtgAKECWDQHk6e4VTP1fZxE+yfp4cI7mBZSSnNB741gA/2JSOaQACuDBLMC73MDuNClUEHSBAN0sQGCWhZvngAJMmjTp38bfNGnSj8brrj+aNOkmelUVYG11tXKtprdvnjDhZsNVVQC55WjtK1eP9wTmMVnBMSyA4L+W/GG/HJgFJKFCiOioQkjYOx+gTLUAFoEA1h4IJE+kZwbJtIUTBiagAA3RCj/r7yRUIqbcyYsf0OQhILYPIN2kCwIZVEIwkQpuTi2An34bNYG5k4gCiI5e9RVN/pA2WoQB9PdOBTPOCUhEAbZU2UKxh6sm2mKvLM8l9lquIrMArxRAsXzi+wan3+QDCOszr2QEn7GIDv++WeIfkrYhyDQJ0LsEAkkXHqX+10EjOrfp1ql9eau+JLu0Z9tOLZs1L8oxBRC5+F3WUZ8WOS8tAF0LEGLHAQR1Y1CxHD5oN6RXcdSXU9itXWnOKADHqTV/yQOiRV/mnPRpuUHRIwVoQVcDY80CBHZNuDS/zfAu8V5Rl8KWzUuzXwFEqdqvrAVSoV+570qdnRoF2vGDYUk7HOmAZxagD2kijgXw+4UvaYqI3VfVf/CItFCALdfbYr4Tv24V03LV9ddXLSY3FmvtVdFL1Xy5V9faa3mipChcWP6/ylcsljRZATpydEdQzLUAfeUo2xS36Z56BbA5s7vJSWxngvzH19hsmXNyapgylticM1Y1WQFKyKf0SRwLIPhfSshIDu10WbYqgGi/ZdHJsXGSC+CdAtDyINuEKHEA9f61iQ6ULTpkqwWw2fK/JHBuoGcKQCqEBZfHnQX8MnFHeXBeihXgJvkjnUQX8iyvqgL45aNdGySR+Scw14ly7HcxrQCjDAFKy+w1Wsvq0bHR2tcdHTuerDua22evLiiAjzj0i2PtCBJ06QEqs/afvGbTiZ23fbBmYWNjY+Oa2y7+4uSDVUssVGDgkILMUYBoZ/tOlP91Il3nZVuOqwCi07ODvVMAelaOILCbgS1mAToFePjkxQ8aKyoaGysaCRX0ZsWHJx580qQCPXtkmwKIiVqA+AogeqkAHTUvUDDsB9dHBlQFWPLg4YWNGhWM7NUHzl6zxagCw4syXwEa6NWpBeDT1wKM0e0IELTiAAYLQJ3AIzsZsVcYLQDzwM4HjSowJuMVoJpeHfsAnJiuClCmFQoXDAkhgnFbYO0Rue8zUo5mAeTBYc3JWp0vmJ8BCtDgZAiwbQGkkKBtBaBxAI8UwFesJYdpOmBhAf57y6aFFQYpx7IA0p2FjzHewOCscwKdWIBYCtDAXK+W4oBBLxWAOgFfWvgArA1Yv76ROH22LAD9k021qTIATVOAakZA1U2eBYRNClDNtMxePR8CaJ1AcbHOCTAZAP9MSynHsADKP5/lU7aj3DUL0NB0CxBlCGhIvQ/gKxipqxJkuR1A+j6kiteRBXiY7CTiijJCAQw+QHUMCyC6MAtg20+VAqgJwhuNktdxSBO4fR+govFiCitOu2ABGlwKBKXxNFCrFVsrCNEnAasZgTuwAAupE9glPyMVoNpDBUiVD6BuCwt+6Y86B7iFFbgDH+AINQCpOIMwjSKBdkLBDamJBPp8vpb00EjBygBIlwsVFQlZgMNU/sNKM0QBGpKzFpDeFqCsC1MpysoCCHc1JmQB1ixJ6YkD6RQHSGcfQDs39LRgsRLgF4RDFY2JWICFK9R1AF9WKoBbFqA6pZFAn8+XT/cg/tpyEnArK28HswDVARhYloUK4KIP0KC3AB5HAtmZIFstTrUAq1lxO7AAv1CDwG18GaMADam3ACkYAnxl/Xm6L8TkAtzS2JiQBdikyr/c5/PBB0hnH0ArF6gdHkoHgvVkaY+Rty0LoEaA+GFlWakASVsNTIkClNJ4MP+lfl+ocJdB3jYtgNb/B6ZqT2h6rQaK6a0A6r4Q/u7ndC7AIW0B0IkF0DaDcKnLDkkjHyDtLYCWIsSfXs9sCz3UqG0BsG8BFh5Ji+PHk2wBxKRtChVToQCD1JSvJ3+prgvfym4BsG0BPljhSuJy7sQB0sICdChUhXb6ObIxaLXa3Z1YgItMFmQbXzYrgBMfgEtvBcjvxO7eW0zqg+o7vT0LsIYx/yk+aSp99gRKdZ/Sdk+glB7UT7d796ELsgGYaTDtdixA4yaRyYq/wueDBXA+BHgdCRzRS5+Nfq+SIyKoAQD7FuDwCrZGQKrrysIHsDX/K9dv3p9PHABB17vjWgDp1s75bEMjU15OCpHAuHS/wljuYSM9O/SuRmOnj20BFm6apZXNEHl+eOrPGUxyHEDM9NzA7s3adzHULVlMF4NoAMiuBfhAnwPC90+HYmIYAmK5/SXmQj9PbqPdXw4AGRcAo1qAhSeq2JpInMgXpkWpMChAtI3gzTtalfjaeEHdFK7fARDLAizcM+lhfUUskR/WzOdLLwX4t0mTJsnVmG+KcVUVYEL1hLVX3zyh+sdX664/rpYqPytXdT+A0jJ7tW5ZiQNMqK5eG7V95apFAuWy1Ob22WsCCpDfo2X7oRZFCZfcO1NbBjzU2GjDAqzZ+diRWeaiaVy3dDllOLEKIX7XK4RocYCUVgjJu7Jzx7Yjo5Q7+7GgbQISVuu6/KaLO8+uYe4vXPOBVAlCLgQhmsohhgd7sPhb1twWTS8R4zcV//UnUiRK2nItKYBJt/zGq1+OA3BuKkBZhxE92nRs32pgjKKkGwUmLVwJAKtd/gPyd09umf9w1fwttVEr5kkVE4f282Tw752M+s86BfBfbRKXny0FPsF5yxNZqVu0rxWJIkOAAwUoti4iXlg8rH/cjye4d5s+KXS1fvw/abu0oTisxKOicIMzsZ6vo0Khnr2J0xtf8uvTwlcbRvxamx/G0FHtPKsDNDzzqj9z6fiqTm/8RDP8At0BWKGzABftNdX+ikEeenfFKfm4tHLAjqv/OvlzziNdWUX6vn4b8C2GKE/F9TbKgQ4eUJoS9z6ZkuY4vbx5OcdfqfmrXJyNAmGORWrD1D59KMwlcXyhRb6euFYwV4EgO4DZ/N4P45QDLuw4xvtJX1mS5R/mRfLDc0ZlkJxd+XEHA7UizbDUMPnmLNqn/5hsI/DKr7e9pBM+YwHWE/uveQDRXMCRrdoPHjIgRfG+q7xz7sJSGXDlyql2QKr+TcQkJmbVw2oVcbV5ncMgJscGLHnr3k9mmo4G1wqC3GKM+1U00uS+4T2albRs2XJIm849Rl9VlOfzpfL8wHZJl77SI83DuM4JCNtuUlQ9AMYViNbNOc79acDpr97fuO2T9cb6P/ocMGG9afVfy+5t50sj6A7mSbcZ+OTapvIc+f3LtepNlbXkx/i3Nppc+5zFf1ob5T+std20Ldavnymt7vhjoBiAWyrMkX/qAqbXYXHNyKs6rI9YNDbO9IN4CFrf1yeCr7eI/J9Ni72dJmiJ+9v0KxYVjTMFCDie+KNZgFus1v7o/s6hpWmlADSP7YNGswUQ8BXji+qA2QCstlr7W0M9lo5pJX8f3cI61mQB0MXtmADB/NhqfXEv4zJAfnopAE1iWmj2AQTmPeLH9CNYVgA0VABQLcDCu1Na3yM67cnrarSyABBz9J8oNUCF1Y2GPV6GBN8BaaYAZC1oSSNmAQ6tv2BZBvzWRmMFAOX3nTxzVGQ60ZYcB2dhAQQ/vqN+RzkO7FbD+h/tVydcOJUwOZDDLuebLMAt6ObOLIAgJwAb+xEJCNIsj9YFaasAxpd+ix8d3fhtOA3WdCz4oUZTP1LuH06PBE8rCqNbAESCHPoAhwzjv2YBaJbfwEHpqwDGV76aneMIuBHPBxCU/K9GKwuwM4VFfrvH0bnyaBZgtR8mwIEF8F+osOj/pCQM9QC62N/vMcitLaEFhd3tKYDJAuiPu9BUP+cesTMLkPP/zf1fsQA7nR/0073ctRWDy1vlJWQBbmXWtwXTCkjyHtndICSh5V3nXGgnhgVYb6z+w1oANdHb9qafvFbD3Iv0cMVl8eMAZgtwq+6dCsYekqxHLqzid7nf8i5ulT/hdmzMAlY3RqOisWKn43M+yopd3DRQyPM9L4sbCjZbgEOCvSVQlx95hef54263fJznuJWJtiPEtwCrLbq+lu79sNOTvq7syfMjXVOAYdJzl8RbDFphsgB3WY5+/l0vmJc/3HpE8H+xUn41K/1NbEf/mlfK2w+P+x2/QtYoxPABpPDPmknRDIAaA+hnU2JD5L92ywnsQNag8mIvBz9pnsFYKX7dXu68xa4YNx6RHth9mmz927vD8o/stqNjx166ef+Us1docxZwQZr+L5zPz//Q2gDQnN/+9qYAZcPdrQlITzAZNib2hhCzByOw252Uy3IptekrQ2zM0OccPGI4UPmF75itl8sNJ645aMevf81Mo8ejnOduta5j0estLcBM6QCQhVUiz89+zMoC0Gwgzt5GkM6tyd8XuiP/Iu3dt+gaKzd0YWNjvOXA3ZfIZvgv3Bny9Q/WHa/V7SZ+pc5qsSV+O/r7def1O3pfu2CzHcFmHEB2/9eQvNItJ0wWQD3pa6gdm35ZocunQ5fqqlb1sZgOtIm2I6hitb4v7d6rtnNpt7EzmLuHnUeYB899Z95/ffwLq35p1U60J3vhuGmTeu3xHTFej84kmGMAhlmAoAz/jReXqM8x/6LBADxGn793fGnlj2Lffl83soSMmZ/9RkTbFXzW5AOsZsbFul2nde3sPdV0J4Bp/bVLuppYlNrldpwAy726Mq/VWiYfn//sgj/m64m638v4tHL1n8OzdDVdljy6hjUAs2n2T9zAzghjnnZ5kxcO8tqaMyWKS/RmYAB59TtNTsAh+k53LF9s7p7f1Vl35RiPmEZqpZd+dj56QtGl5XXxWxYsLYCmVeZma787F/X1GA/5EPzWe78FpfrTWYuEz0WPfUANwEmbe8HLSiySdAubWB+kXV/r1JbhJYw30JXmBZimAXdJb/LCueN7dXk5jAqci9JT7DyifI661knbnCH39/zuC3FatuACq1WiRT4xJ55/bUc8CyBEbV9+eH3FwosPR0kfmnVyp+RV/VRN+o21D6BrSZQc/WGjmzL/ax8jval1p84kLJlHHtlk3spQt5sVj4Ua1H63+wXDWCkYtk0KuoR5dpZdd27XXqveSfIGGWWr/W73F/5YLRu+X/jsK9GcT8yzdXeVrOTar5afsjIuZgtg5TFs27Q/eh6kdGf+o4cXxc0GK+rcqXUMQY1KdA9xUZ/4SW7lnUraFflIlatrWAsw9rZNDy4SY9bwoPf37jp3wWEexYVTy4+fr+U4c5q/yCuJouZ8vvPL6+w9w47XFjPtamokt2mVjXjpq4bddRbHuxm1QMcLn6180naJkyDPt7cSUbuSTuXxpdQvkXGg6ygHCdzKieTzf6Ew6cGqLbFqcxjKc8i5+au+ati9Q4i+eEZ75o5zn+1aef60vqvrC3/QfH6OM32utedXLl9WZ9my/F13bvnKxbWWhQLUDFIxmrD2fnX8td1S6ya/xTixWLb8+PnTlmmoMdRgWIs+3VoydGrR176EOjk8J6a0s+tVX0Qmm984nkrZ+YqALi3+rmH3smXLlu1geusLdTuW7V5+fOXiS/Hr43AclZg+xVv3UladX9nw2bJTO+rqLviFL+rqdpyS1eoS9SDChlcuFw8IKhoWjltd5PTeV1a+9tm5UzteuKAqwRd1p6S3tfz4K3tPi5zImVORRdJ4sigeYnskyL+i19AkiJ/jtC5LOqloLmzHWdXqcFL5R36GMHkiTi2WaVH5w1B+xNjZzXZZVP5Jq03hqAKRSJ9IfpUxihYkrRpJ22bxJ4Xde/QrdrHHMzflrmNpVs3Z+LZ6goVoeaWfcmwhIAsvQS4HwmnWh3lGUbstsoZZ+Qmrb0TktfHFbvUI/TNF6f9ccovR9GoT68y4ES3Lk/O0RNYip/YjkVN7qe7jC9v8AKykL+q6kFLdh6P1g/RSsvIeozyL9EplQxJm3oM6I3DxI2LeQ1KVoPXwbhbzidLmQ3qNTEpdF5EZ4qUOSvuRRVTAbqEY0WpKKar9X5Yu6WhKj1N7naiWhLHqiKL5JikPwjiBYW0GwIlalxWdCs7whki7HPE1kkz/9i3b6aLEpSOaNwVaI+aRGxTOnLnhDOGGE9fJXyekn+vohf1FbzJflt8ntF/6/2K4cfjE4RMnYv6F1o5yR8LwmPp1mFwPW7XEXqN+kebVp73uuhPyB3PmjPppkfu63/K/zqOWu3kScLOGMPEb3g6ZmfqvQM/UcaYP6Q16oT8KC8gqwLD0SwUwQGIGiywUYA4krmPunJBt9ru5qptUhpBXqr70cfK3zFwInZX/dPvyvyFNywFYMMCoACHNzE2G1GOa/6gsuIN4bGXprwD5RAFuZDWAvNdpELva/aeFQs4HgBJfBjDS4AUyij4OYwBh8nQn8qcDQHkmyJ+mBqwwGwCMARRH3V8dALoUZYQClOidAN1INwOyd+j9Z9wAoNWLXjDObAEwD3Do/UlsoANAQWYogI8cgXS7lQlALMiZ9xcKhW4kIaD+RRkif+oE3GnhAyAW5Mz7k1iRljWB7TsBBnuX42OA0+4fCs1zN7XHC+jO4K0WFiC3QwFOvT/GARiYnzkKQJ2AeTABTfP+GAeA75FB8qc54rOtLEDumoC5jkd/xgEYnEny9/WgE0ELA5Cr0cC508YlIP+jdBtnaUYpQAE5FPURKwuQmzPByYl0/9DtdNdOB19mQfYE3D3OygRMn4vub4+nxHStCOxoDDBagNwzAYl1/9D9tCR4+0yTv69USSYQj1gYgFBoOub+tqCZgH27Z5wC0DGAn2NlAXLLBEydkqD855EBoMtVmSd/dQzYamkCkjUReP13/3z66aff+4/MDv3QCBB1ADpnoPx9BSOZTQEmC5CcVeHXnw7I1Nf/+dVMXfixcAD7+TISWi3sjZCl/5uEjSG/k4UfqJeV4OmfZrT11/aA8IUFmakA+Zy2McxsAZLgB/5MEv4Df/zT559/JCnBM6nXgMkJW/9Q6H4aAWyd58tQyJqwON3aBLjtB75aHwjc81ueDwbDf5SHgWcy1/qHQqH7aDralZkqf/UY8U2WFiA0xV0/8PWlgfrIMdnq/DYgDwP176W2+09pivzn8ZkaAWIgKWJ3R/kkXN0ZMvaf9fWBv8k5leHfE19gaQoHgbkzmiL+0CN8eh4L64w26kxw3BvJHgTGLg0Efk+ej1qAwKuZaf21FQB+VCbL3zeoCzlDMloY3MWZwD8CgYCa4y35AA98FKj/Q+as+lsmAfAtCjJaAXwdyfu4LsobdXFR6L1A/UdhNdP+rx99dOy39YFnxqZE/NObJn4tAFA8KLPl7ysjM8FZ0d7qDBcVIPAnprQIH+T/Fqivz7CpH5E/3QLUt8yX6XQyJggkzQ0gCsBU2vh7IBDINN9P3gJGA0ADizJe/mpt+agmwDU34L36wB9FttxK8K8BzyMBc5s6+LPy7z/ClwX0MicKG6IBk11zAuv1dbU+Whf4g7c+wNQpIffk32V0Nsjfdxl5O3dG7RouxYPGLq0P/JVU7JJtwLF1AW+ngU32/XTy59r5soO2hgyBpE0Ffhaof0AOBJLKWn/0NhDkivhDN9IdQFyPLJG/Gg+eHX10nOOGBox9fWkgQELBEn8KBALvZZj4tf6fAXWAbEOrTW6IPkC6Mxl8VYr+/Fap+fj3SL2HUQCXxB96SpV/s+yRv28EfVMxPKQZrtgAaTk4EPn9559//k59faDeq+Vgt8Svzf8zKAnUDuQcQX5/jPfuig0Y+7sAg0cbQlwTf+jM3dnY/6UVgWFkbn5djHfvih9AtoRJe4K82RI2142Jn3EDYGbuAIwFrRq3ZEoSNGDytD1Tx7KbQn/m3abQae6JP/S2Wid6jC/roDvEH431CSQwG5w79az8uZ1g/6tXnt9cN8Wv7f/o0i775O/LG0niswtifQbOYoJzp07dSfMm+bMpWPAf56L41f1ffJfmvmyks51BIDTO5srQ3MlT/33nEbbe+cUM2+9h3P/7E7Vwe3bKXztv9GjsfjMjvuin7tl0xFTw/oSnMf/JM1wVvxb+41t3zVL5+/KHkgj91tifRTRXUJL81D0nji6xPvHgQy8X/Ka7K/7QBnX6V5zvy1o600nOG1NiGoFxqiMwd+7cyZMluf/7nosP3hfrBKWHPvSw849zWfya+8eXdy/IXgXwdWIOhZpVdeSRt3+x6czWrdcteOON0DiZN+5fcN3WrVu37nnj8IlNj7394JH9i+ZviXtylvjW2bHe+f1ud/5Q6P77tPN3S33ZTGmrsMPjj+L/8bHf/Gpsxo78yvA/S30zfQp82U2Hph84xx6eeux/3nygPrDuw8zt/NLwr0b/+d6+rKeZo94di79/u/2BeiXk+09P/L45oaSgDf9DB/hygFFODoaz7vd/+/3mZ5YqSR8KS5NuApIlfWb2z/ftkAvy95UWO+//RGPC/+/zfe/+eem6emmdl/kKBN77MMO8fnXx707N/c/z5QYdhopOjsQ99pf/+7/3bX7zmT//eV1AEnw9Mfv1ag2AQH1gXRKl72q0P1ryH8/38eUMPZQDofljH9XUvPvum9u3b9584MCBfd9+++3LL//mNy+//PK3+/YdOLB5+/Y3362pqXxgXUDq8orcA3Sht96gBMnxAuZOnpFE6YduXKTJf4gvh2imHLobDP+fysrKSKVChP2lXSOVkXvWqfs7DJKvVx9c99MkeH3Js/xK7qfm/Q8b4cspSN0YUdYAVvwWdyTuWcoYfFX2umHgDxkm/dACpvu37+7LMXopJ2OHNQ1Q5B5hOn9Epw8PrGMMgN7+Kzded3PYnxNKNkz379LGl3MUtBCVjfvhzRGd1Y9ChJgB/TDAWoDAMx+61fWnJF36oQVa7Jcv7uDLQbrTySC/zzj0R+jgbzAEsg6ss5A+ufFqZnR9Q/fnOw3y5SRlw+gn8DIr5IiFK6BThXseWFdvGAtoNOinTev5fCRQ1AAAB6BJREFU0+aM80T6utF/YA9frlLUWpoN8jzHfWMc9SOmyYF+fJCVgJE+UYY/JN7xvTD76sZPpvsXlvlyl6JhchYvF+a/OWg0ARHrqUGEVQJ1OFD5RyL9fsb0kJc8pYV++S5DCny+3NYAOYs3GGx4R5GurAgHI3qJR6wHBkkJ7nlAsQXky0kwYO7kqTO8svnMwv88JvbZs6svx5FsgPyBcCs3V8YmYjIBrBosXbdONgS2SkFMnjptxpwpoVRw+x08vD+jBkgRQY6b/zwbCIho9sDoG1hOGSNEEe75R4weP3nq1GnTUiR5U+SXLx4B8VM/QDIBnPislVQjB60tQTTe3DNlypw5c+bMmDFj2rRpM6bNmDFDujs9hWJXff+jjPi79C6F8GXy+8rLAiIfFH/+jjbjY7xCoghmTyCijx0qjx4IpSe6wZ9vWwTJU/LKZQPAcbz41gGLQIDVTCCWDXh2SjrK/2128G/duQByZ+gj1/QReZ6b9X0U0auGwUI5IoZVhGXpJ/7b72Q3OPTLg8z1DFHyYbkwL35dY4wKsxdVytG8QeluzZfpJv5ZrPiHw/qbGTBU2SDAc9zjByqNnd/oBx6MmEPFjMWIvLknncS/QSf+4gGQthUd+ipGQOS4+c/WGP19S2/Peg1Rvrt5XJr2/pElGPxjuYJyXDAoVm+m4j1o4e/R1WPZMJD5QkQfN6zcl5ZjPwb/WBQom4SkTQLBFc8alwUiB3WOoXVMkHnkv9JP/FyffEg5Js3V9WGO23XA4OxZTv2Yvs+uH0iXH1I+739b3/vbd4CE4w4Dw0mFXy4cvPPrdw+at4YdjLImYForilR+n1Lx33j0bp34W1wG8dqhRN4pqkwHFv/qYCSmyxcxzhIjuvhhCjXg9p/oMxvK4frbpWsxJ4UDFF/g+AHLMSBy0HIDkSk08HyKQv7zZuvF37Y55GqfQf1k8StGIPzxdjq8R8zbxJS9A8aUAm0B8eCBFASFNywy5DW1x6KfQy4r5qS8IckQBMXT39RUxpj7k+jAwSjLApv3eN357zCIv1dXCDShyHCYuIOieOxl4/AeiRYE1v6QmoLtT3jo9t9u7Pz8YHj+iZHfgswGOY4TxWO/qWFmAabEsVj7RCprXvQoKLhhvzHNdVhvhH0Sp9lIyQ2Q7YAYFC99844pXyhinPcZ9pXSv/zeA0fgzFGj6ecvb4agb9NiAv1ISEB2B0Xxf7brpgHxYkOsI/CfyZX+DWbp871GQ4JNpqwfp1gBKTAQDIp/eb7Gwt/XLxRFmPVC9f4755I37m/YP9sk/b69yyA9d1yBPiLdJ8DzQTG495s3GRU4WGnp/1tYhYPPJmeD/7xF5moWXPsBsP3uLRAV9eKUwKCiCKL46X/VWAQEDxrcAMP6YGXlvv903eXff4dFcZO+LdH53Q4NjpJ3DUv7xZQzobd8va/GYrSPxDIBlZXvvOiiL3hm3gqrUjatOyLkl5SBoONAOS5E54V8cOLXB2oiFpsHSRyAzSVljMBt7tj9RxbdbSX9YR3h9yUvPNymZ5jYAMUMcNyqj3/YfDASteMz20fVx2uaul34xtuP/sS6plXffpB+kp2BHi14UliMzAyCwTse+vr7zRbBgYi1aZDigi8mHOPdMM+640sJfh0R7ffEGRg8VKQzAqVapMhzKx7/+vvtB62WA60zBw58mZDsZ0ctYdez25UQjXcjQbk8ECgOgeIXBMXgire+/n5zjWmnsDEiSPYYPm9/PrDghnn7Z8UqYFjYEks9XpuBfgNVT0D6LQ3JwSDPB1c89PMXf7Vvc03EkEZiXjiKfH9bnOWB+28888jRRbNiV69s1XEAcntTQWmzQsUVoJuIRcUeBMNc8I75R9//+sUfnt/8Divyg4bsgcqaH6KsEi/Y+va8+2bNjlu6tHjwGKzzpJDuYwb3pSVm5W0DHC08G5Qdgy0/OXLy5y+++MOvnt+3eXuNVXCAqsD99y9YcONTT214ZN7+RTYELyX1FnbrAeGnAR1K2itCD8vzAjmrSA0ZBnkxyHPBu++YNX/RfUcfPPnW47saGl77+Ocff/zxx59+/Omnn376l7+suHO20xrlfXuVwN9PJ9q1JNsGwqot4Dk6UZduBPkg0Yig7DAqKA8EHcm+Z68h7dDx05HRQ4YPVGREjACnLB6o1kCZNBAbkQD9L+9T0q47Puh05sqSUcXqglGY9H5pV7F8yIAaPkxA9EMGIJM3UyYHVzbr2GIgcQbDnHY0mXpD5OzagJHlo7o1G408royjwFc0oE3HXq2Gyq6hvHxMLALHcVx8M9CzxahubcZcibE+48m7qnNJxz7ty3sO5GQ3UNpaGFamCcbFnNbFLXoN7lbSuV1XyD0rKeswut2AMZ2bXdGmZEjvISVtrmjWuceA5qOv7NqhqCwPvl2uDREAAAAAAAAAAAAAAAAAAAAAAAAAAAAAAAAAAAAAAAAAAAAAAAAAAAAAAAAAAAAAAAAAAAAAAAAAAAAAAAAAAAAAAAAAAAAAAAAAAAAAAAAAAAAAAAAAAAAAAAAAAAAAAAAAAAAAAAAAAAAAAAAAAAAAAAAAAAAAAAAAAAAAAAAAAAAAAAAAAAAAAAAAyGr+P7JPG2PqDbq/AAAAAElFTkSuQmCC;" vertex="1" parent="1">
          <mxGeometry x="386.63" y="409.75" width="96.75" height="96.75" as="geometry" />
        </mxCell>
        <mxCell id="6Cb9cr2Xe844B4fNmnPE-628" value="Build Image" style="text;html=1;align=center;verticalAlign=middle;whiteSpace=wrap;rounded=0;fontSize=19;" vertex="1" parent="1">
          <mxGeometry x="400" y="497.5" width="60" height="30" as="geometry" />
        </mxCell>
        <mxCell id="6Cb9cr2Xe844B4fNmnPE-629" value="" style="shape=image;verticalLabelPosition=bottom;labelBackgroundColor=default;verticalAlign=top;aspect=fixed;imageAspect=0;image=data:image/png,iVBORw0KGgoAAAANSUhEUgAAAgAAAAIACAMAAADDpiTIAAADAFBMVEVMaXE0TFA3SlE5S1I2SlQ4TFI4SlI4TFQ4TFQ6TFQ4TFMjNDQ5TFQ5TFI2TFI4TFI5TFM4TFM5TFM4S1E5S1M5TFM3SlI4TFI4TFI1S0s4S1I2S1E5TFM4TFM5TFI1SVA5TFM5TFM4TFM5TFM5TFM5TFI5TFI4TFQ4S1M5TFQyRk84S1I5TFM4S1M4TFI5TFI6TFM4TFM4TFM4TFQ5TFM5SlI4TFI4SlM6TFQAm8couesCi7kArdMiw+8Aq9u/2+EcfJUuh6E0anosZHTV7/EOlbUopckgr98Oh6ssZHIcfJMQep8uiaEAmMMCjbkBlcElt+oAk78Am8UBjbsAkb4htugwWGU4TFM1UVs4T1cJhKsBj7wOlbMAmcUea4UvXWwGh7AAi7gWiKMCpdQqX3EyZng2U13K6OwsncQopccbtOYviaouWmkPsOIOk7kydY0UdpY1XGo0U10YsuQFn8smst7P6+4jsuQReJu1194kja4YgJ84UlwxVWEDrN02T1gplrXD3+SXytcqlbYmYXU1WGQPgqYEibQrXG3I5Ogkb4Y+U1kgnscsb4YxYXErqtigztoqpdEQjrILoMkZcY8wf5sfdo4ulbkde5gre5YMkbkGocMilrs2YnE1VWGGwNEnZHiMxdQKgKe72uCf2ecLrd4TiqwHkb0naH2w3ughZ35JX2cye5ZXrsgjrd0TiKl8wNPT7fAqrtxDo8GJzd47kKogrNt2ssMcepcgseEhdY8socszhJ80a35Outcxh6MnrNMbpc4HjLRlts0ghqYWlr5prsGl0t0qdY8ZdJKx09o4VmKr1d5qxd0ogJ0QfKAKmcEGm8Wnv8NuhoxEkaggqthHh5oAqdkJmr1cv9hxvNEbiquIpKuV1OIukLMMl7+InqMsm8Gwyc0fp9Ios+MpmcAzaHw0boMos+WasraFsLxqvNM/mrcWhqe74+pio7dPfYx8k5hlnq2gxc7B2d1XbXJidnyAuchCtdU0cIVsuM5skZs8WmZis82By99edHqfpM9FAAAAOHRSTlMAFB9iMs1mQMGBzwPqxSTZ/G2+RnS0Ko+fCVgZ+S+GD1DerX2k45f3TfIMNpp5yvTnujrupz4yVG4r47oAAAAJcEhZcwAACxMAAAsTAQCanBgAACAASURBVHja7Z0JfBRVtv87QWUJSQoISwj7DkLYpWgwEdLvo2KA4rE0JbL0sCooImsg6oiCo40GGBHliYAIDwHF6IzOQNSnM29cUFFHzX/eZ0ZkniLz/8g48/494+gf5///VNW9VbeW7q7qVFdvv2+SSncTbi/n3HPPPfeec30+AAAAAAAAAAAAAAAAAAAAAAAAAAAAAAAAAAAAAAAAAAAAAAAAAAAAAAAAAAAAAAAAAAAAAAAAAAAAAAAAAAAAAAAAAAAAAAAAAAAAAAAAAAAAAAAAAAAAAAAAAAAAAAAAAAAAAAAAAAAAAAAAAAAAAAAAAAAAAAAAAAAAAAAAAAAAAAAAAAAAAAAAAACQ5gxukQhF+OCyhcv5RLgMHxwUAEABABQAQAEAFABkugIsmWgPKECWKsDEq+0BBYACQAGgAFCArFQAnudvvtovXxukR/wTjFcoQPYrgHJVxG28+qEAua0AsAA5rADVUIDcVoAGKAAsABQAPgAUIDcUoBoKAAugH/2hADmoANXMFQqQgwrQgCEAFgAWALMAKAAUAAoABYACQAGgAFAAKAAUAAoABYAC5JICIA6Q4wqAtQBYACgAfAAoABQACgAFgAJAAaAAUAAoABQAHxwUAEABABQAQAFAlijAhOrqtdJ1wtqrb55Q/eOrLa5QgGxWAFQISV+uaJkshqkK4DcK22+8agUiroJIvKWcTzITWan7r7ZQB50FSJEC5PfOcUOdNqRmCBhUzLcogwLkrAIUtOB5vvVoKECuKsAo+am5IfABkgNH4UXyOzqp8AG60Scf3h0KkAREPsxz8rf0I8q/9Yg8J6ZOAZppL7U4H0NAUi0BvRXmROWH3NL+xfshoEMX5iW2vipHFWDSeFtMkv94gr3Qzs1y97/eXsvjU6UApcU6Je3fAwrgqgLwVbYVQEyJAnQy2qkSKECKFCAlFqCHeaTqmItOoKQAVVVV/2v8j6qqHh2vuz5aVfUjelUVYMfEiRP1188mTvxMf71ZdgCraMv69q8/qb+OT40TWDaQPO/885qr0i1HLQDP8zdJIq4ar7tWyf+qXFUFkISrv07g+Wr9VbMAcsvR2p+k/o3ovQUYTIQefE54X7MBvaEAzhWgmucb9FfHCuD9ENCBivwJv9//hKYBQ6AAjhWgISj1evZ6s9ynYyjANcxV+lcpGODtENCCCPwhv8Q2MQc9QTctwAT91akFEDmvLcAAKu9rZQXw/7dmAzpDAZz7ABP0V+dDACd6awEKibTf9xNeupsqQJfRUAA3FEBMZwtQRKU9069qwBL62MAiKIBTH6CpFkBaJfDSAnQkst7o17j2SaoBPfOgAM59gKYNAd5agILW5DnXC3765fev30I1oLwgxwJBSRgCRMcK4KEFoEHAxxkDIPj916p+QB8ogDMFaGiaBRA9VoD2RM4vEcnLP7q5QGcMAQlEAps2C/BuCCggy8CriOQ1FfgySBRgaD4UwLtZgMh5OwtoTl1AVfxkEBD8v6YmoFUBFMDDOIDo6RDQTRsBBDr+EzUQHsqdlcHydAoEeaoARPW3aO6fdkNYRTWgHSyA3ThA02cB0lqAZ0NAnhYFFFQHQDUFL1E3oGcBLIBHFiAY5ry0AGPIjtVtfh0CUYIncmVh8PJcHQKoC/BL0vU1D0D5/RadCeRBATxaC/A2EkiiALWCvv+ro8B6uirQCQqQlbOAvmoYUGC+GXfwdToIdIUPkIVDQJ4uCqCzAdQReJz8SSEsgFdrAR7uB2hHpLvNbzQBqkasz4mpYLoNAV75AG2IcJ/zW1oA+YcGBNtCAbJvCKCTgPXaDEAwLgoIqS1akHOzAHkxwKvPmiYE+f1WJoCwkfxRLyiAJxbAyx1Bw5X3/bDa9fVxAMUNFOg24SzeHpars4BW7H5wi0CAcoeagMFQgGzbETSShgEEy0AAuUMnAgMxBGTbLIAUJPh1LAvg9/tpvtgAKECWDQHk6e4VTP1fZxE+yfp4cI7mBZSSnNB741gA/2JSOaQACuDBLMC73MDuNClUEHSBAN0sQGCWhZvngAJMmjTp38bfNGnSj8brrj+aNOkmelUVYG11tXKtprdvnjDhZsNVVQC55WjtK1eP9wTmMVnBMSyA4L+W/GG/HJgFJKFCiOioQkjYOx+gTLUAFoEA1h4IJE+kZwbJtIUTBiagAA3RCj/r7yRUIqbcyYsf0OQhILYPIN2kCwIZVEIwkQpuTi2An34bNYG5k4gCiI5e9RVN/pA2WoQB9PdOBTPOCUhEAbZU2UKxh6sm2mKvLM8l9lquIrMArxRAsXzi+wan3+QDCOszr2QEn7GIDv++WeIfkrYhyDQJ0LsEAkkXHqX+10EjOrfp1ql9eau+JLu0Z9tOLZs1L8oxBRC5+F3WUZ8WOS8tAF0LEGLHAQR1Y1CxHD5oN6RXcdSXU9itXWnOKADHqTV/yQOiRV/mnPRpuUHRIwVoQVcDY80CBHZNuDS/zfAu8V5Rl8KWzUuzXwFEqdqvrAVSoV+570qdnRoF2vGDYUk7HOmAZxagD2kijgXw+4UvaYqI3VfVf/CItFCALdfbYr4Tv24V03LV9ddXLSY3FmvtVdFL1Xy5V9faa3mipChcWP6/ylcsljRZATpydEdQzLUAfeUo2xS36Z56BbA5s7vJSWxngvzH19hsmXNyapgylticM1Y1WQFKyKf0SRwLIPhfSshIDu10WbYqgGi/ZdHJsXGSC+CdAtDyINuEKHEA9f61iQ6ULTpkqwWw2fK/JHBuoGcKQCqEBZfHnQX8MnFHeXBeihXgJvkjnUQX8iyvqgL45aNdGySR+Scw14ly7HcxrQCjDAFKy+w1Wsvq0bHR2tcdHTuerDua22evLiiAjzj0i2PtCBJ06QEqs/afvGbTiZ23fbBmYWNjY+Oa2y7+4uSDVUssVGDgkILMUYBoZ/tOlP91Il3nZVuOqwCi07ODvVMAelaOILCbgS1mAToFePjkxQ8aKyoaGysaCRX0ZsWHJx580qQCPXtkmwKIiVqA+AogeqkAHTUvUDDsB9dHBlQFWPLg4YWNGhWM7NUHzl6zxagCw4syXwEa6NWpBeDT1wKM0e0IELTiAAYLQJ3AIzsZsVcYLQDzwM4HjSowJuMVoJpeHfsAnJiuClCmFQoXDAkhgnFbYO0Rue8zUo5mAeTBYc3JWp0vmJ8BCtDgZAiwbQGkkKBtBaBxAI8UwFesJYdpOmBhAf57y6aFFQYpx7IA0p2FjzHewOCscwKdWIBYCtDAXK+W4oBBLxWAOgFfWvgArA1Yv76ROH22LAD9k021qTIATVOAakZA1U2eBYRNClDNtMxePR8CaJ1AcbHOCTAZAP9MSynHsADKP5/lU7aj3DUL0NB0CxBlCGhIvQ/gKxipqxJkuR1A+j6kiteRBXiY7CTiijJCAQw+QHUMCyC6MAtg20+VAqgJwhuNktdxSBO4fR+govFiCitOu2ABGlwKBKXxNFCrFVsrCNEnAasZgTuwAAupE9glPyMVoNpDBUiVD6BuCwt+6Y86B7iFFbgDH+AINQCpOIMwjSKBdkLBDamJBPp8vpb00EjBygBIlwsVFQlZgMNU/sNKM0QBGpKzFpDeFqCsC1MpysoCCHc1JmQB1ixJ6YkD6RQHSGcfQDs39LRgsRLgF4RDFY2JWICFK9R1AF9WKoBbFqA6pZFAn8+XT/cg/tpyEnArK28HswDVARhYloUK4KIP0KC3AB5HAtmZIFstTrUAq1lxO7AAv1CDwG18GaMADam3ACkYAnxl/Xm6L8TkAtzS2JiQBdikyr/c5/PBB0hnH0ArF6gdHkoHgvVkaY+Rty0LoEaA+GFlWakASVsNTIkClNJ4MP+lfl+ocJdB3jYtgNb/B6ZqT2h6rQaK6a0A6r4Q/u7ndC7AIW0B0IkF0DaDcKnLDkkjHyDtLYCWIsSfXs9sCz3UqG0BsG8BFh5Ji+PHk2wBxKRtChVToQCD1JSvJ3+prgvfym4BsG0BPljhSuJy7sQB0sICdChUhXb6ObIxaLXa3Z1YgItMFmQbXzYrgBMfgEtvBcjvxO7eW0zqg+o7vT0LsIYx/yk+aSp99gRKdZ/Sdk+glB7UT7d796ELsgGYaTDtdixA4yaRyYq/wueDBXA+BHgdCRzRS5+Nfq+SIyKoAQD7FuDwCrZGQKrrysIHsDX/K9dv3p9PHABB17vjWgDp1s75bEMjU15OCpHAuHS/wljuYSM9O/SuRmOnj20BFm6apZXNEHl+eOrPGUxyHEDM9NzA7s3adzHULVlMF4NoAMiuBfhAnwPC90+HYmIYAmK5/SXmQj9PbqPdXw4AGRcAo1qAhSeq2JpInMgXpkWpMChAtI3gzTtalfjaeEHdFK7fARDLAizcM+lhfUUskR/WzOdLLwX4t0mTJsnVmG+KcVUVYEL1hLVX3zyh+sdX664/rpYqPytXdT+A0jJ7tW5ZiQNMqK5eG7V95apFAuWy1Ob22WsCCpDfo2X7oRZFCZfcO1NbBjzU2GjDAqzZ+diRWeaiaVy3dDllOLEKIX7XK4RocYCUVgjJu7Jzx7Yjo5Q7+7GgbQISVuu6/KaLO8+uYe4vXPOBVAlCLgQhmsohhgd7sPhb1twWTS8R4zcV//UnUiRK2nItKYBJt/zGq1+OA3BuKkBZhxE92nRs32pgjKKkGwUmLVwJAKtd/gPyd09umf9w1fwttVEr5kkVE4f282Tw752M+s86BfBfbRKXny0FPsF5yxNZqVu0rxWJIkOAAwUoti4iXlg8rH/cjye4d5s+KXS1fvw/abu0oTisxKOicIMzsZ6vo0Khnr2J0xtf8uvTwlcbRvxamx/G0FHtPKsDNDzzqj9z6fiqTm/8RDP8At0BWKGzABftNdX+ikEeenfFKfm4tHLAjqv/OvlzziNdWUX6vn4b8C2GKE/F9TbKgQ4eUJoS9z6ZkuY4vbx5OcdfqfmrXJyNAmGORWrD1D59KMwlcXyhRb6euFYwV4EgO4DZ/N4P45QDLuw4xvtJX1mS5R/mRfLDc0ZlkJxd+XEHA7UizbDUMPnmLNqn/5hsI/DKr7e9pBM+YwHWE/uveQDRXMCRrdoPHjIgRfG+q7xz7sJSGXDlyql2QKr+TcQkJmbVw2oVcbV5ncMgJscGLHnr3k9mmo4G1wqC3GKM+1U00uS+4T2albRs2XJIm849Rl9VlOfzpfL8wHZJl77SI83DuM4JCNtuUlQ9AMYViNbNOc79acDpr97fuO2T9cb6P/ocMGG9afVfy+5t50sj6A7mSbcZ+OTapvIc+f3LtepNlbXkx/i3Nppc+5zFf1ob5T+std20Ldavnymt7vhjoBiAWyrMkX/qAqbXYXHNyKs6rI9YNDbO9IN4CFrf1yeCr7eI/J9Ni72dJmiJ+9v0KxYVjTMFCDie+KNZgFus1v7o/s6hpWmlADSP7YNGswUQ8BXji+qA2QCstlr7W0M9lo5pJX8f3cI61mQB0MXtmADB/NhqfXEv4zJAfnopAE1iWmj2AQTmPeLH9CNYVgA0VABQLcDCu1Na3yM67cnrarSyABBz9J8oNUCF1Y2GPV6GBN8BaaYAZC1oSSNmAQ6tv2BZBvzWRmMFAOX3nTxzVGQ60ZYcB2dhAQQ/vqN+RzkO7FbD+h/tVydcOJUwOZDDLuebLMAt6ObOLIAgJwAb+xEJCNIsj9YFaasAxpd+ix8d3fhtOA3WdCz4oUZTP1LuH06PBE8rCqNbAESCHPoAhwzjv2YBaJbfwEHpqwDGV76aneMIuBHPBxCU/K9GKwuwM4VFfrvH0bnyaBZgtR8mwIEF8F+osOj/pCQM9QC62N/vMcitLaEFhd3tKYDJAuiPu9BUP+cesTMLkPP/zf1fsQA7nR/0073ctRWDy1vlJWQBbmXWtwXTCkjyHtndICSh5V3nXGgnhgVYb6z+w1oANdHb9qafvFbD3Iv0cMVl8eMAZgtwq+6dCsYekqxHLqzid7nf8i5ulT/hdmzMAlY3RqOisWKn43M+yopd3DRQyPM9L4sbCjZbgEOCvSVQlx95hef54263fJznuJWJtiPEtwCrLbq+lu79sNOTvq7syfMjXVOAYdJzl8RbDFphsgB3WY5+/l0vmJc/3HpE8H+xUn41K/1NbEf/mlfK2w+P+x2/QtYoxPABpPDPmknRDIAaA+hnU2JD5L92ywnsQNag8mIvBz9pnsFYKX7dXu68xa4YNx6RHth9mmz927vD8o/stqNjx166ef+Us1docxZwQZr+L5zPz//Q2gDQnN/+9qYAZcPdrQlITzAZNib2hhCzByOw252Uy3IptekrQ2zM0OccPGI4UPmF75itl8sNJ645aMevf81Mo8ejnOduta5j0estLcBM6QCQhVUiz89+zMoC0Gwgzt5GkM6tyd8XuiP/Iu3dt+gaKzd0YWNjvOXA3ZfIZvgv3Bny9Q/WHa/V7SZ+pc5qsSV+O/r7def1O3pfu2CzHcFmHEB2/9eQvNItJ0wWQD3pa6gdm35ZocunQ5fqqlb1sZgOtIm2I6hitb4v7d6rtnNpt7EzmLuHnUeYB899Z95/ffwLq35p1U60J3vhuGmTeu3xHTFej84kmGMAhlmAoAz/jReXqM8x/6LBADxGn793fGnlj2Lffl83soSMmZ/9RkTbFXzW5AOsZsbFul2nde3sPdV0J4Bp/bVLuppYlNrldpwAy726Mq/VWiYfn//sgj/m64m638v4tHL1n8OzdDVdljy6hjUAs2n2T9zAzghjnnZ5kxcO8tqaMyWKS/RmYAB59TtNTsAh+k53LF9s7p7f1Vl35RiPmEZqpZd+dj56QtGl5XXxWxYsLYCmVeZma787F/X1GA/5EPzWe78FpfrTWYuEz0WPfUANwEmbe8HLSiySdAubWB+kXV/r1JbhJYw30JXmBZimAXdJb/LCueN7dXk5jAqci9JT7DyifI661knbnCH39/zuC3FatuACq1WiRT4xJ55/bUc8CyBEbV9+eH3FwosPR0kfmnVyp+RV/VRN+o21D6BrSZQc/WGjmzL/ax8jval1p84kLJlHHtlk3spQt5sVj4Ua1H63+wXDWCkYtk0KuoR5dpZdd27XXqveSfIGGWWr/W73F/5YLRu+X/jsK9GcT8yzdXeVrOTar5afsjIuZgtg5TFs27Q/eh6kdGf+o4cXxc0GK+rcqXUMQY1KdA9xUZ/4SW7lnUraFflIlatrWAsw9rZNDy4SY9bwoPf37jp3wWEexYVTy4+fr+U4c5q/yCuJouZ8vvPL6+w9w47XFjPtamokt2mVjXjpq4bddRbHuxm1QMcLn6180naJkyDPt7cSUbuSTuXxpdQvkXGg6ygHCdzKieTzf6Ew6cGqLbFqcxjKc8i5+au+ati9Q4i+eEZ75o5zn+1aef60vqvrC3/QfH6OM32utedXLl9WZ9my/F13bvnKxbWWhQLUDFIxmrD2fnX8td1S6ya/xTixWLb8+PnTlmmoMdRgWIs+3VoydGrR176EOjk8J6a0s+tVX0Qmm984nkrZ+YqALi3+rmH3smXLlu1geusLdTuW7V5+fOXiS/Hr43AclZg+xVv3UladX9nw2bJTO+rqLviFL+rqdpyS1eoS9SDChlcuFw8IKhoWjltd5PTeV1a+9tm5UzteuKAqwRd1p6S3tfz4K3tPi5zImVORRdJ4sigeYnskyL+i19AkiJ/jtC5LOqloLmzHWdXqcFL5R36GMHkiTi2WaVH5w1B+xNjZzXZZVP5Jq03hqAKRSJ9IfpUxihYkrRpJ22bxJ4Xde/QrdrHHMzflrmNpVs3Z+LZ6goVoeaWfcmwhIAsvQS4HwmnWh3lGUbstsoZZ+Qmrb0TktfHFbvUI/TNF6f9ccovR9GoT68y4ES3Lk/O0RNYip/YjkVN7qe7jC9v8AKykL+q6kFLdh6P1g/RSsvIeozyL9EplQxJm3oM6I3DxI2LeQ1KVoPXwbhbzidLmQ3qNTEpdF5EZ4qUOSvuRRVTAbqEY0WpKKar9X5Yu6WhKj1N7naiWhLHqiKL5JikPwjiBYW0GwIlalxWdCs7whki7HPE1kkz/9i3b6aLEpSOaNwVaI+aRGxTOnLnhDOGGE9fJXyekn+vohf1FbzJflt8ntF/6/2K4cfjE4RMnYv6F1o5yR8LwmPp1mFwPW7XEXqN+kebVp73uuhPyB3PmjPppkfu63/K/zqOWu3kScLOGMPEb3g6ZmfqvQM/UcaYP6Q16oT8KC8gqwLD0SwUwQGIGiywUYA4krmPunJBt9ru5qptUhpBXqr70cfK3zFwInZX/dPvyvyFNywFYMMCoACHNzE2G1GOa/6gsuIN4bGXprwD5RAFuZDWAvNdpELva/aeFQs4HgBJfBjDS4AUyij4OYwBh8nQn8qcDQHkmyJ+mBqwwGwCMARRH3V8dALoUZYQClOidAN1INwOyd+j9Z9wAoNWLXjDObAEwD3Do/UlsoANAQWYogI8cgXS7lQlALMiZ9xcKhW4kIaD+RRkif+oE3GnhAyAW5Mz7k1iRljWB7TsBBnuX42OA0+4fCs1zN7XHC+jO4K0WFiC3QwFOvT/GARiYnzkKQJ2AeTABTfP+GAeA75FB8qc54rOtLEDumoC5jkd/xgEYnEny9/WgE0ELA5Cr0cC508YlIP+jdBtnaUYpQAE5FPURKwuQmzPByYl0/9DtdNdOB19mQfYE3D3OygRMn4vub4+nxHStCOxoDDBagNwzAYl1/9D9tCR4+0yTv69USSYQj1gYgFBoOub+tqCZgH27Z5wC0DGAn2NlAXLLBEydkqD855EBoMtVmSd/dQzYamkCkjUReP13/3z66aff+4/MDv3QCBB1ADpnoPx9BSOZTQEmC5CcVeHXnw7I1Nf/+dVMXfixcAD7+TISWi3sjZCl/5uEjSG/k4UfqJeV4OmfZrT11/aA8IUFmakA+Zy2McxsAZLgB/5MEv4Df/zT559/JCnBM6nXgMkJW/9Q6H4aAWyd58tQyJqwON3aBLjtB75aHwjc81ueDwbDf5SHgWcy1/qHQqH7aDralZkqf/UY8U2WFiA0xV0/8PWlgfrIMdnq/DYgDwP176W2+09pivzn8ZkaAWIgKWJ3R/kkXN0ZMvaf9fWBv8k5leHfE19gaQoHgbkzmiL+0CN8eh4L64w26kxw3BvJHgTGLg0Efk+ej1qAwKuZaf21FQB+VCbL3zeoCzlDMloY3MWZwD8CgYCa4y35AA98FKj/Q+as+lsmAfAtCjJaAXwdyfu4LsobdXFR6L1A/UdhNdP+rx99dOy39YFnxqZE/NObJn4tAFA8KLPl7ysjM8FZ0d7qDBcVIPAnprQIH+T/Fqivz7CpH5E/3QLUt8yX6XQyJggkzQ0gCsBU2vh7IBDINN9P3gJGA0ADizJe/mpt+agmwDU34L36wB9FttxK8K8BzyMBc5s6+LPy7z/ClwX0MicKG6IBk11zAuv1dbU+Whf4g7c+wNQpIffk32V0Nsjfdxl5O3dG7RouxYPGLq0P/JVU7JJtwLF1AW+ngU32/XTy59r5soO2hgyBpE0Ffhaof0AOBJLKWn/0NhDkivhDN9IdQFyPLJG/Gg+eHX10nOOGBox9fWkgQELBEn8KBALvZZj4tf6fAXWAbEOrTW6IPkC6Mxl8VYr+/Fap+fj3SL2HUQCXxB96SpV/s+yRv28EfVMxPKQZrtgAaTk4EPn9559//k59faDeq+Vgt8Svzf8zKAnUDuQcQX5/jPfuig0Y+7sAg0cbQlwTf+jM3dnY/6UVgWFkbn5djHfvih9AtoRJe4K82RI2142Jn3EDYGbuAIwFrRq3ZEoSNGDytD1Tx7KbQn/m3abQae6JP/S2Wid6jC/roDvEH431CSQwG5w79az8uZ1g/6tXnt9cN8Wv7f/o0i775O/LG0niswtifQbOYoJzp07dSfMm+bMpWPAf56L41f1ffJfmvmyks51BIDTO5srQ3MlT/33nEbbe+cUM2+9h3P/7E7Vwe3bKXztv9GjsfjMjvuin7tl0xFTw/oSnMf/JM1wVvxb+41t3zVL5+/KHkgj91tifRTRXUJL81D0nji6xPvHgQy8X/Ka7K/7QBnX6V5zvy1o600nOG1NiGoFxqiMwd+7cyZMluf/7nosP3hfrBKWHPvSw849zWfya+8eXdy/IXgXwdWIOhZpVdeSRt3+x6czWrdcteOON0DiZN+5fcN3WrVu37nnj8IlNj7394JH9i+ZviXtylvjW2bHe+f1ud/5Q6P77tPN3S33ZTGmrsMPjj+L/8bHf/Gpsxo78yvA/S30zfQp82U2Hph84xx6eeux/3nygPrDuw8zt/NLwr0b/+d6+rKeZo94di79/u/2BeiXk+09P/L45oaSgDf9DB/hygFFODoaz7vd/+/3mZ5YqSR8KS5NuApIlfWb2z/ftkAvy95UWO+//RGPC/+/zfe/+eem6emmdl/kKBN77MMO8fnXx707N/c/z5QYdhopOjsQ99pf/+7/3bX7zmT//eV1AEnw9Mfv1ag2AQH1gXRKl72q0P1ryH8/38eUMPZQDofljH9XUvPvum9u3b9584MCBfd9+++3LL//mNy+//PK3+/YdOLB5+/Y3362pqXxgXUDq8orcA3Sht96gBMnxAuZOnpFE6YduXKTJf4gvh2imHLobDP+fysrKSKVChP2lXSOVkXvWqfs7DJKvVx9c99MkeH3Js/xK7qfm/Q8b4cspSN0YUdYAVvwWdyTuWcoYfFX2umHgDxkm/dACpvu37+7LMXopJ2OHNQ1Q5B5hOn9Epw8PrGMMgN7+Kzded3PYnxNKNkz379LGl3MUtBCVjfvhzRGd1Y9ChJgB/TDAWoDAMx+61fWnJF36oQVa7Jcv7uDLQbrTySC/zzj0R+jgbzAEsg6ss5A+ufFqZnR9Q/fnOw3y5SRlw+gn8DIr5IiFK6BThXseWFdvGAtoNOinTev5fCRQ1AAAB6BJREFU0+aM80T6utF/YA9frlLUWpoN8jzHfWMc9SOmyYF+fJCVgJE+UYY/JN7xvTD76sZPpvsXlvlyl6JhchYvF+a/OWg0ARHrqUGEVQJ1OFD5RyL9fsb0kJc8pYV++S5DCny+3NYAOYs3GGx4R5GurAgHI3qJR6wHBkkJ7nlAsQXky0kwYO7kqTO8svnMwv88JvbZs6svx5FsgPyBcCs3V8YmYjIBrBosXbdONgS2SkFMnjptxpwpoVRw+x08vD+jBkgRQY6b/zwbCIho9sDoG1hOGSNEEe75R4weP3nq1GnTUiR5U+SXLx4B8VM/QDIBnPislVQjB60tQTTe3DNlypw5c+bMmDFj2rRpM6bNmDFDujs9hWJXff+jjPi79C6F8GXy+8rLAiIfFH/+jjbjY7xCoghmTyCijx0qjx4IpSe6wZ9vWwTJU/LKZQPAcbz41gGLQIDVTCCWDXh2SjrK/2128G/duQByZ+gj1/QReZ6b9X0U0auGwUI5IoZVhGXpJ/7b72Q3OPTLg8z1DFHyYbkwL35dY4wKsxdVytG8QeluzZfpJv5ZrPiHw/qbGTBU2SDAc9zjByqNnd/oBx6MmEPFjMWIvLknncS/QSf+4gGQthUd+ipGQOS4+c/WGP19S2/Peg1Rvrt5XJr2/pElGPxjuYJyXDAoVm+m4j1o4e/R1WPZMJD5QkQfN6zcl5ZjPwb/WBQom4SkTQLBFc8alwUiB3WOoXVMkHnkv9JP/FyffEg5Js3V9WGO23XA4OxZTv2Yvs+uH0iXH1I+739b3/vbd4CE4w4Dw0mFXy4cvPPrdw+at4YdjLImYForilR+n1Lx33j0bp34W1wG8dqhRN4pqkwHFv/qYCSmyxcxzhIjuvhhCjXg9p/oMxvK4frbpWsxJ4UDFF/g+AHLMSBy0HIDkSk08HyKQv7zZuvF37Y55GqfQf1k8StGIPzxdjq8R8zbxJS9A8aUAm0B8eCBFASFNywy5DW1x6KfQy4r5qS8IckQBMXT39RUxpj7k+jAwSjLApv3eN357zCIv1dXCDShyHCYuIOieOxl4/AeiRYE1v6QmoLtT3jo9t9u7Pz8YHj+iZHfgswGOY4TxWO/qWFmAabEsVj7RCprXvQoKLhhvzHNdVhvhH0Sp9lIyQ2Q7YAYFC99844pXyhinPcZ9pXSv/zeA0fgzFGj6ecvb4agb9NiAv1ISEB2B0Xxf7brpgHxYkOsI/CfyZX+DWbp871GQ4JNpqwfp1gBKTAQDIp/eb7Gwt/XLxRFmPVC9f4755I37m/YP9sk/b69yyA9d1yBPiLdJ8DzQTG495s3GRU4WGnp/1tYhYPPJmeD/7xF5moWXPsBsP3uLRAV9eKUwKCiCKL46X/VWAQEDxrcAMP6YGXlvv903eXff4dFcZO+LdH53Q4NjpJ3DUv7xZQzobd8va/GYrSPxDIBlZXvvOiiL3hm3gqrUjatOyLkl5SBoONAOS5E54V8cOLXB2oiFpsHSRyAzSVljMBt7tj9RxbdbSX9YR3h9yUvPNymZ5jYAMUMcNyqj3/YfDASteMz20fVx2uaul34xtuP/sS6plXffpB+kp2BHi14UliMzAyCwTse+vr7zRbBgYi1aZDigi8mHOPdMM+640sJfh0R7ffEGRg8VKQzAqVapMhzKx7/+vvtB62WA60zBw58mZDsZ0ctYdez25UQjXcjQbk8ECgOgeIXBMXgire+/n5zjWmnsDEiSPYYPm9/PrDghnn7Z8UqYFjYEks9XpuBfgNVT0D6LQ3JwSDPB1c89PMXf7Vvc03EkEZiXjiKfH9bnOWB+28888jRRbNiV69s1XEAcntTQWmzQsUVoJuIRcUeBMNc8I75R9//+sUfnt/8Divyg4bsgcqaH6KsEi/Y+va8+2bNjlu6tHjwGKzzpJDuYwb3pSVm5W0DHC08G5Qdgy0/OXLy5y+++MOvnt+3eXuNVXCAqsD99y9YcONTT214ZN7+RTYELyX1FnbrAeGnAR1K2itCD8vzAjmrSA0ZBnkxyHPBu++YNX/RfUcfPPnW47saGl77+Ocff/zxx59+/Omnn376l7+suHO20xrlfXuVwN9PJ9q1JNsGwqot4Dk6UZduBPkg0Yig7DAqKA8EHcm+Z68h7dDx05HRQ4YPVGREjACnLB6o1kCZNBAbkQD9L+9T0q47Puh05sqSUcXqglGY9H5pV7F8yIAaPkxA9EMGIJM3UyYHVzbr2GIgcQbDnHY0mXpD5OzagJHlo7o1G408royjwFc0oE3HXq2Gyq6hvHxMLALHcVx8M9CzxahubcZcibE+48m7qnNJxz7ty3sO5GQ3UNpaGFamCcbFnNbFLXoN7lbSuV1XyD0rKeswut2AMZ2bXdGmZEjvISVtrmjWuceA5qOv7NqhqCwPvl2uDREAAAAAAAAAAAAAAAAAAAAAAAAAAAAAAAAAAAAAAAAAAAAAAAAAAAAAAAAAAAAAAAAAAAAAAAAAAAAAAAAAAAAAAAAAAAAAAAAAAAAAAAAAAAAAAAAAAAAAAAAAAAAAAAAAAAAAAAAAAAAAAAAAAAAAAAAAAAAAAAAAAAAAAAAAAAAAAAAAAAAAAAAAyGr+P7JPG2PqDbq/AAAAAElFTkSuQmCC;" vertex="1" parent="1">
          <mxGeometry x="541" y="411.87" width="96.75" height="96.75" as="geometry" />
        </mxCell>
        <mxCell id="6Cb9cr2Xe844B4fNmnPE-630" value="Scan Image" style="text;html=1;align=center;verticalAlign=middle;whiteSpace=wrap;rounded=0;fontSize=19;" vertex="1" parent="1">
          <mxGeometry x="555.37" y="497.62" width="60" height="30" as="geometry" />
        </mxCell>
        <mxCell id="6Cb9cr2Xe844B4fNmnPE-631" value="docker scout" style="text;html=1;align=center;verticalAlign=middle;whiteSpace=wrap;rounded=0;fontSize=19;" vertex="1" parent="1">
          <mxGeometry x="523.56" y="406.75" width="131.63" height="30" as="geometry" />
        </mxCell>
        <mxCell id="6Cb9cr2Xe844B4fNmnPE-632" value="docker" style="text;html=1;align=center;verticalAlign=middle;whiteSpace=wrap;rounded=0;fontSize=19;" vertex="1" parent="1">
          <mxGeometry x="361" y="403.5" width="131.63" height="30" as="geometry" />
        </mxCell>
        <mxCell id="6Cb9cr2Xe844B4fNmnPE-633" value="Lint &amp;amp; Unit Test" style="text;html=1;align=center;verticalAlign=middle;whiteSpace=wrap;rounded=0;fontSize=19;" vertex="1" parent="1">
          <mxGeometry x="165" y="373.5" width="131.63" height="30" as="geometry" />
        </mxCell>
        <mxCell id="6Cb9cr2Xe844B4fNmnPE-634" value="Build Scan and Push" style="text;html=1;align=center;verticalAlign=middle;whiteSpace=wrap;rounded=0;fontSize=19;" vertex="1" parent="1">
          <mxGeometry x="460" y="369" width="200" height="30" as="geometry" />
        </mxCell>
        <mxCell id="6Cb9cr2Xe844B4fNmnPE-635" value="" style="endArrow=classic;html=1;rounded=0;" edge="1" parent="1" target="6Cb9cr2Xe844B4fNmnPE-589">
          <mxGeometry width="50" height="50" relative="1" as="geometry">
            <mxPoint x="720" y="475" as="sourcePoint" />
            <mxPoint x="770" y="425" as="targetPoint" />
          </mxGeometry>
        </mxCell>
        <mxCell id="6Cb9cr2Xe844B4fNmnPE-636" value="" style="endArrow=classic;html=1;rounded=0;entryX=0.509;entryY=1.008;entryDx=0;entryDy=0;entryPerimeter=0;" edge="1" parent="1" target="6Cb9cr2Xe844B4fNmnPE-601">
          <mxGeometry width="50" height="50" relative="1" as="geometry">
            <mxPoint x="64" y="680" as="sourcePoint" />
            <mxPoint x="114" y="630" as="targetPoint" />
          </mxGeometry>
        </mxCell>
        <mxCell id="6Cb9cr2Xe844B4fNmnPE-637" value="" style="endArrow=classic;html=1;rounded=0;entryX=0.509;entryY=1.008;entryDx=0;entryDy=0;entryPerimeter=0;" edge="1" parent="1">
          <mxGeometry width="50" height="50" relative="1" as="geometry">
            <mxPoint x="57.79" y="552" as="sourcePoint" />
            <mxPoint x="56.79" y="497" as="targetPoint" />
          </mxGeometry>
        </mxCell>
        <mxCell id="6Cb9cr2Xe844B4fNmnPE-638" value="" style="endArrow=classic;html=1;rounded=0;entryX=0.034;entryY=0.584;entryDx=0;entryDy=0;entryPerimeter=0;" edge="1" parent="1" target="6Cb9cr2Xe844B4fNmnPE-622">
          <mxGeometry width="50" height="50" relative="1" as="geometry">
            <mxPoint x="110" y="468" as="sourcePoint" />
            <mxPoint x="149.5" y="435.24" as="targetPoint" />
          </mxGeometry>
        </mxCell>
        <mxCell id="6Cb9cr2Xe844B4fNmnPE-639" value="" style="endArrow=classic;startArrow=classic;html=1;rounded=0;dashed=1;exitX=1.011;exitY=0.628;exitDx=0;exitDy=0;exitPerimeter=0;" edge="1" parent="1" source="6Cb9cr2Xe844B4fNmnPE-640" target="580">
          <mxGeometry width="50" height="50" relative="1" as="geometry">
            <mxPoint x="460" y="130" as="sourcePoint" />
            <mxPoint x="637.75" y="160" as="targetPoint" />
          </mxGeometry>
        </mxCell>
        <mxCell id="6Cb9cr2Xe844B4fNmnPE-640" value="" style="strokeWidth=1;shadow=0;dashed=0;align=center;html=1;shape=mxgraph.mockup.containers.browserWindow;rSize=0;strokeColor=#666666;strokeColor2=#008cff;strokeColor3=#c4c4c4;mainText=,;recursiveResize=0;" vertex="1" parent="1">
          <mxGeometry x="143.38" y="28.5" width="336.62" height="191.5" as="geometry" />
        </mxCell>
        <mxCell id="6Cb9cr2Xe844B4fNmnPE-641" value="Page 1" style="strokeWidth=1;shadow=0;dashed=0;align=center;html=1;shape=mxgraph.mockup.containers.anchor;fontSize=17;fontColor=#666666;align=left;whiteSpace=wrap;" vertex="1" parent="6Cb9cr2Xe844B4fNmnPE-640">
          <mxGeometry x="60" y="12" width="110" height="26" as="geometry" />
        </mxCell>
        <mxCell id="6Cb9cr2Xe844B4fNmnPE-642" value="https://fastapi-app-dev-app" style="strokeWidth=1;shadow=0;dashed=0;align=center;html=1;shape=mxgraph.mockup.containers.anchor;rSize=0;fontSize=17;fontColor=#666666;align=left;" vertex="1" parent="6Cb9cr2Xe844B4fNmnPE-640">
          <mxGeometry x="130" y="60" width="250" height="26" as="geometry" />
        </mxCell>
        <mxCell id="6Cb9cr2Xe844B4fNmnPE-643" value="" style="shape=image;verticalLabelPosition=bottom;labelBackgroundColor=default;verticalAlign=top;aspect=fixed;imageAspect=0;image=data:image/png,iVBORw0KGgoAAAANSUhEUgAAAPIAAABZCAIAAACL0e7eAAAJBklEQVR4Ae2dPWgjRxTHt3ChLluqSHGGg9jgwgIX5yZggRvBFScIJAsuDnFNzBVGpDiMO5PCLFcYV0a4CT6CQSkMchN0jcEpDA7BIBMMusKFCgc24GILFRPmS5r9kLT6GI89+auwVtLOe/P+85uZNzMLdv59xq+/dhcd+vrqm29//OXvf6aN5OR7auy7X6e1g/LGFXCM1wAVgAIzVwBYz1xSGDSvALA23waowcwVANYzlxQGzSvg/I4XFLBOAYfgBQWsUwBYW9ekCIgQYA0KLFQAWFvYqAgJWIMBCxUA1hY2KkIC1mDAQgWAtYWNipCANRiwUAFgbWGjIiRgDQYsVABYW9ioCAlYgwELFQDWFjYqQgLWYMBCBYC1hY2KkIA1GLBQAWBtYaMiJGANBixUAFhb2KgICViDAQsVANYWNipCAtZgwEIFgLWFjYqQgDUYsFABYG1hoyIkYA0GLFQAWFvYqAgJWIMBCxVIwTo4P/BWXPbfKxb9WzXmtr/Evl7y24SQW5//i4viYUe9yf7rU4+p4HinNNbGBvuU27yYIPIZmsrkPVMLtvdYw865i2/8i/tMdp/aTXGsw7MKJzoNa9mEKxGseetOEFj7U7W04lYYHBMUV4vM0JRqNv1a9ufKGf1dYM27enqBwd9mNNUNro6qxZc53p1yL4vVo1agWuXdY6Ohfkcut+dpgYJ/0/9a1HZoCwqsuTPXa0Q89U095asY1p3aGo1m/m299ZBSbSEKl+/huMQinxhrbm3i4mr9ZmhKNZt+LVgUU9nVhzyVYSqsh5rqtvxXHLHIX3e91urKCiaxDhoeHZ9c7zRCZfYWDO+a2yvUY+EjnZuf1yuGdYPOr7nNZk+vaDSiCcWowG52YolKtMDQTzNkcYamhlaZ/Sj6swhcjG2xkXK0lYymwsZbNn3my7XrICSEdMPWSYUNw87ingQujnXQ2KClCnutWEXGa8HLbdplJwst5vhxP6ZhPXjg4U24+DMX62KTzor/P6wJ789enXX+zmGRjmkTtv0oU3cHq3Sg8eqRMZcEp2ws7g1AUayDT3QedTdS0ofxWpDPSxOG9rggR72Nh3W07MBP4W19+3UhL1PB+bVq7c9es8hVS2RG7X+I5CRh5+pou7QiLc25i2vV+i0ds9grsynePPHuypCKfdkNLvYrxQW5vnAL3l6j3XMoHWd/bx+V6ID3yu8nDNkLE8IpnN+JD7qEdA5oZpLbPGfmVKxv/ALLPlKgHsc1vRdY9xU7r7Jks08qu/LkciYzi7JRY4aUNVBmU1mx7tTWE94cZa7vB5nxql/DSHfNWJqEx68VdqOleDohtqF6WHdbPk2II8vEaLlxPlmCNc8a+TJ5nPCVe0VLlA5bLBMkJAzal7XK8qbEun/vyIS4vV8ubtWuvvQstWpv2Dj6Nm5shKmMWPNUcqnavBPjc3jfauyUy/syhe3XPevVdKM17xXpaR5PfkR6LbCuX7x3k8vErHVN3tep0QRrrfbsdnCVJOSh0/xAp6+0KS8Z8aBv+F5KzjvpZR2D7hRbY+MNYxzQRMebDdbnbLGwtNuaIusYGO0kP3Csy/XU+jCUI1jn83SeTIgziWdRprX9giY05SM5SE1h6zGLMqw5K3T6zc2/UbaNJqqIWM04Tm7Z80+uOmkbhdzwCBbpqj+a6fYShFhCLDePB/aQjKO1mMEdZy5f3Dpo8p2HiUSYUaFxR+vaoA2QyetzUyt/LXVPyD65Wc0lY1g7+amxJoQE17XKslgw0r6y7B2cpwzeo7Bus1WR1FR9T+g7wlRGrGlH6jR3yvk56YzyXZ9myThd8/GpL799mWKG59alT2wkV3LrXXoSHN+uTimf8atnjDWP8EFkrtMlIYpaD52rE98TfLuVs/hUOoLFzywlcAqbZ62wt4+eDuiofCa1VLdON+kTPYQFEAbXzYOtouB7ltO6ok+GS85uf3+6X4SnBzLt7mFNCOE7IbNZNQov1c+dfhP06/B0r5TcmhAygyVjSqjBITuOTGx/Cqx/SylCetsgP9QjP//BtlkSLA43JTaqFnaVfTJxYDEAa+kzvGD+JD3y68d75307uW/9m0dnw1cHYjGnYk1IwH+d/tybLxlfH8cHpMeLf0JPUaz5QUMCmnFsNyoLpe2jq/a9lOKh0/yJPTqT2L4QJ14vvPqNvFnxJI45XK/eob+GQauxw/aA04bY4aZEd3Vc74TZur/w1+XOtBJs+2Np9Z3fuO6InRcSBte1EsWn4H9RajbO5XQ7IbR3i8fLXlaESmHQOiqzLVRlAoxiTYjstFPOM3yWS4xH4whg5t7ZYy0eb5PZqXifWz2IPAzIor1lBwfRO/vLvkA8cxL5PZ+nPCosCtmGmyLyCFqx5a5XaC9RTIljcOUefpl/10jpdpnaS0LpiMf9MhWK3XRTK8o+qFZt9aMy98SxJkQuf5Pn5zHzwz4C65464U3D3ygw+lgruIt073nA843hbb26tuj2lmjR5g9v6xXxiKyTyxe8/Yugm3Y0yHwPN0W6nfq7gnDkclOMOQVrQg81q8UFeajp5PIrnn821Ypx6tGaxXZ/Vdsqzqef2rIbklj3k+wplo/Auoc1LuxRwCqsJ3si3p7GRCRSAVue4GuzJwqc+feNIccoMmi826xA73nrtO3Fpx54bMkon3gUaxNzG1tPXTeb6xdZOs+Vj1NO0p56+HGs6RnhuV8WT2YC66fefjrqJ7DmjwHf6fCg3WYK1tp9wgEU0KwAsNYsMMybUABYm1AdPjUrAKw1CwzzJhQA1iZUh0/NCgBrzQLDvAkFgLUJ1eFTswLAWrPAMG9CAWBtQnX41KwAsNYsMMybUABYm1AdPjUrAKw1CwzzJhQA1iZUh0/NCgBrzQLDvAkFgLUJ1eFTswLAWrPAMG9CAWBtQnX41KwAsNYsMMybUABYm1AdPjUrAKw1CwzzJhQA1iZUh0/NCgBrzQLDvAkFgLUJ1eFTswLAWrPAMG9CAWBtQnX41KwAsNYsMMybUABYm1AdPjUrAKw1CwzzJhQA1iZUh0/NCgBrzQLDvAkFgLUJ1eFTswLAWrPAMG9CAWBtQnX41KzAf7baHJ2hsqdPAAAAAElFTkSuQmCC;" vertex="1" parent="6Cb9cr2Xe844B4fNmnPE-640">
          <mxGeometry x="10" y="101.5" width="242" height="89" as="geometry" />
        </mxCell>
        <mxCell id="6Cb9cr2Xe844B4fNmnPE-644" value="" style="endArrow=classic;html=1;rounded=0;" edge="1" parent="1">
          <mxGeometry width="50" height="50" relative="1" as="geometry">
            <mxPoint x="99.5" y="130" as="sourcePoint" />
            <mxPoint x="140" y="140" as="targetPoint" />
          </mxGeometry>
        </mxCell>
        <mxCell id="6Cb9cr2Xe844B4fNmnPE-645" value="Development" style="text;html=1;align=center;verticalAlign=middle;whiteSpace=wrap;rounded=0;fontSize=19;" vertex="1" parent="1">
          <mxGeometry x="70" y="640" width="131.63" height="30" as="geometry" />
        </mxCell>
        <mxCell id="6Cb9cr2Xe844B4fNmnPE-646" value="CI / CD" style="text;html=1;align=center;verticalAlign=middle;whiteSpace=wrap;rounded=0;fontSize=19;" vertex="1" parent="1">
          <mxGeometry x="319.44" y="552" width="131.63" height="30" as="geometry" />
        </mxCell>
        <mxCell id="6Cb9cr2Xe844B4fNmnPE-647" value="DevOps Engr" style="text;html=1;align=center;verticalAlign=middle;whiteSpace=wrap;rounded=0;fontSize=19;" vertex="1" parent="1">
          <mxGeometry y="740" width="131.63" height="30" as="geometry" />
        </mxCell>
        <mxCell id="6Cb9cr2Xe844B4fNmnPE-648" value="Users" style="text;html=1;align=center;verticalAlign=middle;whiteSpace=wrap;rounded=0;fontSize=19;" vertex="1" parent="1">
          <mxGeometry x="-3.8099999999999956" y="160" width="131.63" height="30" as="geometry" />
        </mxCell>
        <mxCell id="6Cb9cr2Xe844B4fNmnPE-650" value="GitHub Actions" style="text;html=1;align=center;verticalAlign=middle;whiteSpace=wrap;rounded=0;fontSize=19;" vertex="1" parent="1">
          <mxGeometry x="-1.6300000000000026" y="370" width="131.63" height="30" as="geometry" />
        </mxCell>
        <mxCell id="6Cb9cr2Xe844B4fNmnPE-651" value="1" style="ellipse;whiteSpace=wrap;html=1;aspect=fixed;rotation=0;gradientColor=#223548;strokeColor=none;gradientDirection=east;fillColor=#5b738b;rounded=0;pointerEvents=0;fontFamily=Helvetica;fontSize=16;fontColor=#FFFFFF;spacingTop=4;spacingBottom=4;spacingLeft=4;spacingRight=4;points=[];fontStyle=1" vertex="1" parent="1">
          <mxGeometry x="9" y="640" width="30" height="30" as="geometry" />
        </mxCell>
        <mxCell id="6Cb9cr2Xe844B4fNmnPE-652" value="2" style="ellipse;whiteSpace=wrap;html=1;aspect=fixed;rotation=0;gradientColor=#223548;strokeColor=none;gradientDirection=east;fillColor=#5b738b;rounded=0;pointerEvents=0;fontFamily=Helvetica;fontSize=16;fontColor=#FFFFFF;spacingTop=4;spacingBottom=4;spacingLeft=4;spacingRight=4;points=[];fontStyle=1" vertex="1" parent="1">
          <mxGeometry x="9" y="511.5" width="30" height="30" as="geometry" />
        </mxCell>
        <mxCell id="6Cb9cr2Xe844B4fNmnPE-653" value="3" style="ellipse;whiteSpace=wrap;html=1;aspect=fixed;rotation=0;gradientColor=#223548;strokeColor=none;gradientDirection=east;fillColor=#5b738b;rounded=0;pointerEvents=0;fontFamily=Helvetica;fontSize=16;fontColor=#FFFFFF;spacingTop=4;spacingBottom=4;spacingLeft=4;spacingRight=4;points=[];fontStyle=1" vertex="1" parent="1">
          <mxGeometry x="174.5" y="550" width="30" height="30" as="geometry" />
        </mxCell>
        <mxCell id="6Cb9cr2Xe844B4fNmnPE-654" value="4" style="ellipse;whiteSpace=wrap;html=1;aspect=fixed;rotation=0;gradientColor=#223548;strokeColor=none;gradientDirection=east;fillColor=#5b738b;rounded=0;pointerEvents=0;fontFamily=Helvetica;fontSize=16;fontColor=#FFFFFF;spacingTop=4;spacingBottom=4;spacingLeft=4;spacingRight=4;points=[];fontStyle=1" vertex="1" parent="1">
          <mxGeometry x="295.25" y="550" width="30" height="30" as="geometry" />
        </mxCell>
        <mxCell id="6Cb9cr2Xe844B4fNmnPE-655" value="5" style="ellipse;whiteSpace=wrap;html=1;aspect=fixed;rotation=0;gradientColor=#223548;strokeColor=none;gradientDirection=east;fillColor=#5b738b;rounded=0;pointerEvents=0;fontFamily=Helvetica;fontSize=16;fontColor=#FFFFFF;spacingTop=4;spacingBottom=4;spacingLeft=4;spacingRight=4;points=[];fontStyle=1" vertex="1" parent="1">
          <mxGeometry x="440" y="552" width="30" height="30" as="geometry" />
        </mxCell>
        <mxCell id="6Cb9cr2Xe844B4fNmnPE-656" value="6" style="ellipse;whiteSpace=wrap;html=1;aspect=fixed;rotation=0;gradientColor=#223548;strokeColor=none;gradientDirection=east;fillColor=#5b738b;rounded=0;pointerEvents=0;fontFamily=Helvetica;fontSize=16;fontColor=#FFFFFF;spacingTop=4;spacingBottom=4;spacingLeft=4;spacingRight=4;points=[];fontStyle=1" vertex="1" parent="1">
          <mxGeometry x="570.37" y="550" width="30" height="30" as="geometry" />
        </mxCell>
        <mxCell id="6Cb9cr2Xe844B4fNmnPE-657" value="8" style="ellipse;whiteSpace=wrap;html=1;aspect=fixed;rotation=0;gradientColor=#223548;strokeColor=none;gradientDirection=east;fillColor=#5b738b;rounded=0;pointerEvents=0;fontFamily=Helvetica;fontSize=16;fontColor=#FFFFFF;spacingTop=4;spacingBottom=4;spacingLeft=4;spacingRight=4;points=[];fontStyle=1" vertex="1" parent="1">
          <mxGeometry x="1000" y="290" width="30" height="30" as="geometry" />
        </mxCell>
        <mxCell id="6Cb9cr2Xe844B4fNmnPE-658" value="7" style="ellipse;whiteSpace=wrap;html=1;aspect=fixed;rotation=0;gradientColor=#223548;strokeColor=none;gradientDirection=east;fillColor=#5b738b;rounded=0;pointerEvents=0;fontFamily=Helvetica;fontSize=16;fontColor=#FFFFFF;spacingTop=4;spacingBottom=4;spacingLeft=4;spacingRight=4;points=[];fontStyle=1" vertex="1" parent="1">
          <mxGeometry x="830" y="522" width="30" height="30" as="geometry" />
        </mxCell>
        <mxCell id="6Cb9cr2Xe844B4fNmnPE-659" value="9" style="ellipse;whiteSpace=wrap;html=1;aspect=fixed;rotation=0;gradientColor=#223548;strokeColor=none;gradientDirection=east;fillColor=#5b738b;rounded=0;pointerEvents=0;fontFamily=Helvetica;fontSize=16;fontColor=#FFFFFF;spacingTop=4;spacingBottom=4;spacingLeft=4;spacingRight=4;points=[];fontStyle=1" vertex="1" parent="1">
          <mxGeometry x="930" y="630" width="30" height="30" as="geometry" />
        </mxCell>
        <mxCell id="6Cb9cr2Xe844B4fNmnPE-660" value="10" style="ellipse;whiteSpace=wrap;html=1;aspect=fixed;rotation=0;gradientColor=#223548;strokeColor=none;gradientDirection=east;fillColor=#5b738b;rounded=0;pointerEvents=0;fontFamily=Helvetica;fontSize=16;fontColor=#FFFFFF;spacingTop=4;spacingBottom=4;spacingLeft=4;spacingRight=4;points=[];fontStyle=1" vertex="1" parent="1">
          <mxGeometry x="1160" y="624" width="30" height="30" as="geometry" />
        </mxCell>
        <mxCell id="6Cb9cr2Xe844B4fNmnPE-661" value="11" style="ellipse;whiteSpace=wrap;html=1;aspect=fixed;rotation=0;gradientColor=#223548;strokeColor=none;gradientDirection=east;fillColor=#5b738b;rounded=0;pointerEvents=0;fontFamily=Helvetica;fontSize=16;fontColor=#FFFFFF;spacingTop=4;spacingBottom=4;spacingLeft=4;spacingRight=4;points=[];fontStyle=1" vertex="1" parent="1">
          <mxGeometry x="95" y="180" width="30" height="30" as="geometry" />
        </mxCell>
      </root>
    </mxGraphModel>
  </diagram>
</mxfile>
